{"glyphs":{"0":{"ha":706,"x_min":67,"x_max":639,"o":"m 174 519 q 358 110 174 110 q 532 465 532 110 q 346 876 532 876 q 174 519 174 876 m 565 815 q 602 755 565 815 q 639 492 639 694 q 565 170 639 289 q 352 51 492 51 q 140 170 213 51 q 67 492 67 289 q 140 815 67 694 q 353 935 214 935 q 565 815 492 935 z "},"1":{"ha":439,"x_min":47,"x_max":392,"o":"m 49 68 q 47 85 47 75 q 53 108 47 96 q 146 128 119 115 q 172 174 172 142 l 172 818 l 51 801 q 53 829 51 822 q 249 933 181 901 l 271 925 l 271 136 q 392 108 322 113 q 388 68 392 85 l 49 68 z "},"2":{"ha":628,"x_min":47,"x_max":550,"o":"m 382 153 q 481 182 451 153 q 521 289 510 211 q 550 282 533 289 q 529 68 550 158 l 58 68 q 47 140 47 108 q 403 593 351 474 q 426 713 426 649 q 388 823 426 778 q 288 868 349 868 q 121 719 158 868 q 89 722 99 719 q 96 874 89 817 q 306 935 199 935 q 476 874 414 935 q 538 715 538 813 q 474 533 538 618 q 176 203 411 447 q 129 153 146 169 l 382 153 z "},"3":{"ha":628,"x_min":54,"x_max":551,"o":"m 217 521 q 361 581 304 522 q 418 716 418 640 q 385 830 418 792 q 292 868 351 868 q 124 719 160 868 q 92 722 100 719 q 92 783 92 743 q 97 874 92 824 q 308 935 206 935 q 467 881 410 935 q 525 744 525 826 q 475 601 525 663 q 346 511 425 539 q 551 281 551 461 q 472 115 551 179 q 276 50 393 50 q 54 139 158 50 q 81 178 63 167 q 249 121 156 121 q 396 165 343 121 q 449 285 449 208 q 217 475 449 458 l 217 521 z "},"4":{"ha":663,"x_min":40,"x_max":624,"o":"m 400 363 l 400 757 l 119 363 l 400 363 m 493 301 l 493 128 q 585 107 531 111 q 579 68 585 83 l 308 68 q 313 107 306 92 q 381 128 361 114 q 400 174 400 142 l 400 301 l 69 301 q 40 356 47 325 l 439 926 l 493 926 l 493 363 l 617 363 q 624 326 624 342 q 622 301 624 311 l 493 301 z "},"5":{"ha":669,"x_min":61,"x_max":592,"o":"m 175 536 q 354 608 260 608 q 520 543 449 608 q 592 359 592 478 q 501 146 592 240 q 285 51 411 51 q 61 139 160 51 q 89 181 69 165 q 265 122 165 122 q 426 188 364 122 q 488 344 488 253 q 442 485 488 436 q 320 535 397 535 q 133 458 243 535 l 108 469 l 153 903 l 425 903 q 543 958 519 903 q 572 954 558 958 q 542 817 567 892 l 208 817 l 175 536 z "},"6":{"ha":657,"x_min":79,"x_max":594,"o":"m 182 357 q 222 185 183 253 q 333 117 261 117 q 451 175 404 117 q 497 340 499 233 q 458 472 494 418 q 356 525 422 525 q 188 454 257 525 q 182 357 182 411 m 594 338 q 594 281 594 338 q 512 138 594 224 q 323 53 429 53 q 149 139 217 53 q 79 385 79 225 q 177 695 79 546 q 471 932 275 844 q 501 890 499 913 q 200 518 261 767 q 292 582 244 567 q 396 597 339 597 q 538 525 482 597 q 594 338 594 453 z "},"7":{"ha":572,"x_min":44,"x_max":551,"o":"m 231 68 q 197 67 218 67 q 146 76 176 67 l 413 685 l 483 828 l 204 828 q 108 810 135 828 q 72 732 82 792 q 44 739 57 732 q 58 914 44 840 l 521 914 q 551 847 543 882 l 231 68 z "},"8":{"ha":728,"x_min":94,"x_max":640,"o":"m 189 253 q 189 220 189 253 q 239 150 189 188 q 369 113 289 113 q 499 156 449 113 q 550 271 550 199 q 486 400 550 350 q 360 471 439 436 q 228 367 268 414 q 189 253 189 319 m 203 729 q 386 543 203 625 q 496 631 461 589 q 531 729 531 672 q 490 829 531 786 q 371 872 450 872 q 247 835 292 872 q 203 729 203 797 m 640 281 q 556 122 640 192 q 358 53 471 53 q 169 113 244 53 q 94 251 94 172 q 147 382 94 329 q 301 494 199 435 q 164 590 221 533 q 107 714 107 647 q 194 872 107 810 q 387 933 281 933 q 558 874 493 933 q 624 740 624 815 q 579 619 624 665 q 443 519 535 572 q 640 281 640 426 z "},"9":{"ha":650,"x_min":61,"x_max":576,"o":"m 301 461 q 468 532 399 461 q 474 601 474 578 q 433 799 474 728 q 321 869 392 869 q 205 813 250 869 q 160 663 160 756 q 197 515 160 569 q 301 461 235 461 m 576 596 q 481 290 576 438 q 190 54 385 142 q 158 97 161 74 q 457 469 397 221 q 365 404 413 419 q 261 389 318 389 q 119 461 176 389 q 61 649 61 536 q 143 849 61 763 q 331 935 225 935 q 506 849 438 935 q 576 614 574 764 q 576 596 576 606 z "},"\u0000":{"ha":0,"x_min":0,"x_max":0,"o":""},"\r":{"ha":347,"x_min":0,"x_max":0,"o":""}," ":{"ha":347,"x_min":0,"x_max":0,"o":""},"!":{"ha":647,"x_min":226,"x_max":368,"o":"m 253 978 l 342 946 l 329 288 l 322 288 l 267 315 l 244 978 l 253 978 m 368 131 q 368 116 368 131 q 347 81 368 101 q 297 61 326 61 q 247 81 267 61 q 226 131 226 101 q 247 182 226 161 q 297 203 267 203 q 347 182 326 203 q 368 131 368 161 z "},"\"":{"ha":494,"x_min":94,"x_max":381,"o":"m 94 1156 l 204 1156 l 176 911 l 122 911 l 94 1156 m 271 1156 l 381 1156 l 354 911 l 299 911 l 271 1156 z "},"#":{"ha":1044,"x_min":83,"x_max":983,"o":"m 631 406 l 683 675 l 424 675 l 372 406 l 631 406 m 983 675 l 760 675 l 708 406 l 908 406 l 908 332 l 694 332 l 643 68 l 565 68 l 617 332 l 358 332 l 307 68 l 229 68 l 281 332 l 83 332 l 83 406 l 294 406 l 347 675 l 158 675 l 158 749 l 361 749 l 413 1010 l 489 1010 l 439 749 l 697 749 l 749 1010 l 825 1010 l 775 749 l 983 749 l 983 675 z "},"$":{"ha":722,"x_min":78,"x_max":638,"o":"m 568 808 q 494 865 542 840 q 381 889 446 889 q 269 850 317 889 q 221 739 221 811 q 279 633 221 669 q 355 594 315 611 q 429 563 394 578 q 496 529 464 547 q 565 481 528 511 q 638 320 638 424 q 573 155 638 217 q 411 85 508 93 l 411 0 l 353 0 l 353 85 q 78 215 203 99 l 132 290 q 174 241 149 267 q 259 184 200 215 q 385 153 318 153 q 503 194 453 153 q 553 306 553 236 q 515 411 553 375 q 396 483 476 447 q 292 530 336 507 q 238 560 247 553 q 207 584 228 568 q 178 614 186 600 q 158 647 169 628 q 139 733 139 679 q 206 892 139 832 q 365 958 272 953 l 365 1039 l 422 1039 l 422 956 q 614 872 538 943 l 568 808 z "},"%":{"ha":1161,"x_min":126,"x_max":1043,"o":"m 365 68 l 267 68 l 797 969 l 893 969 l 365 68 m 203 744 q 229 617 203 665 q 301 569 256 569 q 373 615 346 569 q 400 744 400 661 q 300 914 400 914 q 203 744 203 914 m 170 913 q 192 946 170 913 q 301 979 214 979 q 433 912 389 979 q 478 744 478 844 q 434 575 478 643 q 304 507 390 507 q 172 578 218 507 q 126 748 126 650 q 170 913 126 846 m 769 293 q 796 167 769 214 q 867 119 822 119 q 938 165 911 119 q 965 293 965 211 q 865 463 965 463 q 769 293 769 463 m 735 461 q 757 494 735 461 q 867 528 779 528 q 999 460 954 528 q 1043 293 1043 393 q 999 125 1043 193 q 869 57 956 57 q 738 128 783 57 q 692 297 692 199 q 735 461 692 394 z "},"&":{"ha":917,"x_min":64,"x_max":903,"o":"m 369 128 q 569 235 483 128 q 299 490 411 367 q 222 429 247 451 q 173 372 196 407 q 150 303 150 338 q 216 176 150 224 q 369 128 282 128 m 464 757 q 426 840 464 806 q 339 875 388 875 q 239 775 239 875 q 340 576 239 701 q 464 757 464 667 m 332 50 q 147 115 229 50 q 64 276 64 179 q 93 372 64 328 q 157 444 122 417 q 269 525 192 472 q 157 742 157 661 q 222 878 157 822 q 362 933 286 933 q 492 887 438 933 q 546 780 546 840 q 509 669 546 719 q 374 544 472 618 l 369 542 q 617 303 474 422 q 711 524 658 375 l 903 524 l 881 451 l 732 451 q 653 272 697 350 q 854 117 764 178 l 782 65 q 713 119 774 72 q 608 203 653 165 q 332 50 494 50 z "},"'":{"ha":511,"x_min":214,"x_max":325,"o":"m 214 1156 l 325 1156 l 297 911 l 242 911 l 214 1156 z "},"(":{"ha":531,"x_min":157,"x_max":528,"o":"m 249 563 q 317 209 249 383 q 528 -97 386 35 l 479 -139 q 241 176 325 -3 q 157 563 157 356 q 479 1244 157 960 l 528 1204 q 249 563 249 944 z "},")":{"ha":510,"x_min":3,"x_max":374,"o":"m 374 563 q 290 176 374 356 q 51 -139 206 -3 l 3 -97 q 213 208 144 35 q 281 563 281 382 q 3 1204 281 946 l 51 1244 q 374 563 374 960 z "},"*":{"ha":647,"x_min":81,"x_max":490,"o":"m 238 1000 q 285 1010 257 1010 q 329 1006 313 1010 l 315 825 l 464 889 q 482 849 474 879 q 489 801 490 819 l 328 776 l 451 654 q 423 622 444 640 q 381 596 401 604 l 288 744 l 206 593 q 165 612 189 596 q 129 646 142 628 l 247 776 l 81 801 q 89 851 81 822 q 108 889 97 881 l 263 828 l 238 1000 z "},"+":{"ha":835,"x_min":83,"x_max":753,"o":"m 753 479 l 461 479 l 461 196 l 456 196 l 374 260 l 374 479 l 122 479 l 83 560 l 83 565 l 374 565 l 374 850 l 379 850 l 461 785 l 461 565 l 713 565 l 753 486 l 753 479 z "},",":{"ha":372,"x_min":110,"x_max":268,"o":"m 268 36 q 175 -194 268 -69 l 122 -169 q 132 -153 122 -168 q 143 -136 142 -139 q 153 -119 144 -133 q 163 -101 161 -106 q 172 -83 165 -96 q 181 -64 178 -71 q 193 4 193 -29 q 110 125 193 83 l 110 131 l 151 201 q 241 131 214 176 q 268 36 268 86 z "},"-":{"ha":767,"x_min":83,"x_max":671,"o":"m 671 479 l 122 479 l 83 560 l 83 565 l 632 565 l 671 486 l 671 479 z "},".":{"ha":404,"x_min":139,"x_max":274,"o":"m 253 83 q 243 73 253 83 q 206 63 233 63 q 158 83 178 63 q 139 131 139 103 q 158 179 139 160 q 206 199 178 199 q 253 179 233 199 q 274 131 274 160 q 253 83 274 103 z "},"/":{"ha":649,"x_min":150,"x_max":488,"o":"m 401 1031 l 488 1031 l 235 32 l 150 32 l 401 1031 z "},":":{"ha":372,"x_min":118,"x_max":254,"o":"m 235 753 q 244 743 235 753 q 254 704 254 733 q 235 656 254 675 q 186 636 215 636 q 138 656 157 636 q 118 704 118 675 q 138 753 118 733 q 186 772 157 772 q 235 753 215 772 m 234 253 q 244 243 234 253 q 254 206 254 233 q 235 158 254 178 q 186 139 215 139 q 138 158 157 139 q 118 206 118 178 q 138 253 118 233 q 185 274 157 274 q 234 253 214 274 z "},";":{"ha":372,"x_min":118,"x_max":294,"o":"m 254 719 q 254 705 254 719 q 235 671 254 690 q 186 651 215 651 q 138 671 157 651 q 118 719 118 690 q 138 767 118 747 q 186 786 157 786 q 235 767 215 786 q 254 719 254 747 m 294 93 q 201 -136 294 -10 l 147 -111 q 218 63 218 -1 q 135 182 218 142 l 135 189 l 176 260 q 267 190 239 235 q 294 93 294 144 z "},"<":{"ha":864,"x_min":132,"x_max":717,"o":"m 179 456 l 132 533 l 657 801 l 717 725 l 257 492 l 714 289 l 688 232 l 179 456 z "},"=":{"ha":871,"x_min":135,"x_max":740,"o":"m 740 586 l 174 586 l 135 665 l 135 674 l 701 674 l 740 593 l 740 586 m 740 363 l 174 363 l 135 442 l 135 450 l 701 450 l 740 369 l 740 363 z "},">":{"ha":878,"x_min":140,"x_max":725,"o":"m 681 578 l 725 501 l 200 232 l 140 308 l 600 542 l 143 744 l 171 801 l 681 578 z "},"?":{"ha":818,"x_min":153,"x_max":651,"o":"m 426 109 q 417 100 426 109 q 379 90 407 90 q 333 109 351 90 q 315 156 315 128 q 333 203 315 183 q 379 222 351 222 q 426 203 407 222 q 446 156 446 183 q 426 109 446 128 m 574 792 q 523 898 574 860 q 386 936 472 936 q 211 869 300 936 l 153 939 q 363 1015 246 1015 q 566 943 481 1015 q 651 768 651 871 q 415 529 651 611 l 415 358 l 401 358 l 343 386 l 343 588 q 511 675 471 639 q 565 741 556 715 q 574 792 574 767 z "},"@":{"ha":1208,"x_min":83,"x_max":1125,"o":"m 706 183 l 706 401 q 683 401 694 401 q 529 356 588 401 q 471 233 471 310 q 499 155 471 183 q 572 126 528 126 q 706 183 653 126 m 807 526 l 807 206 q 824 144 807 164 q 879 125 840 125 q 987 203 938 125 q 1036 422 1036 281 q 930 733 1036 611 q 639 856 824 856 q 298 711 425 856 q 171 325 171 567 q 287 10 171 138 q 622 -118 403 -118 q 600 -176 621 -133 q 221 -31 358 -176 q 83 336 83 114 q 238 756 83 592 q 629 921 393 921 q 995 778 865 921 q 1125 422 1125 636 q 1041 151 1125 250 q 858 51 957 51 q 714 140 742 51 q 539 51 635 51 q 414 99 464 51 q 364 222 364 146 q 461 394 364 333 q 657 447 542 447 q 706 444 681 447 l 706 514 q 680 606 706 576 q 579 636 654 636 q 428 594 504 636 l 406 621 q 631 715 504 715 q 760 665 714 715 q 807 526 807 614 z "},"A":{"ha":797,"x_min":-4,"x_max":801,"o":"m 242 404 l 514 404 l 375 831 l 361 771 l 242 404 m 497 68 q 503 108 497 92 q 600 139 565 118 l 529 354 l 226 354 l 153 131 q 257 108 196 111 q 251 68 257 93 l -4 68 q 1 108 -4 86 q 71 134 47 115 q 106 185 94 153 l 353 922 q 443 935 386 935 l 688 186 q 726 128 700 146 q 801 108 753 111 q 794 68 799 81 l 497 68 z "},"B":{"ha":774,"x_min":44,"x_max":693,"o":"m 238 117 l 388 117 q 535 167 488 117 q 583 297 583 217 q 535 428 583 378 q 388 479 488 479 l 238 479 l 238 117 m 546 697 q 499 824 546 776 q 354 871 453 871 l 238 871 l 238 528 l 419 526 q 546 697 546 568 m 354 917 q 583 855 511 917 q 654 697 654 793 q 618 583 654 631 q 522 511 582 535 q 648 433 603 493 q 693 297 693 374 q 617 134 693 200 q 390 68 540 68 l 47 68 q 51 108 47 97 q 119 128 100 115 q 139 175 139 142 l 139 858 q 44 878 100 875 q 49 917 44 904 l 354 917 z "},"C":{"ha":806,"x_min":76,"x_max":749,"o":"m 749 168 q 471 51 635 51 q 192 169 307 51 q 76 485 76 288 q 203 808 76 682 q 513 935 329 935 q 729 893 642 935 q 707 718 726 804 q 676 719 681 718 q 629 831 675 790 q 511 871 583 871 q 277 768 365 871 q 189 493 189 665 q 277 223 189 321 q 492 125 365 125 q 725 193 619 125 l 749 168 z "},"D":{"ha":819,"x_min":44,"x_max":788,"o":"m 239 117 l 353 117 q 592 218 510 117 q 675 493 675 319 q 592 769 675 667 q 350 871 508 871 l 239 871 l 239 117 m 358 917 q 669 806 551 917 q 788 494 788 694 q 672 181 788 293 q 364 68 556 68 l 49 68 q 53 108 46 90 q 121 128 101 115 q 140 175 140 142 l 140 858 q 44 878 96 875 q 49 917 44 904 l 358 917 z "},"E":{"ha":719,"x_min":46,"x_max":651,"o":"m 242 117 l 482 117 q 574 149 550 117 q 606 260 597 181 q 647 257 638 260 q 651 148 651 194 q 650 68 651 101 l 50 68 q 54 108 47 90 q 123 128 104 115 q 142 175 142 142 l 142 857 q 46 878 106 875 q 50 917 46 904 l 629 917 q 631 840 631 888 q 624 732 631 792 q 585 729 615 729 q 554 839 578 807 q 464 871 531 871 l 242 871 l 242 525 l 469 535 l 511 535 l 511 468 l 469 468 l 242 474 l 242 117 z "},"F":{"ha":678,"x_min":44,"x_max":631,"o":"m 629 917 q 631 840 631 888 q 624 732 631 792 q 585 729 615 729 q 554 839 578 807 q 464 871 531 871 l 242 871 l 242 497 l 453 507 l 500 507 l 500 440 l 453 440 l 242 446 l 242 140 q 382 110 299 119 q 378 68 382 85 l 47 68 q 50 110 44 89 q 122 131 101 117 q 142 179 142 144 l 142 857 q 46 878 106 875 q 50 917 46 904 l 629 917 z "},"G":{"ha":864,"x_min":76,"x_max":838,"o":"m 836 489 q 838 471 838 482 q 832 447 838 460 q 764 426 783 439 q 744 381 744 414 l 744 68 l 693 68 l 667 118 q 451 51 567 51 q 186 167 296 51 q 76 483 76 283 q 204 808 76 682 q 514 935 332 935 q 743 893 635 935 q 721 719 740 807 q 690 721 699 719 q 638 832 686 793 q 515 871 589 871 q 275 768 361 871 q 189 488 189 665 q 267 215 189 311 q 471 119 346 119 q 651 167 567 119 l 651 425 q 551 447 607 443 q 556 489 551 472 l 836 489 z "},"H":{"ha":890,"x_min":46,"x_max":844,"o":"m 844 108 l 843 68 l 560 68 q 563 108 560 97 q 631 128 613 115 q 650 175 650 142 l 650 467 l 242 467 l 242 129 q 335 108 282 111 q 331 68 336 92 l 50 68 q 54 108 47 90 q 123 128 104 115 q 142 175 142 142 l 142 856 q 46 878 99 874 q 50 917 46 904 l 332 917 q 328 878 332 889 q 261 858 281 872 q 242 813 242 844 l 242 519 l 650 519 l 650 857 q 556 878 611 872 q 561 917 556 906 l 842 917 q 839 878 844 899 q 770 859 789 872 q 751 813 751 846 l 751 129 q 844 108 790 111 z "},"I":{"ha":382,"x_min":46,"x_max":335,"o":"m 242 813 l 242 129 q 335 108 282 111 q 335 97 335 106 q 331 68 335 88 l 50 68 q 54 108 47 90 q 123 128 104 115 q 142 175 142 142 l 142 856 q 46 878 99 874 q 50 917 46 904 l 332 917 q 328 878 332 889 q 261 858 281 872 q 242 813 242 844 z "},"J":{"ha":368,"x_min":-8,"x_max":332,"o":"m 332 917 q 328 878 332 889 q 261 858 281 872 q 242 813 242 844 l 242 96 q 184 -101 242 -29 q 10 -210 126 -174 q -8 -182 -7 -183 q 113 -68 85 -131 q 142 93 142 -6 l 142 856 q 46 878 99 874 q 50 917 46 904 l 332 917 z "},"K":{"ha":843,"x_min":46,"x_max":771,"o":"m 142 175 l 142 856 q 46 878 99 874 q 50 917 46 904 l 332 917 q 328 878 332 889 q 261 858 281 872 q 242 813 242 844 l 242 506 l 578 856 q 488 878 542 875 q 493 917 485 903 l 768 917 q 764 878 768 890 q 629 824 682 878 l 346 535 q 419 483 388 528 l 632 189 q 694 128 665 143 q 771 110 722 113 q 764 68 771 86 l 597 68 l 324 440 q 281 468 307 464 l 242 428 l 242 129 q 335 108 282 111 q 331 68 336 92 l 50 68 q 54 108 47 90 q 123 128 104 115 q 142 175 142 142 z "},"L":{"ha":725,"x_min":44,"x_max":660,"o":"m 239 117 l 496 117 q 586 148 563 117 q 617 256 610 179 q 653 254 644 256 q 660 142 660 188 q 658 68 660 97 l 49 68 q 53 108 46 90 q 121 128 101 115 q 140 175 140 142 l 140 856 q 44 878 99 874 q 49 917 44 904 l 329 917 q 325 878 332 897 q 258 858 278 872 q 239 813 239 844 l 239 117 z "},"M":{"ha":1122,"x_min":21,"x_max":1094,"o":"m 1093 108 q 1094 90 1094 100 q 1092 68 1094 79 l 801 68 q 801 108 799 90 q 873 128 853 115 q 892 175 893 142 l 849 814 l 804 697 l 554 68 l 521 68 l 286 711 l 244 831 l 189 128 q 293 108 229 111 q 288 68 293 93 l 21 68 q 26 108 21 86 q 129 182 125 122 l 182 860 q 113 876 146 872 q 114 917 108 896 l 304 917 l 551 236 l 822 917 l 1004 917 q 1008 876 1010 893 q 942 806 938 869 l 993 129 q 1093 108 1040 111 z "},"N":{"ha":918,"x_min":50,"x_max":881,"o":"m 881 917 q 876 878 881 889 q 781 803 781 867 l 781 68 l 736 68 l 282 706 l 213 811 l 213 129 q 317 108 254 111 q 313 68 318 92 l 51 68 q 50 85 50 75 q 54 108 50 96 q 150 182 150 121 l 150 858 q 56 878 114 875 q 60 917 56 903 l 250 917 l 607 418 l 718 251 l 718 857 q 613 878 683 872 q 617 917 610 897 l 881 917 z "},"O":{"ha":915,"x_min":78,"x_max":840,"o":"m 649 779 q 610 829 649 779 q 449 879 572 879 q 258 777 325 879 q 192 517 192 675 q 192 490 192 503 q 267 199 194 292 q 466 106 340 106 q 658 204 592 106 q 725 471 725 303 q 649 779 725 679 m 840 491 q 840 393 840 491 q 736 173 840 296 q 458 50 632 50 q 181 172 283 50 q 78 490 78 294 q 181 810 78 686 q 457 935 283 935 q 735 810 631 935 q 840 491 840 686 z "},"P":{"ha":721,"x_min":44,"x_max":688,"o":"m 239 478 l 365 478 q 521 533 468 478 q 574 674 574 588 q 522 815 574 761 q 365 869 469 869 l 239 869 l 239 478 m 388 917 q 605 845 522 917 q 688 673 688 774 q 605 501 688 572 q 389 429 522 429 l 239 429 l 239 136 q 375 108 299 113 q 371 68 376 92 l 49 68 q 53 108 46 90 q 121 128 101 115 q 140 175 140 142 l 140 856 q 44 878 92 876 q 49 917 44 904 l 388 917 z "},"Q":{"ha":914,"x_min":78,"x_max":913,"o":"m 192 490 q 267 203 196 299 q 466 108 339 108 q 659 209 593 108 q 725 472 725 310 q 649 774 725 672 q 449 876 574 876 q 258 772 324 876 q 192 515 192 668 q 192 490 192 503 m 913 3 q 879 -118 913 -60 q 765 -176 846 -176 q 667 -149 715 -176 q 585 -89 618 -122 q 508 -28 551 -56 q 425 -1 465 -1 q 364 -27 385 -1 q 343 -87 343 -53 q 344 -104 343 -96 l 324 -104 q 306 -31 306 -68 q 367 60 306 35 q 154 206 231 90 q 78 504 78 322 q 181 810 78 686 q 457 935 283 935 q 735 810 631 935 q 840 498 840 686 q 747 189 840 310 q 494 42 654 68 q 579 -1 536 29 q 666 -51 622 -31 q 774 -71 710 -71 q 893 26 867 -71 l 911 22 q 913 3 913 13 z "},"R":{"ha":786,"x_min":46,"x_max":772,"o":"m 242 513 l 354 513 q 543 691 543 513 q 354 869 543 869 l 242 869 l 242 513 m 772 108 q 768 68 772 89 l 607 68 l 442 394 q 401 448 422 432 q 332 464 379 464 l 242 464 l 242 136 q 354 108 299 113 q 351 68 356 88 l 50 68 q 54 108 47 90 q 123 128 104 115 q 142 175 142 142 l 142 856 q 46 878 96 876 q 50 917 46 904 l 378 917 q 583 855 513 917 q 653 701 653 793 q 482 476 653 519 q 550 399 518 458 l 663 185 q 709 124 686 140 q 772 108 732 108 z "},"S":{"ha":660,"x_min":79,"x_max":599,"o":"m 599 293 q 519 121 599 186 q 318 56 439 56 q 81 114 197 56 q 79 188 79 136 q 92 318 79 239 q 128 314 107 318 q 128 306 128 310 q 325 110 128 110 q 453 153 403 110 q 503 262 503 197 q 460 372 503 326 q 358 447 418 417 q 239 508 299 476 q 137 592 179 539 q 94 719 94 646 q 167 874 94 817 q 350 931 240 931 q 569 889 460 931 q 554 725 567 792 q 524 728 532 725 q 343 876 496 876 q 227 840 269 876 q 185 742 185 803 q 227 639 185 681 q 331 569 269 597 q 453 509 392 540 q 556 424 514 478 q 599 293 599 369 z "},"T":{"ha":714,"x_min":25,"x_max":689,"o":"m 685 917 q 689 833 689 878 q 685 738 689 788 q 650 733 675 733 q 617 840 643 810 q 525 869 590 869 l 407 869 l 407 132 q 536 108 465 111 q 533 68 539 88 l 176 68 q 181 108 174 90 q 281 128 256 115 q 307 175 307 142 l 307 869 l 189 869 q 97 840 124 869 q 64 733 71 810 q 29 738 39 733 q 25 826 25 781 q 29 917 25 871 l 685 917 z "},"U":{"ha":907,"x_min":51,"x_max":857,"o":"m 856 917 q 857 901 857 911 q 853 878 857 892 q 784 859 803 872 q 765 813 765 846 l 765 356 q 681 126 765 200 q 457 51 597 51 q 233 126 317 51 q 149 356 149 200 l 149 856 q 53 878 106 874 q 51 893 51 883 q 57 917 51 903 l 338 917 q 335 878 338 889 q 267 858 286 872 q 247 813 247 844 l 247 346 q 304 168 247 226 q 457 110 361 110 q 608 169 553 110 q 664 346 664 228 l 664 857 q 569 878 625 872 q 575 917 569 906 l 856 917 z "},"V":{"ha":815,"x_min":4,"x_max":811,"o":"m 8 876 q 4 904 4 896 q 6 917 4 913 l 274 917 q 278 876 278 897 q 212 862 222 871 q 201 840 201 853 q 208 808 201 828 l 401 294 q 428 208 419 246 l 432 208 l 669 856 q 575 876 624 875 q 579 917 575 900 l 811 917 q 804 876 808 892 q 743 857 765 871 q 707 807 721 843 l 428 60 l 390 60 l 83 860 q 8 876 39 875 z "},"W":{"ha":1213,"x_min":7,"x_max":1207,"o":"m 10 876 q 7 903 7 894 q 7 917 7 913 l 282 917 q 289 876 289 900 q 217 860 229 871 q 206 837 206 850 q 210 808 206 824 l 356 317 q 376 225 371 268 l 381 225 l 628 874 l 663 874 l 864 303 q 882 219 878 260 l 885 219 l 1074 853 q 996 876 1036 872 q 1004 917 999 900 l 1206 917 q 1201 876 1207 906 q 1142 854 1160 868 q 1111 800 1124 840 l 882 60 l 846 60 l 617 707 l 364 60 l 329 60 l 86 858 q 10 876 42 875 z "},"X":{"ha":832,"x_min":38,"x_max":792,"o":"m 788 108 q 792 80 792 89 q 792 68 792 71 l 533 68 q 528 108 528 78 q 595 126 583 114 q 588 165 607 139 l 397 436 l 179 128 q 269 108 222 110 q 267 68 271 89 l 42 68 q 47 108 40 86 q 101 126 81 113 q 150 175 122 140 l 364 483 l 96 867 q 43 876 61 875 q 38 901 38 892 q 40 917 38 911 l 300 917 q 306 878 306 900 q 237 859 250 872 q 244 821 224 846 l 431 554 l 654 858 q 564 878 610 874 q 567 917 561 897 l 792 917 q 786 878 792 894 q 731 860 753 874 q 685 813 710 846 l 463 510 l 735 121 q 788 108 758 114 z "},"Y":{"ha":785,"x_min":-6,"x_max":789,"o":"m 789 917 q 785 876 789 900 q 726 857 746 871 q 683 807 707 843 l 440 418 l 440 128 q 538 108 486 110 q 533 68 538 86 l 243 68 q 246 108 242 89 q 315 128 296 115 q 335 175 335 142 l 335 404 l 72 861 q 0 876 32 875 q -6 917 -6 907 l 275 917 q 282 876 282 896 q 210 856 224 871 q 204 837 204 849 q 215 804 204 825 l 407 458 l 410 458 q 443 529 419 493 l 650 860 q 565 876 610 875 q 569 917 565 900 l 789 917 z "},"Z":{"ha":747,"x_min":71,"x_max":668,"o":"m 508 124 q 601 151 574 124 q 639 250 628 178 q 667 244 657 250 q 654 68 667 144 l 82 68 q 71 117 71 88 l 553 864 l 256 864 q 164 835 192 864 q 125 735 136 807 q 96 742 113 735 q 110 917 96 835 l 661 917 q 668 869 668 901 l 189 124 l 508 124 z "},"[":{"ha":511,"x_min":117,"x_max":447,"o":"m 208 1094 l 208 -32 l 392 -32 l 447 -112 l 188 -112 l 117 -32 l 117 1176 l 392 1176 l 447 1094 l 208 1094 z "},"\\":{"ha":640,"x_min":150,"x_max":488,"o":"m 150 1031 l 236 1031 l 488 32 l 403 32 l 150 1031 z "},"]":{"ha":457,"x_min":64,"x_max":394,"o":"m 303 -32 l 303 1094 l 118 1094 l 64 1176 l 324 1176 l 394 1094 l 394 -112 l 118 -112 l 64 -32 l 303 -32 z "},"^":{"ha":629,"x_min":58,"x_max":581,"o":"m 356 893 l 581 397 q 508 379 549 382 l 315 806 l 122 379 q 58 397 90 381 l 283 893 q 319 897 301 897 l 356 893 z "},"_":{"ha":767,"x_min":83,"x_max":671,"o":"m 671 136 l 122 136 l 83 217 l 83 222 l 632 222 l 671 143 l 671 136 z "},"`":{"ha":269,"x_min":14,"x_max":256,"o":"m 103 1008 l 256 778 l 226 760 l 14 949 l 14 964 q 103 1008 49 999 z "},"a":{"ha":646,"x_min":63,"x_max":610,"o":"m 168 233 q 198 153 168 182 q 278 125 228 125 q 406 181 354 125 l 406 407 l 307 382 q 168 233 168 344 m 506 51 q 443 72 469 51 q 408 128 417 92 q 252 51 339 51 q 114 101 165 51 q 63 228 63 150 q 274 426 63 381 l 406 456 l 406 517 q 380 608 406 579 q 283 638 354 638 q 117 604 213 638 l 99 632 q 329 717 201 717 q 460 667 414 717 q 507 528 507 617 l 507 199 q 517 140 507 157 q 548 124 526 124 q 601 131 569 124 l 610 114 q 506 51 563 51 z "},"b":{"ha":713,"x_min":8,"x_max":653,"o":"m 206 147 q 348 114 265 114 q 485 186 431 114 q 540 393 540 258 q 492 589 540 528 q 378 650 444 650 q 265 603 313 650 q 206 461 217 556 l 206 147 m 394 717 q 576 633 499 717 q 653 394 653 550 q 560 144 653 238 q 333 51 467 51 q 163 104 243 51 q 92 53 136 72 l 75 68 q 106 222 106 138 l 106 971 q 67 972 92 972 q 8 971 42 972 q 15 1010 8 996 q 206 1061 108 1047 l 206 567 q 281 678 231 639 q 394 717 331 717 z "},"c":{"ha":628,"x_min":57,"x_max":579,"o":"m 579 153 q 347 51 471 51 q 140 140 222 51 q 57 377 57 228 q 147 622 57 526 q 379 717 238 717 q 567 663 490 717 q 554 513 567 590 l 525 517 q 482 622 525 583 q 371 660 439 660 q 222 585 278 660 q 165 386 165 511 q 220 189 165 261 q 368 117 275 117 q 561 175 461 117 l 579 153 z "},"d":{"ha":742,"x_min":61,"x_max":696,"o":"m 397 650 q 165 389 165 650 q 215 188 165 253 q 350 124 264 124 q 492 174 436 124 l 492 640 q 397 650 451 650 m 590 51 q 531 71 557 51 q 496 124 506 90 q 317 51 424 51 q 136 135 211 51 q 61 376 61 218 q 167 625 61 533 q 429 717 274 717 q 492 713 461 717 l 492 971 q 453 972 478 972 q 394 971 428 972 q 400 1010 394 994 q 592 1061 496 1047 l 592 199 q 601 140 592 157 q 631 124 611 124 q 686 131 651 124 l 696 114 q 590 51 646 51 z "},"e":{"ha":654,"x_min":58,"x_max":599,"o":"m 493 485 q 450 618 492 575 q 349 661 408 661 q 239 614 290 661 q 172 472 188 567 l 333 483 l 493 485 m 165 394 q 219 195 165 265 q 375 125 272 125 q 578 192 478 125 l 590 167 q 342 51 489 51 q 153 128 238 51 q 84 230 110 167 q 58 372 58 293 q 153 626 58 535 q 356 717 247 717 q 531 648 464 717 q 599 451 599 579 q 583 426 590 436 l 167 426 q 165 394 165 417 z "},"f":{"ha":419,"x_min":36,"x_max":494,"o":"m 133 785 q 197 987 133 919 q 347 1054 261 1054 q 494 992 432 1054 q 478 867 493 932 q 438 871 467 867 q 438 885 438 878 q 349 996 438 996 q 233 836 233 996 l 233 692 q 429 701 315 692 q 419 636 429 661 l 233 636 l 233 139 q 378 110 299 114 q 375 68 381 88 l 38 68 q 36 86 36 75 q 42 110 36 97 q 113 131 93 117 q 133 179 133 144 l 133 635 q 43 640 94 640 q 46 669 43 656 q 133 692 94 686 l 133 785 z "},"g":{"ha":699,"x_min":46,"x_max":692,"o":"m 228 363 q 251 338 228 363 q 339 314 274 314 q 442 358 404 314 q 481 475 481 403 q 435 625 481 575 q 326 675 390 675 q 222 629 261 675 q 183 506 183 583 q 228 363 183 411 m 178 65 q 113 -47 113 18 q 169 -149 113 -112 q 333 -185 225 -185 q 519 -130 442 -185 q 596 -12 597 -75 q 513 63 596 63 l 229 61 q 178 65 200 61 m 519 146 q 640 111 597 146 q 682 17 682 76 q 567 -174 681 -86 q 303 -261 453 -261 q 116 -210 186 -261 q 46 -69 46 -160 q 139 78 46 22 q 74 188 74 110 q 179 313 74 265 q 76 494 76 374 q 150 656 76 596 q 326 717 224 717 q 496 669 429 717 q 690 728 578 728 q 692 708 692 722 q 685 654 692 693 l 533 638 q 586 487 586 581 q 514 333 586 393 q 332 272 442 272 q 219 292 274 272 q 151 211 151 260 q 174 163 151 182 q 244 143 197 143 l 514 146 q 519 146 517 146 z "},"h":{"ha":771,"x_min":40,"x_max":736,"o":"m 639 510 l 639 131 q 736 110 683 114 q 733 68 736 90 l 450 68 q 451 110 449 85 q 520 129 501 115 q 539 178 539 143 l 539 501 q 507 606 539 569 q 418 642 475 642 q 238 497 297 642 l 238 131 q 332 110 276 114 q 328 68 332 85 l 43 68 q 46 110 40 89 q 117 129 97 115 q 138 178 138 143 l 138 967 q 75 968 97 968 q 40 968 53 968 q 46 1006 40 983 q 238 1056 146 1043 l 238 574 q 453 717 310 717 q 587 664 535 717 q 639 510 639 611 z "},"i":{"ha":385,"x_min":40,"x_max":332,"o":"m 238 856 q 227 844 238 856 q 186 833 217 833 q 133 856 156 833 q 111 908 111 878 q 133 961 111 939 q 186 983 156 983 q 238 962 217 983 q 260 909 260 940 q 238 856 260 878 m 138 178 l 138 618 q 91 619 115 619 q 40 618 67 619 q 46 657 40 632 q 238 708 143 693 l 238 131 q 332 110 276 114 q 328 68 332 85 l 43 68 q 46 110 40 89 q 117 129 97 115 q 138 178 138 143 z "},"j":{"ha":358,"x_min":-24,"x_max":260,"o":"m 138 71 l 138 618 q 91 619 115 619 q 40 618 67 619 q 46 657 40 632 q 238 708 143 693 l 238 81 q -10 -242 238 -165 l -24 -211 q 105 -95 72 -160 q 138 71 138 -31 m 133 961 q 144 972 133 961 q 186 983 156 983 q 238 962 217 983 q 260 909 260 940 q 238 856 260 878 q 186 833 217 833 q 133 856 156 833 q 111 908 111 878 q 133 961 111 939 z "},"k":{"ha":739,"x_min":40,"x_max":729,"o":"m 138 178 l 138 971 q 99 972 122 972 q 40 971 75 972 q 46 1010 40 988 q 238 1061 138 1047 l 238 372 l 510 635 q 419 667 463 644 q 424 700 419 688 l 700 700 q 696 657 700 675 q 557 604 611 657 l 385 442 q 436 396 410 431 l 589 192 q 652 129 624 146 q 728 110 681 113 q 722 68 729 93 l 558 68 l 343 357 q 321 379 331 374 l 238 300 l 238 131 q 332 110 276 114 q 328 68 332 85 l 43 68 q 46 110 40 89 q 117 129 97 115 q 138 178 138 143 z "},"l":{"ha":383,"x_min":40,"x_max":332,"o":"m 138 178 l 138 971 q 99 972 122 972 q 40 971 75 972 q 46 1010 40 988 q 238 1061 138 1047 l 238 131 q 332 110 276 114 q 328 68 332 85 l 43 68 q 46 110 40 89 q 117 129 97 115 q 138 178 138 143 z "},"m":{"ha":1172,"x_min":40,"x_max":1139,"o":"m 1042 510 l 1042 131 q 1139 110 1085 114 q 1135 68 1139 85 l 851 68 q 854 110 849 89 q 922 129 904 115 q 940 178 940 143 l 940 501 q 908 606 940 569 q 821 642 876 642 q 639 497 699 642 l 639 131 q 733 110 678 114 q 729 68 733 85 l 450 68 q 451 110 449 85 q 520 129 501 115 q 539 178 539 143 l 539 501 q 507 606 539 569 q 418 642 475 642 q 238 497 297 642 l 238 131 q 332 110 276 114 q 328 68 332 85 l 43 68 q 46 110 40 89 q 117 129 97 115 q 138 178 138 143 l 138 619 q 75 621 97 621 q 40 621 53 621 q 46 657 40 638 q 226 708 138 693 q 238 572 235 656 q 453 717 308 717 q 572 678 522 717 q 635 564 621 639 q 854 717 706 717 q 989 663 936 717 q 1042 510 1042 610 z "},"n":{"ha":768,"x_min":40,"x_max":736,"o":"m 639 510 l 639 131 q 736 110 683 114 q 733 68 736 90 l 450 68 q 451 110 449 85 q 520 129 501 115 q 539 178 539 143 l 539 501 q 507 606 539 569 q 418 642 475 642 q 238 497 297 642 l 238 131 q 332 110 276 114 q 328 68 332 85 l 43 68 q 46 110 40 89 q 117 129 97 115 q 138 178 138 143 l 138 619 q 75 621 97 621 q 40 621 53 621 q 46 657 40 638 q 226 708 138 693 q 238 572 235 656 q 453 717 308 717 q 587 664 535 717 q 639 510 639 611 z "},"o":{"ha":707,"x_min":58,"x_max":649,"o":"m 216 184 q 241 147 216 184 q 360 110 267 110 q 497 180 453 110 q 540 368 540 250 q 490 587 540 510 q 348 664 440 664 q 210 591 256 664 q 165 397 165 518 q 216 184 165 258 m 356 717 q 422 717 356 717 q 569 626 489 717 q 649 385 649 535 q 567 143 649 235 q 349 51 485 51 q 136 142 214 51 q 58 383 58 233 q 140 625 58 533 q 356 717 222 717 z "},"p":{"ha":736,"x_min":38,"x_max":675,"o":"m 350 114 q 501 187 439 114 q 564 394 564 260 q 516 589 564 528 q 407 650 468 650 q 301 613 346 650 q 238 503 257 575 l 238 136 q 350 114 290 114 m 135 -133 l 135 619 q 72 621 94 621 q 39 621 50 621 q 46 657 42 647 q 222 708 136 693 q 236 590 233 658 q 417 717 286 717 q 598 633 521 717 q 675 393 675 550 q 574 144 675 236 q 336 51 474 51 q 238 68 286 51 l 238 -171 q 368 -203 293 -196 q 365 -244 368 -233 l 40 -244 q 44 -203 38 -221 q 115 -182 96 -196 q 135 -133 135 -168 z "},"q":{"ha":711,"x_min":61,"x_max":689,"o":"m 396 650 q 227 587 289 650 q 165 388 165 524 q 215 188 165 253 q 350 124 264 124 q 492 174 436 124 l 492 631 q 396 650 443 650 m 592 725 l 592 -181 q 689 -203 635 -199 q 689 -216 689 -207 q 685 -244 689 -225 l 360 -244 q 361 -203 357 -221 q 464 -179 436 -197 q 492 -124 492 -161 l 492 119 q 315 51 418 51 q 136 135 211 51 q 61 376 61 218 q 166 625 61 533 q 424 717 271 717 q 540 690 485 717 q 578 725 563 714 l 592 725 z "},"r":{"ha":490,"x_min":40,"x_max":488,"o":"m 238 535 l 238 525 q 338 664 271 611 q 481 717 404 717 q 488 676 488 700 q 478 618 488 651 q 289 542 363 618 q 238 428 247 496 l 238 139 q 383 110 300 114 q 378 68 383 83 l 43 68 q 44 110 42 85 q 117 131 97 117 q 138 179 138 144 l 138 619 q 75 621 97 621 q 40 621 53 621 q 46 657 40 638 q 226 708 138 693 q 238 535 238 638 z "},"s":{"ha":579,"x_min":76,"x_max":521,"o":"m 273 104 q 307 104 273 104 q 382 134 342 104 q 422 207 422 164 q 389 279 422 250 q 307 331 356 308 q 210 377 258 353 q 129 442 163 401 q 96 539 96 483 q 158 672 96 626 q 309 717 221 717 q 478 689 397 717 q 479 625 479 665 q 471 532 479 585 q 439 536 460 532 q 440 563 440 550 q 314 667 440 667 q 223 637 258 667 q 188 563 188 607 q 222 489 188 519 q 305 438 256 458 q 403 393 354 417 q 487 330 453 369 q 521 238 521 290 q 449 101 521 150 q 274 51 378 51 q 79 81 169 51 q 76 155 76 113 q 85 249 76 197 q 117 246 97 249 q 117 229 117 238 q 160 134 117 164 q 273 104 204 104 z "},"t":{"ha":492,"x_min":39,"x_max":458,"o":"m 283 51 q 173 92 217 51 q 129 215 129 133 l 129 635 q 39 640 90 640 q 39 652 39 644 q 40 669 39 660 q 129 692 89 686 l 208 864 l 231 857 l 231 692 q 425 701 336 694 q 414 636 425 664 l 231 636 l 231 229 q 311 131 231 131 q 442 182 379 131 l 458 164 q 283 51 385 51 z "},"u":{"ha":753,"x_min":25,"x_max":700,"o":"m 608 588 l 608 150 q 699 147 667 147 q 700 124 700 132 q 700 111 700 115 q 521 61 621 72 q 508 203 511 113 q 294 51 424 51 q 161 107 215 51 q 107 265 107 163 l 107 621 q 69 622 89 622 q 25 621 49 622 q 31 658 25 636 q 207 710 132 701 l 207 274 q 240 167 207 206 q 325 128 272 128 q 426 165 378 128 q 508 269 474 201 l 508 576 q 469 667 508 642 q 476 688 472 682 q 599 710 528 710 q 614 710 606 710 q 608 588 608 660 z "},"v":{"ha":693,"x_min":-8,"x_max":710,"o":"m -6 658 q -8 685 -8 675 q -8 700 -8 694 l 279 700 q 283 658 283 688 q 186 636 218 653 l 365 133 q 385 201 371 161 l 524 572 q 535 608 535 593 q 528 631 535 622 q 440 658 511 653 q 435 700 432 676 l 708 700 q 701 658 710 686 q 615 638 660 654 l 388 60 l 308 60 l 97 582 q 61 638 81 622 q -6 658 42 653 z "},"w":{"ha":1043,"x_min":26,"x_max":1019,"o":"m 1018 700 q 1019 682 1019 693 q 1014 657 1019 671 q 953 640 974 650 l 724 60 l 683 60 l 519 514 l 336 60 l 296 60 l 90 642 q 29 657 61 656 q 26 686 26 676 q 28 700 26 696 l 292 700 q 296 657 296 679 q 226 638 240 651 q 211 611 211 624 q 215 588 211 599 l 325 267 q 342 204 336 236 l 344 204 l 524 672 l 564 672 l 707 267 q 725 204 719 235 l 728 204 l 864 574 q 872 613 872 597 q 859 641 872 629 q 782 657 846 653 q 782 700 779 685 l 1018 700 z "},"x":{"ha":707,"x_min":10,"x_max":696,"o":"m 692 110 q 694 83 694 93 q 694 68 694 72 l 421 68 q 417 110 417 88 q 499 125 472 114 l 335 338 l 165 124 q 243 110 193 114 q 243 68 246 88 l 11 68 q 17 110 14 96 q 83 128 57 113 q 139 178 108 143 l 304 378 l 151 576 q 15 658 97 647 q 10 683 10 672 q 11 700 10 693 l 293 700 q 297 658 297 688 q 218 644 238 653 l 376 438 l 542 643 q 463 658 514 654 q 464 700 460 683 l 693 700 q 688 658 696 676 q 622 640 647 656 q 568 589 597 624 l 407 396 l 560 196 q 622 131 596 149 q 692 110 649 114 z "},"y":{"ha":701,"x_min":3,"x_max":701,"o":"m 156 -244 l 138 -244 q 124 -185 124 -210 q 126 -147 124 -161 l 153 -147 q 223 -129 197 -147 q 274 -60 249 -111 l 324 47 l 107 582 q 72 638 92 622 q 6 658 53 653 q 3 685 3 675 q 3 700 3 694 l 289 700 q 294 658 294 683 q 197 639 231 653 l 374 156 q 389 206 378 178 l 533 572 q 542 608 542 593 q 533 633 542 624 q 449 658 515 653 q 446 700 443 686 l 700 700 q 693 658 701 681 q 631 644 665 654 l 329 -75 q 253 -205 292 -165 q 156 -244 214 -244 z "},"z":{"ha":625,"x_min":60,"x_max":564,"o":"m 393 119 q 491 149 461 119 q 533 254 521 178 q 563 249 550 254 q 563 201 563 242 q 549 68 563 161 l 63 68 q 60 92 60 78 q 65 124 60 106 l 446 650 l 250 650 q 152 619 182 650 q 110 513 122 589 q 81 521 94 513 q 94 700 81 613 l 560 700 q 564 669 564 683 q 558 642 564 654 l 186 119 l 393 119 z "},"{":{"ha":743,"x_min":131,"x_max":586,"o":"m 322 731 q 303 627 322 660 q 228 578 285 594 q 303 527 285 560 q 322 425 322 494 q 317 344 322 408 q 311 234 311 281 q 315 159 311 188 q 334 98 318 131 q 378 47 350 65 q 586 4 442 7 l 586 -61 q 569 -61 578 -61 q 289 11 358 -61 q 236 101 250 51 q 222 210 222 151 q 228 336 222 268 q 235 443 235 404 q 215 511 235 482 q 131 546 194 540 l 131 610 q 215 643 194 614 q 235 711 235 672 q 228 818 235 750 q 222 944 222 886 q 236 1053 222 1003 q 400 1199 268 1168 q 569 1214 467 1214 q 586 1214 578 1214 l 586 1151 q 378 1107 444 1149 q 334 1057 350 1089 q 315 997 318 1025 q 311 922 311 968 q 317 811 311 875 q 322 731 322 747 z "},"|":{"ha":449,"x_min":183,"x_max":268,"o":"m 183 1031 l 268 1031 l 268 32 l 183 32 l 183 1031 z "},"}":{"ha":744,"x_min":158,"x_max":615,"o":"m 424 425 q 441 528 424 496 q 515 578 458 560 q 441 626 458 593 q 424 731 424 660 q 429 811 424 747 q 435 927 435 875 q 427 1013 435 979 q 393 1082 419 1047 q 158 1151 343 1149 l 158 1214 q 175 1214 167 1214 q 456 1142 388 1214 q 507 1053 493 1103 q 521 945 521 1004 q 515 818 521 886 q 508 711 508 750 q 529 643 508 672 q 615 610 550 614 l 615 546 q 529 511 550 540 q 508 443 508 482 q 515 336 508 404 q 521 210 521 268 q 507 101 521 151 q 344 -44 475 -14 q 175 -61 278 -61 q 158 -61 167 -61 l 158 4 q 393 72 343 7 q 427 142 419 107 q 435 228 435 176 q 429 344 435 281 q 424 425 424 408 z "},"~":{"ha":690,"x_min":67,"x_max":622,"o":"m 232 526 q 364 473 279 526 q 489 419 449 419 q 583 532 563 419 l 622 532 q 573 394 615 447 q 469 340 531 340 q 322 394 408 340 q 200 447 236 447 q 106 339 126 447 l 67 339 q 117 475 74 424 q 232 526 160 526 z "},"¡":{"ha":647,"x_min":226,"x_max":368,"o":"m 226 813 q 226 828 226 813 q 247 863 226 843 q 297 883 267 883 q 347 863 326 883 q 368 813 368 843 q 347 763 368 783 q 297 742 326 742 q 247 763 267 742 q 226 813 226 783 m 342 -1 l 253 -33 l 244 -33 l 267 629 l 322 657 l 329 657 l 342 -1 z "},"¢":{"ha":611,"x_min":81,"x_max":551,"o":"m 381 114 l 326 114 l 326 200 q 151 274 221 208 q 81 456 81 339 q 150 647 81 572 q 326 725 219 721 l 326 810 l 381 810 l 381 722 q 532 664 472 711 l 490 600 q 354 664 436 664 q 220 612 272 664 q 168 465 168 560 q 229 316 168 371 q 377 261 290 261 q 522 317 464 261 l 551 293 q 488 235 535 264 q 381 200 442 206 l 381 114 z "},"£":{"ha":860,"x_min":88,"x_max":756,"o":"m 751 246 q 756 212 756 235 q 753 174 756 189 q 744 138 751 158 q 724 103 736 118 q 633 68 693 68 q 487 85 572 68 q 372 101 401 101 q 318 99 342 101 q 274 91 294 96 q 240 83 254 86 q 212 74 225 79 q 197 69 199 69 l 158 100 q 231 206 203 136 q 258 338 258 275 q 246 469 258 400 l 88 469 l 88 478 l 110 522 l 235 522 q 217 661 217 607 q 285 850 218 779 q 463 921 351 921 q 583 902 539 921 q 647 872 628 883 q 703 838 693 847 l 664 771 q 583 833 632 808 q 486 858 535 858 q 351 813 399 858 q 304 694 304 767 q 326 522 304 622 l 576 522 l 576 514 l 549 469 l 338 469 q 346 389 346 414 q 274 151 346 239 q 393 176 336 176 q 531 157 450 176 q 646 138 611 138 q 722 244 722 138 l 731 244 q 751 246 736 244 z "},"¤":{"ha":631,"x_min":69,"x_max":561,"o":"m 222 384 q 241 364 222 384 q 314 343 260 343 q 407 384 368 343 q 446 507 446 425 q 408 629 446 589 q 315 669 369 669 q 222 629 260 669 q 183 507 183 589 q 222 384 183 425 m 488 628 q 521 506 521 576 q 488 383 521 436 l 560 311 q 510 261 544 281 l 439 332 q 314 292 383 292 q 190 331 244 292 l 119 263 q 71 311 88 279 l 142 382 q 108 506 108 435 q 143 629 108 578 l 69 701 q 119 751 86 735 l 190 681 q 315 721 243 721 q 439 679 386 721 l 511 751 q 561 701 543 733 l 488 628 z "},"¥":{"ha":833,"x_min":110,"x_max":726,"o":"m 678 522 l 678 514 l 650 471 l 465 471 l 465 389 l 678 389 l 678 381 l 650 338 l 465 338 l 465 68 l 367 68 l 367 338 l 161 338 l 161 346 l 183 389 l 367 389 l 367 471 l 161 471 l 161 481 l 183 522 l 347 522 l 110 897 l 193 918 l 414 546 q 625 913 622 910 l 726 913 l 486 522 l 678 522 z "},"¦":{"ha":451,"x_min":183,"x_max":268,"o":"m 183 429 l 268 429 l 268 32 l 183 32 l 183 429 m 268 633 l 183 633 l 183 1031 l 268 1031 l 268 633 z "},"§":{"ha":1278,"x_min":108,"x_max":626,"o":"m 213 365 q 233 301 213 322 q 265 270 253 281 q 301 247 276 260 q 342 226 326 233 q 432 186 392 203 q 526 314 526 222 q 514 376 526 349 q 467 426 501 403 q 414 459 432 450 q 363 483 396 468 q 324 500 329 497 q 213 365 213 460 m 626 -35 q 547 -194 626 -135 q 347 -254 467 -254 q 108 -201 226 -254 q 108 -144 108 -187 q 119 -11 108 -101 q 156 -15 142 -11 q 206 -162 154 -118 q 344 -206 258 -206 q 481 -165 431 -206 q 532 -63 532 -124 q 490 37 532 -3 q 387 101 447 76 q 266 154 326 126 q 163 231 206 182 q 121 344 121 279 q 158 458 121 410 q 257 531 196 507 q 155 610 192 565 q 118 724 118 654 q 189 874 118 818 q 364 931 260 931 q 575 892 468 931 q 560 740 575 832 q 529 743 538 740 q 360 881 508 881 q 249 842 290 881 q 208 747 208 804 q 251 653 208 689 q 354 592 293 617 q 476 539 415 567 q 580 461 538 511 q 622 340 622 411 q 497 154 622 211 q 626 -35 626 82 z "},"¨":{"ha":329,"x_min":14,"x_max":315,"o":"m 256 907 q 268 907 256 907 q 298 890 281 907 q 315 847 315 872 q 298 803 315 821 q 256 786 281 786 q 215 803 232 786 q 199 847 199 821 q 215 890 199 872 q 256 907 232 907 m 72 907 q 85 907 72 907 q 115 890 97 907 q 132 847 132 872 q 115 803 132 821 q 72 786 97 786 q 31 803 47 786 q 14 847 14 821 q 31 890 14 872 q 72 907 47 907 z "},"©":{"ha":1071,"x_min":72,"x_max":999,"o":"m 728 304 q 539 221 647 221 q 358 299 431 221 q 286 509 286 378 q 365 724 286 640 q 565 808 443 808 q 711 776 644 808 q 693 657 711 721 q 663 656 681 653 q 636 728 663 703 q 564 753 610 753 q 425 688 475 753 q 375 513 375 622 q 424 342 375 403 q 552 282 474 282 q 701 329 631 282 l 728 304 m 867 843 q 933 781 867 843 q 999 508 999 718 q 867 173 999 299 q 535 47 736 47 q 203 173 335 47 q 72 508 72 299 q 203 843 72 718 q 535 968 335 968 q 867 843 736 968 m 249 810 q 191 755 249 810 q 133 508 133 700 q 249 206 133 317 q 536 96 364 96 q 823 206 708 96 q 938 508 938 317 q 823 810 938 700 q 536 919 708 919 q 249 810 364 919 z "},"ª":{"ha":463,"x_min":43,"x_max":438,"o":"m 278 678 q 118 578 118 678 q 136 531 118 549 q 190 513 154 513 q 294 554 251 513 l 294 678 q 278 678 286 678 m 364 460 q 296 518 304 460 q 165 460 238 460 q 78 490 114 460 q 43 574 43 521 q 118 686 43 651 q 250 713 176 713 q 294 710 272 713 l 294 785 q 275 849 294 828 q 198 869 256 869 q 85 839 140 869 l 74 860 q 232 926 139 926 q 330 891 296 926 q 364 793 364 856 l 364 564 q 396 510 364 510 q 432 517 408 510 l 438 504 q 364 460 404 460 z "},"«":{"ha":839,"x_min":169,"x_max":663,"o":"m 169 521 l 392 774 l 439 750 l 265 521 l 439 292 l 392 267 l 169 521 m 393 521 l 615 774 l 663 750 l 489 521 l 663 292 l 615 267 l 393 521 z "},"¬":{"ha":824,"x_min":97,"x_max":710,"o":"m 710 653 l 710 407 q 678 404 694 404 q 647 407 663 404 l 647 571 l 103 571 q 97 610 97 589 q 103 653 97 631 l 710 653 z "},"®":{"ha":1058,"x_min":83,"x_max":975,"o":"m 444 524 l 515 524 q 613 553 581 524 q 646 638 646 583 q 515 753 646 753 l 444 753 l 444 524 m 771 279 q 768 247 771 256 l 667 247 l 542 446 q 490 481 524 481 l 444 481 l 444 297 q 531 279 485 282 q 529 247 533 265 l 324 247 q 328 279 319 269 q 372 292 360 283 q 383 322 383 301 l 383 753 q 321 768 356 765 q 325 796 321 786 l 529 796 q 665 749 614 796 q 715 642 715 703 q 678 540 715 582 q 575 485 640 497 q 608 446 585 478 l 686 329 q 771 279 719 279 m 253 206 q 309 151 253 206 q 529 96 364 96 q 805 206 694 96 q 915 508 915 317 q 805 810 915 700 q 529 919 694 919 q 253 810 364 919 q 143 508 143 700 q 253 206 143 317 m 209 843 q 272 906 209 843 q 529 968 335 968 q 849 843 724 968 q 975 508 975 718 q 849 173 975 299 q 529 47 724 47 q 209 173 335 47 q 83 508 83 299 q 209 843 83 718 z "},"¯":{"ha":343,"x_min":14,"x_max":329,"o":"m 14 776 l 14 825 l 329 825 l 329 776 l 14 776 z "},"°":{"ha":428,"x_min":42,"x_max":386,"o":"m 386 792 q 386 751 386 792 q 337 664 386 710 q 213 618 288 618 q 90 664 139 618 q 42 792 42 710 q 90 920 42 874 q 213 967 139 967 q 337 920 288 967 q 386 792 386 874 m 278 890 q 266 905 278 890 q 213 921 253 921 q 148 890 172 921 q 124 793 124 858 q 149 697 124 728 q 213 665 174 665 q 278 697 253 665 q 304 793 304 728 q 278 890 304 858 z "},"±":{"ha":828,"x_min":83,"x_max":753,"o":"m 83 349 l 713 349 l 753 268 l 753 263 l 122 263 l 83 343 l 83 349 m 753 550 l 461 550 l 461 389 l 456 389 l 374 454 l 374 550 l 122 550 l 83 631 l 83 636 l 374 636 l 374 797 l 379 797 l 461 733 l 461 636 l 713 636 l 753 556 l 753 550 z "},"²":{"ha":339,"x_min":32,"x_max":299,"o":"m 204 535 q 254 550 239 535 q 276 606 269 565 q 299 603 292 606 q 289 486 299 539 l 39 486 q 32 529 32 507 q 191 724 154 668 q 228 822 228 779 q 161 896 228 896 q 76 826 94 896 q 51 828 57 826 q 51 859 51 838 q 58 907 51 881 q 168 942 111 942 q 258 909 225 942 q 292 825 292 876 q 253 720 292 774 q 89 535 215 667 l 204 535 z "},"³":{"ha":317,"x_min":28,"x_max":288,"o":"m 217 831 q 154 904 217 904 q 97 890 118 904 q 68 833 76 875 q 44 836 50 833 q 49 915 44 881 q 160 947 106 947 q 245 919 214 947 q 276 847 276 890 q 251 772 276 804 q 185 725 225 739 q 288 603 288 700 q 247 518 288 551 q 140 485 206 485 q 28 526 75 485 q 44 565 40 563 q 133 531 86 531 q 206 551 181 531 q 232 611 232 571 q 110 699 232 690 l 110 740 q 188 767 160 743 q 217 831 217 790 z "},"´":{"ha":268,"x_min":14,"x_max":254,"o":"m 14 774 l 165 1004 q 254 960 217 997 l 254 944 l 43 756 l 14 774 z "},"µ":{"ha":764,"x_min":21,"x_max":711,"o":"m 619 597 l 619 150 q 710 147 678 147 q 711 124 711 132 q 711 111 711 115 q 532 61 617 76 q 519 203 522 113 q 306 51 435 51 q 218 71 257 51 l 218 -126 q 163 -133 188 -133 q 118 -126 138 -133 l 118 629 q 56 631 78 631 q 21 631 33 631 q 26 667 21 644 q 218 718 122 704 l 218 181 q 338 128 260 128 q 438 165 389 128 q 519 272 486 203 l 519 585 q 481 675 519 650 q 488 697 483 688 q 604 718 540 718 q 625 718 614 718 q 619 597 619 668 z "},"¶":{"ha":710,"x_min":49,"x_max":592,"o":"m 294 917 l 592 917 l 592 68 l 521 68 l 521 849 l 419 849 l 419 68 l 347 68 l 347 374 l 294 374 q 115 450 181 374 q 49 645 49 526 q 114 840 49 764 q 294 917 179 917 z "},"·":{"ha":389,"x_min":128,"x_max":263,"o":"m 242 491 q 232 481 242 491 q 194 471 222 471 q 147 491 167 471 q 128 540 128 511 q 147 588 128 568 q 194 607 167 607 q 242 588 222 607 q 263 540 263 568 q 242 491 263 511 z "},"¸":{"ha":357,"x_min":14,"x_max":343,"o":"m 228 -29 q 314 -53 285 -29 q 343 -119 343 -76 q 297 -197 343 -162 q 173 -232 251 -232 q 14 -190 94 -232 l 35 -164 q 163 -194 97 -194 q 264 -122 264 -194 q 183 -67 264 -67 q 131 -72 169 -67 l 163 85 l 242 85 l 218 -29 l 228 -29 z "},"¹":{"ha":243,"x_min":31,"x_max":217,"o":"m 31 486 q 33 521 31 514 q 83 531 69 524 q 97 553 97 538 l 97 869 l 33 861 q 33 889 31 876 q 136 943 126 939 l 154 938 l 154 535 q 217 521 182 522 q 214 486 217 492 l 31 486 z "},"º":{"ha":511,"x_min":42,"x_max":469,"o":"m 155 551 q 173 526 155 551 q 260 500 192 500 q 361 549 328 500 q 394 679 394 599 q 356 833 394 779 q 250 888 318 888 q 247 888 249 888 q 149 836 182 888 q 115 699 115 785 q 115 692 115 696 q 155 551 118 603 m 257 926 q 304 926 257 926 q 410 862 351 926 q 469 693 469 797 q 408 524 469 589 q 252 460 347 460 q 99 524 157 460 q 42 692 42 588 q 102 861 42 796 q 257 926 163 926 z "},"»":{"ha":846,"x_min":178,"x_max":675,"o":"m 178 750 l 224 774 l 447 521 l 224 267 l 178 292 l 351 521 l 178 750 m 407 750 l 453 774 l 675 521 l 453 267 l 407 292 l 579 521 l 407 750 z "},"¼":{"ha":974,"x_min":88,"x_max":896,"o":"m 89 379 q 88 397 88 386 q 93 417 88 407 q 154 428 138 421 q 171 457 171 436 l 171 863 l 93 853 q 93 879 90 865 q 221 947 181 928 l 238 940 l 238 435 q 317 417 272 418 q 313 379 317 394 l 89 379 m 675 974 l 726 974 l 276 15 l 225 15 l 675 974 m 751 260 l 751 507 l 576 260 l 751 260 m 811 211 l 811 118 q 871 104 835 107 q 868 68 871 82 l 692 68 q 694 104 689 89 q 740 116 728 108 q 751 146 751 124 l 751 211 l 536 211 q 517 254 526 222 l 776 625 l 811 625 l 811 260 l 892 260 q 896 232 896 244 q 894 211 896 219 l 811 211 z "},"½":{"ha":1057,"x_min":88,"x_max":943,"o":"m 89 379 q 88 397 88 386 q 93 417 88 407 q 154 428 138 421 q 171 457 171 436 l 171 863 l 93 853 q 93 879 90 865 q 221 947 181 928 l 238 940 l 238 435 q 317 417 272 418 q 313 379 317 394 l 89 379 m 686 974 l 738 974 l 276 15 l 225 15 l 686 974 m 828 124 q 891 143 872 124 q 918 213 910 163 q 943 208 933 213 q 931 67 943 124 l 622 67 q 615 115 615 94 q 816 360 769 290 q 863 479 863 431 q 838 554 863 528 q 772 581 813 581 q 665 494 689 581 q 640 496 646 494 q 640 535 640 508 q 647 589 640 563 q 786 633 719 633 q 894 592 853 633 q 936 487 936 551 q 890 358 936 422 q 681 124 843 294 l 828 124 z "},"¾":{"ha":1032,"x_min":93,"x_max":954,"o":"m 328 814 q 245 907 328 907 q 140 813 163 907 q 115 815 121 813 q 119 914 115 868 q 256 954 189 954 q 360 919 322 954 q 397 829 397 883 q 364 735 397 775 q 279 678 331 694 q 415 528 415 647 q 365 422 415 464 q 236 379 315 379 q 93 432 157 379 q 114 471 106 467 q 226 428 169 428 q 315 455 283 428 q 347 535 347 482 q 310 614 347 588 q 197 646 274 640 l 197 692 q 292 728 256 693 q 328 814 328 763 m 740 974 l 793 974 l 342 15 l 292 15 l 740 974 m 808 260 l 808 504 l 635 260 l 808 260 m 869 211 l 869 118 q 929 104 894 107 q 926 68 929 82 l 750 68 q 751 104 747 83 q 797 116 785 108 q 808 146 808 124 l 808 211 l 594 211 q 575 254 585 222 l 835 625 l 869 625 l 869 260 l 950 260 q 954 232 954 244 q 953 211 954 219 l 869 211 z "},"¿":{"ha":818,"x_min":151,"x_max":650,"o":"m 376 858 q 386 867 376 858 q 424 876 396 876 q 469 858 451 876 q 488 811 488 839 q 469 764 488 783 q 424 744 451 744 q 376 764 396 744 q 357 811 357 783 q 376 858 357 839 m 229 175 q 280 69 229 107 q 417 31 331 31 q 592 97 503 31 l 650 28 q 440 -49 557 -49 q 237 24 322 -49 q 151 199 151 96 q 388 438 151 356 l 388 608 l 401 608 l 460 581 l 460 379 q 292 292 332 328 q 238 226 247 251 q 229 175 229 200 z "},"À":{"ha":797,"x_min":-4,"x_max":801,"o":"m 439 1064 l 410 1046 l 197 1235 l 197 1250 q 286 1294 232 1285 l 439 1064 m 242 472 l 514 472 l 375 899 l 361 839 l 242 472 m 497 136 q 503 176 497 160 q 600 207 565 186 l 529 422 l 226 422 l 153 199 q 257 176 196 179 q 251 136 257 161 l -4 136 q 1 176 -4 154 q 71 202 47 183 q 106 253 94 221 l 353 990 q 443 1003 386 1003 l 688 254 q 726 197 700 214 q 801 176 753 179 q 794 136 799 149 l 497 136 z "},"Á":{"ha":797,"x_min":-4,"x_max":801,"o":"m 622 1229 l 411 1040 l 382 1058 l 533 1289 q 622 1244 585 1282 l 622 1229 m 242 472 l 514 472 l 375 899 l 361 839 l 242 472 m 497 136 q 503 176 497 160 q 600 207 565 186 l 529 422 l 226 422 l 153 199 q 257 176 196 179 q 251 136 257 161 l -4 136 q 1 176 -4 154 q 71 202 47 183 q 106 253 94 221 l 353 990 q 443 1003 386 1003 l 688 254 q 726 197 700 214 q 801 176 753 179 q 794 136 799 149 l 497 136 z "},"Â":{"ha":797,"x_min":-4,"x_max":801,"o":"m 397 1149 l 232 1046 l 206 1072 l 374 1232 l 422 1232 l 589 1072 l 565 1046 l 397 1149 m 242 472 l 514 472 l 375 899 l 361 839 l 242 472 m 497 136 q 503 176 497 160 q 600 207 565 186 l 529 422 l 226 422 l 153 199 q 257 176 196 179 q 251 136 257 161 l -4 136 q 1 176 -4 154 q 71 202 47 183 q 106 253 94 221 l 353 990 q 443 1003 386 1003 l 688 254 q 726 197 700 214 q 801 176 753 179 q 794 136 799 149 l 497 136 z "},"Ã":{"ha":797,"x_min":-4,"x_max":801,"o":"m 471 1081 q 390 1115 435 1081 q 325 1149 346 1149 q 263 1086 276 1149 l 224 1086 q 338 1225 244 1225 q 416 1191 371 1225 q 482 1157 461 1157 q 544 1221 531 1157 l 583 1221 q 471 1081 563 1081 m 242 472 l 514 472 l 375 899 l 361 839 l 242 472 m 497 136 q 503 176 497 160 q 600 207 565 186 l 529 422 l 226 422 l 153 199 q 257 176 196 179 q 251 136 257 161 l -4 136 q 1 176 -4 154 q 71 202 47 183 q 106 253 94 221 l 353 990 q 443 1003 386 1003 l 688 254 q 726 197 700 214 q 801 176 753 179 q 794 136 799 149 l 497 136 z "},"Ä":{"ha":797,"x_min":-4,"x_max":801,"o":"m 549 1133 q 549 1120 549 1133 q 531 1090 549 1107 q 490 1072 514 1072 q 449 1090 465 1072 q 432 1133 432 1107 q 449 1176 432 1158 q 490 1193 465 1193 q 531 1176 514 1193 q 549 1133 549 1158 m 348 1090 q 339 1081 348 1090 q 306 1072 331 1072 q 264 1090 281 1072 q 247 1133 247 1107 q 264 1176 247 1158 q 306 1193 281 1193 q 348 1176 331 1193 q 365 1133 365 1158 q 348 1090 365 1107 m 242 472 l 514 472 l 375 899 l 361 839 l 242 472 m 497 136 q 503 176 497 160 q 600 207 565 186 l 529 422 l 226 422 l 153 199 q 257 176 196 179 q 251 136 257 161 l -4 136 q 1 176 -4 154 q 71 202 47 183 q 106 253 94 221 l 353 990 q 443 1003 386 1003 l 688 254 q 726 197 700 214 q 801 176 753 179 q 794 136 799 149 l 497 136 z "},"Å":{"ha":797,"x_min":-4,"x_max":801,"o":"m 451 1139 q 451 1154 451 1139 q 436 1185 451 1169 q 398 1200 421 1200 q 360 1185 375 1200 q 344 1140 344 1169 q 360 1094 344 1110 q 397 1078 375 1078 q 435 1093 419 1078 q 451 1139 451 1108 m 515 1140 q 515 1119 515 1140 q 481 1070 515 1097 q 398 1043 447 1043 q 314 1070 349 1043 q 279 1140 279 1097 q 314 1208 279 1182 q 398 1235 349 1235 q 481 1209 447 1235 q 515 1140 515 1183 m 242 472 l 514 472 l 375 899 l 361 839 l 242 472 m 497 136 q 503 176 497 160 q 600 207 565 186 l 529 422 l 226 422 l 153 199 q 257 176 196 179 q 251 136 257 161 l -4 136 q 1 176 -4 154 q 71 202 47 183 q 106 253 94 221 l 353 990 q 443 1003 386 1003 l 688 254 q 726 197 700 214 q 801 176 753 179 q 794 136 799 149 l 497 136 z "},"Æ":{"ha":1135,"x_min":7,"x_max":1067,"o":"m 557 404 l 557 789 l 517 715 l 326 404 l 557 404 m 657 117 l 897 117 q 989 149 965 117 q 1021 260 1013 181 q 1063 257 1053 260 q 1067 148 1067 194 q 1065 68 1067 101 l 465 68 q 469 108 463 90 q 538 128 519 115 q 557 175 557 142 l 557 354 l 296 354 l 164 138 q 251 110 204 114 q 246 68 251 85 l 7 68 q 13 110 7 88 q 83 133 60 115 q 128 186 107 151 l 542 864 q 461 878 513 875 q 465 917 461 904 l 1044 917 q 1046 840 1046 888 q 1039 732 1046 792 q 1000 729 1031 729 q 969 839 993 807 q 879 871 946 871 l 657 871 l 657 525 l 853 535 l 893 535 l 893 468 l 853 468 l 657 474 l 657 117 z "},"Ç":{"ha":806,"x_min":76,"x_max":749,"o":"m 472 119 l 469 119 l 453 39 l 463 39 q 549 15 519 39 q 578 -51 578 -8 q 532 -129 578 -94 q 408 -164 486 -164 q 249 -122 331 -164 l 269 -96 q 397 -126 332 -126 q 499 -54 499 -126 q 418 1 499 1 q 365 -4 404 1 l 392 128 q 165 268 254 156 q 76 565 76 381 q 203 876 76 750 q 513 1003 329 1003 q 729 961 642 1003 q 707 786 726 872 q 676 788 681 786 q 629 899 675 858 q 511 939 583 939 q 277 836 365 939 q 189 561 189 733 q 277 291 189 389 q 492 193 365 193 q 725 261 619 193 l 749 236 q 472 119 635 119 z "},"È":{"ha":719,"x_min":46,"x_max":651,"o":"m 422 1064 l 393 1046 l 181 1235 l 181 1250 q 269 1294 215 1285 l 422 1064 m 242 185 l 482 185 q 574 217 550 185 q 606 328 597 249 q 647 325 638 328 q 651 216 651 263 q 650 136 651 169 l 50 136 q 54 176 47 158 q 123 197 104 183 q 142 243 142 210 l 142 925 q 46 946 106 943 q 50 985 46 972 l 629 985 q 631 908 631 956 q 624 800 631 860 q 585 797 615 797 q 554 907 578 875 q 464 939 531 939 l 242 939 l 242 593 l 469 603 l 511 603 l 511 536 l 469 536 l 242 542 l 242 185 z "},"É":{"ha":719,"x_min":46,"x_max":651,"o":"m 607 1228 l 396 1039 l 367 1057 l 518 1288 q 607 1243 569 1281 l 607 1228 m 242 185 l 482 185 q 574 217 550 185 q 606 328 597 249 q 647 325 638 328 q 651 216 651 263 q 650 136 651 169 l 50 136 q 54 176 47 158 q 123 197 104 183 q 142 243 142 210 l 142 925 q 46 946 106 943 q 50 985 46 972 l 629 985 q 631 908 631 956 q 624 800 631 860 q 585 797 615 797 q 554 907 578 875 q 464 939 531 939 l 242 939 l 242 593 l 469 603 l 511 603 l 511 536 l 469 536 l 242 542 l 242 185 z "},"Ê":{"ha":719,"x_min":46,"x_max":651,"o":"m 379 1149 l 214 1046 l 188 1072 l 356 1232 l 404 1232 l 571 1072 l 547 1046 l 379 1149 m 242 185 l 482 185 q 574 217 550 185 q 606 328 597 249 q 647 325 638 328 q 651 216 651 263 q 650 136 651 169 l 50 136 q 54 176 47 158 q 123 197 104 183 q 142 243 142 210 l 142 925 q 46 946 106 943 q 50 985 46 972 l 629 985 q 631 908 631 956 q 624 800 631 860 q 585 797 615 797 q 554 907 578 875 q 464 939 531 939 l 242 939 l 242 593 l 469 603 l 511 603 l 511 536 l 469 536 l 242 542 l 242 185 z "},"Ë":{"ha":719,"x_min":46,"x_max":651,"o":"m 524 1133 q 524 1120 524 1133 q 506 1090 524 1107 q 465 1072 489 1072 q 424 1090 440 1072 q 407 1133 407 1107 q 424 1176 407 1158 q 465 1193 440 1193 q 506 1176 489 1193 q 524 1133 524 1158 m 323 1090 q 314 1081 323 1090 q 281 1072 306 1072 q 239 1090 256 1072 q 222 1133 222 1107 q 239 1176 222 1158 q 281 1193 256 1193 q 323 1176 306 1193 q 340 1133 340 1158 q 323 1090 340 1107 m 242 185 l 482 185 q 574 217 550 185 q 606 328 597 249 q 647 325 638 328 q 651 216 651 263 q 650 136 651 169 l 50 136 q 54 176 47 158 q 123 197 104 183 q 142 243 142 210 l 142 925 q 46 946 106 943 q 50 985 46 972 l 629 985 q 631 908 631 956 q 624 800 631 860 q 585 797 615 797 q 554 907 578 875 q 464 939 531 939 l 242 939 l 242 593 l 469 603 l 511 603 l 511 536 l 469 536 l 242 542 l 242 185 z "},"Ì":{"ha":382,"x_min":-8,"x_max":335,"o":"m 233 1064 l 204 1046 l -8 1235 l -8 1250 q 81 1294 26 1285 l 233 1064 m 242 881 l 242 197 q 335 176 282 179 q 335 165 335 174 q 331 136 335 156 l 50 136 q 54 176 47 158 q 123 197 104 183 q 142 243 142 210 l 142 924 q 46 946 99 942 q 50 985 46 972 l 332 985 q 328 946 332 957 q 261 926 281 940 q 242 881 242 913 z "},"Í":{"ha":382,"x_min":46,"x_max":417,"o":"m 242 881 l 242 197 q 335 176 282 179 q 331 136 336 160 l 50 136 q 54 176 47 158 q 123 197 104 183 q 142 243 142 210 l 142 924 q 46 946 99 942 q 50 985 46 972 l 332 985 q 328 946 332 957 q 261 926 281 940 q 242 881 242 913 m 176 1058 l 328 1289 q 417 1244 379 1282 l 417 1229 l 206 1040 l 176 1058 z "},"Î":{"ha":382,"x_min":0,"x_max":383,"o":"m 242 881 l 242 197 q 335 176 282 179 q 331 136 336 160 l 50 136 q 54 176 47 158 q 123 197 104 183 q 142 243 142 210 l 142 924 q 46 946 99 942 q 50 985 46 972 l 332 985 q 328 946 332 957 q 261 926 281 940 q 242 881 242 913 m 217 1232 l 383 1072 l 360 1046 l 192 1149 l 26 1046 l 0 1072 l 168 1232 l 217 1232 z "},"Ï":{"ha":382,"x_min":40,"x_max":342,"o":"m 342 1133 q 342 1120 342 1133 q 324 1090 342 1107 q 283 1072 307 1072 q 242 1090 258 1072 q 225 1133 225 1107 q 242 1176 225 1158 q 283 1193 258 1193 q 324 1176 307 1193 q 342 1133 342 1158 m 141 1090 q 132 1081 141 1090 q 99 1072 124 1072 q 57 1090 74 1072 q 40 1133 40 1107 q 57 1176 40 1158 q 99 1193 74 1193 q 141 1176 124 1193 q 158 1133 158 1158 q 141 1090 158 1107 m 242 881 l 242 197 q 335 176 282 179 q 335 165 335 174 q 331 136 335 156 l 50 136 q 54 176 47 158 q 123 197 104 183 q 142 243 142 210 l 142 924 q 46 946 99 942 q 50 985 46 972 l 332 985 q 328 946 332 957 q 261 926 281 940 q 242 881 242 913 z "},"Ð":{"ha":819,"x_min":32,"x_max":788,"o":"m 239 185 l 353 185 q 592 286 510 185 q 675 561 675 388 q 592 837 675 735 q 350 939 508 939 l 239 939 l 239 522 l 415 522 q 418 496 418 508 q 415 469 418 483 l 239 469 l 239 185 m 358 985 q 669 874 551 985 q 788 562 788 763 q 672 249 788 361 q 364 136 556 136 l 49 136 q 53 176 46 158 q 121 197 101 183 q 140 243 140 210 l 140 469 l 35 469 q 32 496 32 483 q 35 522 32 508 l 140 522 l 140 926 q 44 946 96 943 q 49 985 44 972 l 358 985 z "},"Ñ":{"ha":918,"x_min":50,"x_max":881,"o":"m 551 1081 q 471 1115 515 1081 q 406 1149 426 1149 q 343 1086 357 1149 l 304 1086 q 418 1225 325 1225 q 497 1191 451 1225 q 563 1157 542 1157 q 625 1221 611 1157 l 664 1221 q 551 1081 643 1081 m 881 985 q 876 946 881 957 q 781 871 781 936 l 781 136 l 736 136 l 282 774 l 213 879 l 213 197 q 317 176 254 179 q 313 136 318 160 l 51 136 q 50 153 50 143 q 54 176 50 164 q 150 250 150 189 l 150 926 q 56 946 114 943 q 60 985 56 969 l 250 985 l 607 486 l 718 319 l 718 925 q 613 946 683 940 q 617 985 610 965 l 881 985 z "},"Ò":{"ha":915,"x_min":78,"x_max":840,"o":"m 347 1294 l 500 1064 l 471 1046 l 258 1235 l 258 1250 q 347 1294 293 1285 m 649 847 q 610 897 649 847 q 449 947 572 947 q 258 845 325 947 q 192 585 192 743 q 192 558 192 571 q 267 267 194 360 q 466 174 340 174 q 658 272 592 174 q 725 539 725 371 q 649 847 725 747 m 840 559 q 840 461 840 559 q 736 241 840 364 q 458 118 632 118 q 181 240 283 118 q 78 558 78 363 q 181 878 78 754 q 457 1003 283 1003 q 735 878 631 1003 q 840 559 840 754 z "},"Ó":{"ha":915,"x_min":78,"x_max":840,"o":"m 649 847 q 610 897 649 847 q 449 947 572 947 q 258 845 325 947 q 192 585 192 743 q 192 558 192 571 q 267 267 194 360 q 466 174 340 174 q 658 272 592 174 q 725 539 725 371 q 649 847 725 747 m 840 559 q 840 461 840 559 q 736 241 840 364 q 458 118 632 118 q 181 240 283 118 q 78 558 78 363 q 181 878 78 754 q 457 1003 283 1003 q 735 878 631 1003 q 840 559 840 754 m 442 1057 l 593 1288 q 682 1243 644 1281 l 682 1228 l 471 1039 l 442 1057 z "},"Ô":{"ha":915,"x_min":78,"x_max":840,"o":"m 649 847 q 610 897 649 847 q 449 947 572 947 q 258 845 325 947 q 192 585 192 743 q 192 558 192 571 q 267 267 194 360 q 466 174 340 174 q 658 272 592 174 q 725 539 725 371 q 649 847 725 747 m 840 559 q 840 461 840 559 q 736 241 840 364 q 458 118 632 118 q 181 240 283 118 q 78 558 78 363 q 181 878 78 754 q 457 1003 283 1003 q 735 878 631 1003 q 840 559 840 754 m 647 1072 l 624 1046 l 456 1149 l 290 1046 l 264 1072 l 432 1232 l 481 1232 l 647 1072 z "},"Õ":{"ha":915,"x_min":78,"x_max":840,"o":"m 399 1225 q 477 1191 432 1225 q 543 1157 522 1157 q 606 1221 592 1157 l 644 1221 q 532 1081 624 1081 q 451 1115 496 1081 q 386 1149 407 1149 q 324 1086 338 1149 l 285 1086 q 399 1225 306 1225 m 649 847 q 610 897 649 847 q 449 947 572 947 q 258 845 325 947 q 192 585 192 743 q 192 558 192 571 q 267 267 194 360 q 466 174 340 174 q 658 272 592 174 q 725 539 725 371 q 649 847 725 747 m 840 559 q 840 461 840 559 q 736 241 840 364 q 458 118 632 118 q 181 240 283 118 q 78 558 78 363 q 181 878 78 754 q 457 1003 283 1003 q 735 878 631 1003 q 840 559 840 754 z "},"Ö":{"ha":915,"x_min":78,"x_max":840,"o":"m 649 847 q 610 897 649 847 q 449 947 572 947 q 258 845 325 947 q 192 585 192 743 q 192 558 192 571 q 267 267 194 360 q 466 174 340 174 q 658 272 592 174 q 725 539 725 371 q 649 847 725 747 m 840 559 q 840 461 840 559 q 736 241 840 364 q 458 118 632 118 q 181 240 283 118 q 78 558 78 363 q 181 878 78 754 q 457 1003 283 1003 q 735 878 631 1003 q 840 559 840 754 m 541 1193 q 553 1193 541 1193 q 583 1176 565 1193 q 600 1133 600 1158 q 583 1090 600 1107 q 541 1072 565 1072 q 500 1090 517 1072 q 483 1133 483 1107 q 500 1176 483 1158 q 541 1193 517 1193 m 357 1193 q 369 1193 357 1193 q 399 1176 382 1193 q 417 1133 417 1158 q 399 1090 417 1107 q 357 1072 382 1072 q 315 1090 332 1072 q 299 1133 299 1107 q 315 1176 299 1158 q 357 1193 332 1193 z "},"×":{"ha":733,"x_min":119,"x_max":615,"o":"m 615 725 l 422 517 l 614 306 l 564 267 l 379 469 l 194 271 l 119 322 l 319 535 l 128 744 l 182 781 l 364 581 l 553 781 l 615 725 z "},"Ø":{"ha":915,"x_min":76,"x_max":856,"o":"m 274 206 q 476 108 349 108 q 669 213 603 108 q 726 447 726 303 q 725 492 726 469 q 678 711 719 621 l 274 206 m 647 765 q 442 876 572 876 q 247 768 313 876 q 190 533 190 674 q 192 490 190 513 q 242 258 197 350 l 647 765 m 746 797 q 840 485 840 675 q 736 173 840 296 q 458 50 632 50 q 217 133 313 50 l 150 50 l 76 50 l 175 174 q 78 490 78 294 q 181 810 78 686 q 457 935 283 935 q 707 840 606 935 l 781 933 l 856 933 l 746 797 z "},"Ù":{"ha":907,"x_min":51,"x_max":857,"o":"m 499 1064 l 469 1046 l 257 1235 l 257 1250 q 346 1294 292 1285 l 499 1064 m 856 985 q 857 969 857 979 q 853 946 857 960 q 784 927 803 940 q 765 881 765 914 l 765 424 q 681 194 765 268 q 457 119 597 119 q 233 194 317 119 q 149 424 149 268 l 149 924 q 53 946 106 942 q 51 961 51 951 q 57 985 51 971 l 338 985 q 335 946 338 957 q 267 926 286 940 q 247 881 247 913 l 247 414 q 304 236 247 294 q 457 178 361 178 q 608 237 553 178 q 664 414 664 296 l 664 925 q 569 946 625 940 q 575 985 569 974 l 856 985 z "},"Ú":{"ha":924,"x_min":51,"x_max":857,"o":"m 663 1228 l 451 1039 l 422 1057 l 574 1288 q 663 1243 625 1281 l 663 1228 m 856 985 q 857 969 857 979 q 853 946 857 960 q 784 927 803 940 q 765 881 765 914 l 765 424 q 681 194 765 268 q 457 119 597 119 q 233 194 317 119 q 149 424 149 268 l 149 924 q 53 946 106 942 q 51 961 51 951 q 57 985 51 971 l 338 985 q 335 946 338 957 q 267 926 286 940 q 247 881 247 913 l 247 414 q 304 236 247 294 q 457 178 361 178 q 608 237 553 178 q 664 414 664 296 l 664 925 q 569 946 625 940 q 575 985 569 974 l 856 985 z "},"Û":{"ha":924,"x_min":51,"x_max":857,"o":"m 436 1149 l 271 1046 l 244 1072 l 413 1232 l 461 1232 l 628 1072 l 604 1046 l 436 1149 m 856 985 q 857 969 857 979 q 853 946 857 960 q 784 927 803 940 q 765 881 765 914 l 765 424 q 681 194 765 268 q 457 119 597 119 q 233 194 317 119 q 149 424 149 268 l 149 924 q 53 946 106 942 q 51 961 51 951 q 57 985 51 971 l 338 985 q 335 946 338 957 q 267 926 286 940 q 247 881 247 913 l 247 414 q 304 236 247 294 q 457 178 361 178 q 608 237 553 178 q 664 414 664 296 l 664 925 q 569 946 625 940 q 575 985 569 974 l 856 985 z "},"Ü":{"ha":924,"x_min":51,"x_max":857,"o":"m 579 1133 q 579 1120 579 1133 q 562 1090 579 1107 q 520 1072 544 1072 q 479 1090 496 1072 q 463 1133 463 1107 q 479 1176 463 1158 q 520 1193 496 1193 q 562 1176 544 1193 q 579 1133 579 1158 m 378 1090 q 370 1081 378 1090 q 336 1072 361 1072 q 294 1090 311 1072 q 278 1133 278 1107 q 294 1176 278 1158 q 336 1193 311 1193 q 378 1176 361 1193 q 396 1133 396 1158 q 378 1090 396 1107 m 856 985 q 857 969 857 979 q 853 946 857 960 q 784 927 803 940 q 765 881 765 914 l 765 424 q 681 194 765 268 q 457 119 597 119 q 233 194 317 119 q 149 424 149 268 l 149 924 q 53 946 106 942 q 51 961 51 951 q 57 985 51 971 l 338 985 q 335 946 338 957 q 267 926 286 940 q 247 881 247 913 l 247 414 q 304 236 247 294 q 457 178 361 178 q 608 237 553 178 q 664 414 664 296 l 664 925 q 569 946 625 940 q 575 985 569 974 l 856 985 z "},"Ý":{"ha":785,"x_min":-6,"x_max":789,"o":"m 625 1229 l 414 1040 l 385 1058 l 536 1289 q 625 1244 588 1282 l 625 1229 m 789 985 q 785 944 789 967 q 726 925 746 939 q 683 875 707 911 l 440 486 l 440 196 q 538 176 486 178 q 533 136 538 156 l 243 136 q 246 176 242 157 q 315 197 296 183 q 335 243 335 210 l 335 472 l 72 929 q 0 944 32 943 q -6 985 -6 975 l 275 985 q 282 944 282 964 q 210 922 224 939 q 204 905 204 917 q 215 872 204 893 l 407 526 l 410 526 q 443 597 419 561 l 650 928 q 565 944 610 943 q 569 985 565 968 l 789 985 z "},"Þ":{"ha":731,"x_min":46,"x_max":674,"o":"m 242 333 l 376 333 q 513 377 464 333 q 561 501 561 421 q 514 625 561 581 q 376 669 467 669 l 242 669 l 242 333 m 242 718 l 400 718 q 601 658 528 718 q 674 501 674 599 q 601 344 674 403 q 400 285 528 285 l 242 285 l 242 129 q 335 108 282 111 q 331 68 336 92 l 50 68 q 54 108 47 90 q 123 128 104 115 q 142 175 142 142 l 142 856 q 46 878 99 874 q 50 917 46 904 l 332 917 q 328 878 332 889 q 261 858 281 872 q 242 813 242 844 l 242 718 z "},"ß":{"ha":779,"x_min":43,"x_max":710,"o":"m 139 178 l 139 663 q 213 847 139 778 q 409 917 286 917 q 601 852 532 917 q 669 697 669 788 q 632 583 669 631 q 533 513 594 535 q 663 435 617 494 q 710 290 710 375 q 642 136 710 204 q 444 68 574 68 q 332 86 394 68 q 328 111 328 99 q 331 135 328 124 q 431 117 382 117 q 555 167 513 117 q 597 298 597 218 q 551 428 597 378 q 410 479 506 479 l 356 479 q 350 508 350 496 q 350 526 350 519 l 438 526 q 558 697 558 571 q 515 825 558 779 q 395 871 472 871 q 279 817 318 871 q 240 676 240 764 l 240 68 l 44 68 q 43 85 43 75 q 47 110 43 96 q 119 129 99 115 q 139 178 139 143 z "},"à":{"ha":646,"x_min":63,"x_max":610,"o":"m 357 846 l 328 828 l 115 1017 l 115 1032 q 204 1076 150 1067 l 357 846 m 168 301 q 198 222 168 250 q 278 193 228 193 q 406 249 354 193 l 406 475 l 307 450 q 168 301 168 413 m 506 119 q 443 140 469 119 q 408 196 417 160 q 252 119 339 119 q 114 169 165 119 q 63 294 63 218 q 274 494 63 449 l 406 524 l 406 585 q 380 676 406 647 q 283 706 354 706 q 117 672 213 706 l 99 700 q 329 785 201 785 q 460 735 414 785 q 507 596 507 685 l 507 267 q 517 208 507 225 q 548 192 526 192 q 601 199 569 192 l 610 182 q 506 119 563 119 z "},"á":{"ha":646,"x_min":63,"x_max":610,"o":"m 542 1011 l 331 822 l 301 840 l 453 1071 q 542 1026 504 1064 l 542 1011 m 168 301 q 198 222 168 250 q 278 193 228 193 q 406 249 354 193 l 406 475 l 307 450 q 168 301 168 413 m 506 119 q 443 140 469 119 q 408 196 417 160 q 252 119 339 119 q 114 169 165 119 q 63 294 63 218 q 274 494 63 449 l 406 524 l 406 585 q 380 676 406 647 q 283 706 354 706 q 117 672 213 706 l 99 700 q 329 785 201 785 q 460 735 414 785 q 507 596 507 685 l 507 267 q 517 208 507 225 q 548 192 526 192 q 601 199 569 192 l 610 182 q 506 119 563 119 z "},"â":{"ha":646,"x_min":63,"x_max":610,"o":"m 315 931 l 150 828 l 124 854 l 292 1014 l 340 1014 l 507 854 l 483 828 l 315 931 m 168 301 q 198 222 168 250 q 278 193 228 193 q 406 249 354 193 l 406 475 l 307 450 q 168 301 168 413 m 506 119 q 443 140 469 119 q 408 196 417 160 q 252 119 339 119 q 114 169 165 119 q 63 294 63 218 q 274 494 63 449 l 406 524 l 406 585 q 380 676 406 647 q 283 706 354 706 q 117 672 213 706 l 99 700 q 329 785 201 785 q 460 735 414 785 q 507 596 507 685 l 507 267 q 517 208 507 225 q 548 192 526 192 q 601 199 569 192 l 610 182 q 506 119 563 119 z "},"ã":{"ha":646,"x_min":63,"x_max":610,"o":"m 389 863 q 308 897 353 863 q 243 931 264 931 q 181 868 194 931 l 142 868 q 256 1007 163 1007 q 334 973 289 1007 q 400 939 379 939 q 463 1003 449 939 l 501 1003 q 389 863 481 863 m 168 301 q 198 222 168 250 q 278 193 228 193 q 406 249 354 193 l 406 475 l 307 450 q 168 301 168 413 m 506 119 q 443 140 469 119 q 408 196 417 160 q 252 119 339 119 q 114 169 165 119 q 63 294 63 218 q 274 494 63 449 l 406 524 l 406 585 q 380 676 406 647 q 283 706 354 706 q 117 672 213 706 l 99 700 q 329 785 201 785 q 460 735 414 785 q 507 596 507 685 l 507 267 q 517 208 507 225 q 548 192 526 192 q 601 199 569 192 l 610 182 q 506 119 563 119 z "},"ä":{"ha":646,"x_min":63,"x_max":610,"o":"m 467 915 q 467 902 467 915 q 449 872 467 889 q 408 854 432 854 q 367 872 383 854 q 350 915 350 889 q 367 958 350 940 q 408 975 383 975 q 449 958 432 975 q 467 915 467 940 m 266 872 q 257 863 266 872 q 224 854 249 854 q 182 872 199 854 q 165 915 165 889 q 182 958 165 940 q 224 975 199 975 q 266 958 249 975 q 283 915 283 940 q 266 872 283 889 m 168 301 q 198 222 168 250 q 278 193 228 193 q 406 249 354 193 l 406 475 l 307 450 q 168 301 168 413 m 506 119 q 443 140 469 119 q 408 196 417 160 q 252 119 339 119 q 114 169 165 119 q 63 294 63 218 q 274 494 63 449 l 406 524 l 406 585 q 380 676 406 647 q 283 706 354 706 q 117 672 213 706 l 99 700 q 329 785 201 785 q 460 735 414 785 q 507 596 507 685 l 507 267 q 517 208 507 225 q 548 192 526 192 q 601 199 569 192 l 610 182 q 506 119 563 119 z "},"å":{"ha":646,"x_min":63,"x_max":610,"o":"m 369 922 q 369 936 369 922 q 354 967 369 951 q 316 982 339 982 q 278 967 293 982 q 263 922 263 951 q 278 876 263 892 q 316 860 293 860 q 354 876 339 860 q 369 922 369 892 m 433 922 q 433 901 433 922 q 399 852 433 879 q 316 825 365 825 q 232 852 267 825 q 197 922 197 879 q 232 990 197 964 q 316 1017 267 1017 q 399 991 365 1017 q 433 922 433 965 m 168 301 q 198 222 168 250 q 278 193 228 193 q 406 249 354 193 l 406 475 l 307 450 q 168 301 168 413 m 506 119 q 443 140 469 119 q 408 196 417 160 q 252 119 339 119 q 114 169 165 119 q 63 294 63 218 q 274 494 63 449 l 406 524 l 406 585 q 380 676 406 647 q 283 706 354 706 q 117 672 213 706 l 99 700 q 329 785 201 785 q 460 735 414 785 q 507 596 507 685 l 507 267 q 517 208 507 225 q 548 192 526 192 q 601 199 569 192 l 610 182 q 506 119 563 119 z "},"æ":{"ha":1001,"x_min":63,"x_max":944,"o":"m 839 483 q 797 617 838 574 q 697 661 757 661 q 586 614 638 661 q 519 472 535 567 l 681 483 l 839 483 m 168 233 q 198 153 168 182 q 278 125 228 125 q 438 217 371 125 q 406 372 406 283 l 406 407 l 307 382 q 168 233 168 344 m 513 394 q 566 195 513 265 q 722 125 619 125 q 925 192 825 125 l 938 167 q 689 51 836 51 q 561 83 624 51 q 458 178 499 115 q 249 51 369 51 q 114 101 165 51 q 63 228 63 150 q 274 426 63 381 l 406 456 l 406 517 q 380 608 406 579 q 283 638 354 638 q 117 604 213 638 l 99 632 q 328 717 201 717 q 489 608 454 717 q 592 689 532 661 q 708 717 651 717 q 878 648 811 717 q 944 451 944 579 q 931 426 940 439 l 514 426 q 513 394 513 417 z "},"ç":{"ha":628,"x_min":57,"x_max":579,"o":"m 357 39 q 443 15 414 39 q 472 -51 472 -8 q 426 -129 472 -94 q 303 -164 381 -164 q 143 -122 225 -164 l 164 -96 q 292 -126 226 -126 q 393 -54 393 -126 q 313 1 393 1 q 260 -4 299 1 l 286 125 q 122 230 186 146 q 57 440 57 314 q 147 690 57 594 q 379 785 238 785 q 567 731 490 785 q 554 581 567 658 l 525 585 q 482 690 525 651 q 371 728 439 728 q 222 653 278 728 q 165 454 165 579 q 220 257 165 329 q 368 185 275 185 q 561 243 461 185 l 579 221 q 364 119 481 126 l 347 39 l 357 39 z "},"è":{"ha":654,"x_min":58,"x_max":599,"o":"m 401 846 l 372 828 l 160 1017 l 160 1032 q 249 1076 194 1067 l 401 846 m 493 553 q 450 686 492 643 q 349 729 408 729 q 239 682 290 729 q 172 540 188 635 l 333 551 l 493 553 m 165 463 q 219 263 165 333 q 375 193 272 193 q 578 260 478 193 l 590 235 q 342 119 489 119 q 153 197 238 119 q 84 298 110 235 q 58 440 58 361 q 153 694 58 603 q 356 785 247 785 q 531 716 464 785 q 599 519 599 647 q 583 494 590 504 l 167 494 q 165 463 165 485 z "},"é":{"ha":654,"x_min":58,"x_max":599,"o":"m 585 1013 l 374 824 l 344 842 l 496 1072 q 585 1028 547 1065 l 585 1013 m 493 553 q 450 686 492 643 q 349 729 408 729 q 239 682 290 729 q 172 540 188 635 l 333 551 l 493 553 m 165 463 q 219 263 165 333 q 375 193 272 193 q 578 260 478 193 l 590 235 q 342 119 489 119 q 153 197 238 119 q 84 298 110 235 q 58 440 58 361 q 153 694 58 603 q 356 785 247 785 q 531 716 464 785 q 599 519 599 647 q 583 494 590 504 l 167 494 q 165 463 165 485 z "},"ê":{"ha":654,"x_min":58,"x_max":599,"o":"m 358 931 l 193 828 l 167 854 l 335 1014 l 383 1014 l 550 854 l 526 828 l 358 931 m 493 553 q 450 686 492 643 q 349 729 408 729 q 239 682 290 729 q 172 540 188 635 l 333 551 l 493 553 m 165 463 q 219 263 165 333 q 375 193 272 193 q 578 260 478 193 l 590 235 q 342 119 489 119 q 153 197 238 119 q 84 298 110 235 q 58 440 58 361 q 153 694 58 603 q 356 785 247 785 q 531 716 464 785 q 599 519 599 647 q 583 494 590 504 l 167 494 q 165 463 165 485 z "},"ë":{"ha":654,"x_min":58,"x_max":599,"o":"m 501 915 q 501 902 501 915 q 484 872 501 889 q 442 854 467 854 q 401 872 418 854 q 385 915 385 889 q 401 958 385 940 q 442 975 418 975 q 484 958 467 975 q 501 915 501 940 m 301 872 q 292 863 301 872 q 258 854 283 854 q 217 872 233 854 q 200 915 200 889 q 217 958 200 940 q 258 975 233 975 q 301 958 283 975 q 318 915 318 940 q 301 872 318 889 m 493 553 q 450 686 492 643 q 349 729 408 729 q 239 682 290 729 q 172 540 188 635 l 333 551 l 493 553 m 165 463 q 219 263 165 333 q 375 193 272 193 q 578 260 478 193 l 590 235 q 342 119 489 119 q 153 197 238 119 q 84 298 110 235 q 58 440 58 361 q 153 694 58 603 q 356 785 247 785 q 531 716 464 785 q 599 519 599 647 q 583 494 590 504 l 167 494 q 165 463 165 485 z "},"ì":{"ha":385,"x_min":-11,"x_max":332,"o":"m 231 846 l 201 828 l -11 1017 l -11 1032 q 78 1076 24 1067 l 231 846 m 138 246 l 138 686 q 91 688 115 688 q 40 686 67 688 q 46 725 40 700 q 238 776 138 760 l 238 199 q 332 178 276 182 q 328 136 332 153 l 43 136 q 46 178 40 157 q 117 197 97 183 q 138 246 138 211 z "},"í":{"ha":385,"x_min":40,"x_max":414,"o":"m 138 246 l 138 686 q 91 688 115 688 q 40 686 67 688 q 46 725 40 700 q 238 776 138 760 l 238 199 q 332 178 276 182 q 328 136 332 153 l 43 136 q 46 178 40 157 q 117 197 97 183 q 138 246 138 211 m 174 842 l 325 1072 q 414 1028 376 1065 l 414 1013 l 203 824 l 174 842 z "},"î":{"ha":385,"x_min":-3,"x_max":381,"o":"m 138 246 l 138 686 q 91 688 115 688 q 40 686 67 688 q 46 725 40 700 q 238 776 138 760 l 238 199 q 332 178 276 182 q 328 136 332 153 l 43 136 q 46 178 40 157 q 117 197 97 183 q 138 246 138 211 m 214 1014 l 381 854 l 357 828 l 189 931 l 24 828 l -3 854 l 165 1014 l 214 1014 z "},"ï":{"ha":385,"x_min":31,"x_max":332,"o":"m 332 915 q 332 902 332 915 q 315 872 332 889 q 273 854 297 854 q 232 872 249 854 q 215 915 215 889 q 232 958 215 940 q 273 975 249 975 q 315 958 297 975 q 332 915 332 940 m 131 872 q 123 863 131 872 q 89 854 114 854 q 47 872 64 854 q 31 915 31 889 q 47 958 31 940 q 89 975 64 975 q 131 958 114 975 q 149 915 149 940 q 131 872 149 889 m 138 246 l 138 686 q 91 688 115 688 q 40 686 67 688 q 46 725 40 700 q 238 776 138 760 l 238 199 q 332 178 276 182 q 328 136 332 153 l 43 136 q 46 178 40 157 q 117 197 97 183 q 138 246 138 211 z "},"ð":{"ha":693,"x_min":58,"x_max":619,"o":"m 399 653 q 226 582 288 653 q 165 385 165 511 q 213 184 165 258 q 344 110 260 110 q 470 203 428 110 q 513 424 513 297 q 492 640 513 551 q 399 653 447 653 m 619 446 q 539 166 619 281 q 335 51 458 51 q 135 138 213 51 q 58 372 58 225 q 160 617 58 518 q 413 717 261 717 q 469 714 436 717 q 399 863 446 786 l 246 790 q 218 838 225 807 l 368 907 q 267 1028 322 971 l 304 1061 q 425 935 374 996 l 578 1006 q 606 960 599 990 l 460 890 q 619 446 619 676 z "},"ñ":{"ha":768,"x_min":40,"x_max":736,"o":"m 474 864 q 393 898 438 864 q 328 932 349 932 q 265 869 279 932 l 226 869 q 340 1008 247 1008 q 419 974 374 1008 q 485 940 464 940 q 547 1004 533 940 l 586 1004 q 474 864 565 864 m 639 578 l 639 199 q 736 178 683 182 q 733 136 736 158 l 450 136 q 451 178 449 153 q 520 197 501 183 q 539 246 539 211 l 539 569 q 507 674 539 638 q 418 710 475 710 q 238 565 297 710 l 238 199 q 332 178 276 182 q 328 136 332 153 l 43 136 q 46 178 40 157 q 117 197 97 183 q 138 246 138 211 l 138 688 q 75 689 97 689 q 40 689 53 689 q 46 725 40 706 q 226 776 138 761 q 238 640 235 724 q 453 785 308 785 q 587 732 535 785 q 639 578 639 679 z "},"ò":{"ha":707,"x_min":58,"x_max":649,"o":"m 253 1076 l 406 846 l 376 828 l 164 1017 l 164 1032 q 253 1076 199 1067 m 216 252 q 241 215 216 252 q 360 178 267 178 q 497 248 453 178 q 540 436 540 318 q 490 655 540 578 q 348 732 440 732 q 210 659 256 732 q 165 465 165 586 q 216 252 165 326 m 356 785 q 422 785 356 785 q 569 694 489 785 q 649 453 649 603 q 567 211 649 303 q 349 119 485 119 q 136 210 214 119 q 58 451 58 301 q 140 693 58 601 q 356 785 222 785 z "},"ó":{"ha":729,"x_min":58,"x_max":649,"o":"m 216 252 q 241 215 216 252 q 360 178 267 178 q 497 248 453 178 q 540 436 540 318 q 490 655 540 578 q 348 732 440 732 q 210 659 256 732 q 165 465 165 586 q 216 252 165 326 m 356 785 q 422 785 356 785 q 569 694 489 785 q 649 453 649 603 q 567 211 649 303 q 349 119 485 119 q 136 210 214 119 q 58 451 58 301 q 140 693 58 601 q 356 785 222 785 m 349 842 l 500 1072 q 589 1028 551 1065 l 589 1013 l 378 824 l 349 842 z "},"ô":{"ha":729,"x_min":58,"x_max":649,"o":"m 216 252 q 241 215 216 252 q 360 178 267 178 q 497 248 453 178 q 540 436 540 318 q 490 655 540 578 q 348 732 440 732 q 210 659 256 732 q 165 465 165 586 q 216 252 165 326 m 356 785 q 422 785 356 785 q 569 694 489 785 q 649 453 649 603 q 567 211 649 303 q 349 119 485 119 q 136 210 214 119 q 58 451 58 301 q 140 693 58 601 q 356 785 222 785 m 554 854 l 531 828 l 363 931 l 197 828 l 171 854 l 339 1014 l 388 1014 l 554 854 z "},"õ":{"ha":707,"x_min":58,"x_max":649,"o":"m 304 1007 q 383 973 338 1007 q 449 939 428 939 q 511 1003 497 939 l 550 1003 q 438 863 529 863 q 357 897 401 863 q 292 931 313 931 q 229 868 243 931 l 190 868 q 304 1007 211 1007 m 216 252 q 241 215 216 252 q 360 178 267 178 q 497 248 453 178 q 540 436 540 318 q 490 655 540 578 q 348 732 440 732 q 210 659 256 732 q 165 465 165 586 q 216 252 165 326 m 356 785 q 422 785 356 785 q 569 694 489 785 q 649 453 649 603 q 567 211 649 303 q 349 119 485 119 q 136 210 214 119 q 58 451 58 301 q 140 693 58 601 q 356 785 222 785 z "},"ö":{"ha":729,"x_min":58,"x_max":649,"o":"m 216 252 q 241 215 216 252 q 360 178 267 178 q 497 248 453 178 q 540 436 540 318 q 490 655 540 578 q 348 732 440 732 q 210 659 256 732 q 165 465 165 586 q 216 252 165 326 m 356 785 q 422 785 356 785 q 569 694 489 785 q 649 453 649 603 q 567 211 649 303 q 349 119 485 119 q 136 210 214 119 q 58 451 58 301 q 140 693 58 601 q 356 785 222 785 m 447 975 q 459 975 447 975 q 488 958 471 975 q 506 915 506 940 q 488 872 506 889 q 447 854 471 854 q 406 872 422 854 q 389 915 389 889 q 406 958 389 940 q 447 975 422 975 m 263 975 q 275 975 263 975 q 305 958 288 975 q 322 915 322 940 q 305 872 322 889 q 263 854 288 854 q 221 872 238 854 q 204 915 204 889 q 221 958 204 940 q 263 975 238 975 z "},"÷":{"ha":839,"x_min":83,"x_max":753,"o":"m 753 479 l 122 479 l 83 560 l 83 565 l 713 565 l 753 486 l 753 479 m 497 264 q 497 248 497 264 q 475 211 497 232 q 421 190 453 190 q 368 211 389 190 q 347 264 347 232 q 368 318 347 296 q 421 340 389 340 q 475 318 453 340 q 497 264 497 296 m 497 780 q 497 764 497 780 q 475 728 497 749 q 421 707 453 707 q 368 728 389 707 q 347 780 347 749 q 368 833 347 811 q 421 856 389 856 q 475 833 453 856 q 497 780 497 811 z "},"ø":{"ha":729,"x_min":58,"x_max":671,"o":"m 226 175 q 373 110 279 110 q 515 181 467 110 q 563 369 563 251 q 531 547 563 476 l 226 175 m 503 594 q 356 664 450 664 q 214 591 263 664 q 165 397 165 518 q 197 221 165 292 l 503 594 m 592 619 q 671 383 671 529 q 584 144 671 236 q 375 51 497 51 q 174 113 253 51 l 124 51 l 58 51 l 138 147 q 58 385 58 238 q 145 624 58 532 q 365 717 232 717 q 554 656 474 717 l 604 717 l 671 717 l 592 619 z "},"ù":{"ha":753,"x_min":25,"x_max":700,"o":"m 399 846 l 369 828 l 157 1017 l 157 1032 q 246 1076 192 1067 l 399 846 m 608 656 l 608 218 q 699 215 667 215 q 700 192 700 200 q 700 179 700 183 q 521 129 621 140 q 508 271 511 181 q 294 119 424 119 q 161 175 215 119 q 107 333 107 231 l 107 689 q 69 689 89 689 q 25 689 49 689 q 31 726 25 704 q 207 778 132 769 l 207 342 q 240 235 207 274 q 325 196 272 196 q 426 233 378 196 q 508 338 474 269 l 508 644 q 469 735 508 710 q 476 756 472 750 q 599 778 528 778 q 614 778 606 778 q 608 656 608 728 z "},"ú":{"ha":764,"x_min":25,"x_max":700,"o":"m 604 1013 l 393 824 l 364 842 l 515 1072 q 604 1028 567 1065 l 604 1013 m 608 656 l 608 218 q 699 215 667 215 q 700 192 700 200 q 700 179 700 183 q 521 129 621 140 q 508 271 511 181 q 294 119 424 119 q 161 175 215 119 q 107 333 107 231 l 107 689 q 69 689 89 689 q 25 689 49 689 q 31 726 25 704 q 207 778 132 769 l 207 342 q 240 235 207 274 q 325 196 272 196 q 426 233 378 196 q 508 338 474 269 l 508 644 q 469 735 508 710 q 476 756 472 750 q 599 778 528 778 q 614 778 606 778 q 608 656 608 728 z "},"û":{"ha":764,"x_min":25,"x_max":700,"o":"m 378 931 l 213 828 l 186 854 l 354 1014 l 403 1014 l 569 854 l 546 828 l 378 931 m 608 656 l 608 218 q 699 215 667 215 q 700 192 700 200 q 700 179 700 183 q 521 129 621 140 q 508 271 511 181 q 294 119 424 119 q 161 175 215 119 q 107 333 107 231 l 107 689 q 69 689 89 689 q 25 689 49 689 q 31 726 25 704 q 207 778 132 769 l 207 342 q 240 235 207 274 q 325 196 272 196 q 426 233 378 196 q 508 338 474 269 l 508 644 q 469 735 508 710 q 476 756 472 750 q 599 778 528 778 q 614 778 606 778 q 608 656 608 728 z "},"ü":{"ha":764,"x_min":25,"x_max":700,"o":"m 522 915 q 522 902 522 915 q 505 872 522 889 q 463 854 488 854 q 422 872 439 854 q 406 915 406 889 q 422 958 406 940 q 463 975 439 975 q 505 958 488 975 q 522 915 522 940 m 322 872 q 313 863 322 872 q 279 854 304 854 q 238 872 254 854 q 221 915 221 889 q 238 958 221 940 q 279 975 254 975 q 322 958 304 975 q 339 915 339 940 q 322 872 339 889 m 608 656 l 608 218 q 699 215 667 215 q 700 192 700 200 q 700 179 700 183 q 521 129 621 140 q 508 271 511 181 q 294 119 424 119 q 161 175 215 119 q 107 333 107 231 l 107 689 q 69 689 89 689 q 25 689 49 689 q 31 726 25 704 q 207 778 132 769 l 207 342 q 240 235 207 274 q 325 196 272 196 q 426 233 378 196 q 508 338 474 269 l 508 644 q 469 735 508 710 q 476 756 472 750 q 599 778 528 778 q 614 778 606 778 q 608 656 608 728 z "},"ý":{"ha":701,"x_min":3,"x_max":701,"o":"m 604 1011 l 393 822 l 364 840 l 515 1071 q 604 1026 567 1064 l 604 1011 m 156 -176 l 138 -176 q 124 -117 124 -142 q 126 -79 124 -93 l 153 -79 q 223 -61 197 -79 q 274 8 249 -43 l 324 115 l 107 650 q 72 706 92 690 q 6 726 53 721 q 3 753 3 743 q 3 768 3 764 l 289 768 q 294 726 294 751 q 197 707 231 721 l 374 224 q 389 274 378 246 l 533 640 q 542 676 542 661 q 533 701 542 692 q 449 726 515 721 q 446 768 443 753 l 700 768 q 693 726 701 749 q 631 713 665 722 l 329 -7 q 253 -137 292 -97 q 156 -176 214 -176 z "},"þ":{"ha":736,"x_min":40,"x_max":675,"o":"m 238 265 q 407 118 276 118 q 517 179 469 118 q 564 383 564 240 q 517 588 564 526 q 407 650 469 650 q 301 613 344 650 q 238 503 257 575 l 238 265 m 417 717 q 599 633 522 717 q 675 384 675 549 q 599 135 675 219 q 417 50 522 51 q 238 174 290 50 l 238 -178 q 342 -203 282 -199 q 338 -244 343 -221 l 43 -244 q 46 -203 40 -224 q 117 -182 97 -196 q 138 -135 138 -168 l 138 971 q 99 972 122 972 q 40 971 75 972 q 46 1010 40 988 q 238 1061 138 1047 l 238 593 q 417 717 290 717 z "},"ÿ":{"ha":701,"x_min":3,"x_max":701,"o":"m 529 915 q 529 902 529 915 q 512 872 529 889 q 470 854 494 854 q 429 872 446 854 q 413 915 413 889 q 429 958 413 940 q 470 975 446 975 q 512 958 494 975 q 529 915 529 940 m 328 872 q 320 863 328 872 q 286 854 311 854 q 244 872 261 854 q 228 915 228 889 q 244 958 228 940 q 286 975 261 975 q 328 958 311 975 q 346 915 346 940 q 328 872 346 889 m 156 -176 l 138 -176 q 124 -117 124 -142 q 126 -79 124 -93 l 153 -79 q 223 -61 197 -79 q 274 8 249 -43 l 324 115 l 107 650 q 72 706 92 690 q 6 726 53 721 q 3 753 3 743 q 3 768 3 764 l 289 768 q 294 726 294 751 q 197 707 231 721 l 374 224 q 389 274 378 246 l 533 640 q 542 676 542 661 q 533 701 542 692 q 449 726 515 721 q 446 768 443 753 l 700 768 q 693 726 701 749 q 631 713 665 722 l 329 -7 q 253 -137 292 -97 q 156 -176 214 -176 z "},"ı":{"ha":385,"x_min":40,"x_max":332,"o":"m 138 178 l 138 618 q 91 619 115 619 q 40 618 67 619 q 46 657 40 632 q 238 708 138 692 l 238 131 q 332 110 276 114 q 328 68 332 85 l 43 68 q 46 110 40 89 q 117 129 97 115 q 138 178 138 143 z "},"Ł":{"ha":692,"x_min":18,"x_max":660,"o":"m 239 185 l 496 185 q 586 216 563 185 q 617 324 610 247 q 653 322 644 324 q 660 210 660 256 q 658 136 660 165 l 49 136 q 53 176 46 158 q 121 197 101 183 q 140 243 140 210 l 140 451 l 36 417 q 18 465 22 432 l 140 507 l 140 924 q 44 946 99 942 q 49 985 44 972 l 329 985 q 325 946 332 965 q 258 926 278 940 q 239 881 239 913 l 239 542 l 368 586 q 388 533 379 572 l 239 483 l 239 185 z "},"ł":{"ha":418,"x_min":24,"x_max":393,"o":"m 150 246 l 150 525 l 42 488 q 24 540 31 501 l 150 583 l 150 1039 q 111 1040 136 1040 q 53 1039 86 1040 q 58 1078 53 1056 q 250 1129 150 1115 l 250 618 l 374 660 q 393 607 383 647 l 250 558 l 250 199 q 344 178 289 182 q 340 136 344 153 l 56 136 q 58 178 53 157 q 130 197 110 183 q 150 246 150 211 z "},"Œ":{"ha":1199,"x_min":78,"x_max":1125,"o":"m 444 876 q 250 768 318 876 q 190 532 190 674 q 275 203 190 313 q 479 108 350 108 q 615 144 557 108 l 615 842 q 444 876 538 876 m 715 117 l 956 117 q 1047 149 1024 117 q 1079 260 1071 181 q 1121 257 1110 260 q 1125 148 1125 194 q 1124 68 1125 101 l 639 68 q 458 50 539 50 q 181 172 283 50 q 78 490 78 294 q 183 810 78 686 q 463 935 288 935 q 639 917 542 935 l 1103 917 q 1106 835 1106 882 q 1097 732 1106 789 q 1058 729 1089 729 q 1028 839 1051 807 q 938 871 1004 871 l 715 871 l 715 525 l 910 535 l 951 535 l 951 468 l 910 468 l 715 474 l 715 117 z "},"œ":{"ha":1161,"x_min":58,"x_max":1082,"o":"m 976 483 q 935 617 975 574 q 835 661 894 661 q 725 614 776 661 q 657 472 674 567 l 818 483 l 976 483 m 216 184 q 241 147 216 184 q 360 110 267 110 q 497 180 453 110 q 540 368 540 250 q 490 587 540 510 q 348 664 440 664 q 210 591 256 664 q 165 397 165 518 q 216 184 165 258 m 650 394 q 704 195 650 265 q 858 125 758 125 q 1061 193 958 125 l 1074 165 q 826 51 972 51 q 693 88 757 51 q 593 194 629 124 q 353 51 519 51 q 136 142 214 51 q 58 383 58 233 q 140 625 58 533 q 354 717 222 717 q 600 565 526 717 q 710 678 642 639 q 846 717 778 717 q 1016 648 950 717 q 1082 451 1082 579 q 1068 426 1076 435 l 651 426 q 650 394 650 417 z "},"Š":{"ha":713,"x_min":79,"x_max":599,"o":"m 599 361 q 519 189 599 254 q 318 124 439 124 q 81 182 197 124 q 79 256 79 204 q 92 386 79 307 q 128 382 107 386 q 128 374 128 378 q 325 178 128 178 q 453 222 403 178 q 503 330 503 265 q 460 440 503 394 q 358 515 418 485 q 239 576 299 544 q 137 660 179 607 q 94 788 94 714 q 167 942 94 885 q 350 999 240 999 q 569 957 460 999 q 554 793 567 860 q 524 796 532 793 q 343 944 496 944 q 227 908 269 944 q 185 810 185 871 q 227 707 185 749 q 331 637 269 665 q 453 577 392 608 q 556 492 514 546 q 599 361 599 438 m 572 1219 l 424 1050 l 340 1050 l 189 1219 l 215 1246 l 381 1119 l 549 1246 l 572 1219 z "},"š":{"ha":579,"x_min":76,"x_max":521,"o":"m 273 172 q 307 172 273 172 q 382 202 342 172 q 422 275 422 232 q 389 347 422 318 q 307 399 356 376 q 210 445 258 421 q 129 510 163 469 q 96 607 96 551 q 158 740 96 694 q 309 785 221 785 q 478 757 397 785 q 479 693 479 733 q 471 600 479 653 q 439 604 460 600 q 440 631 440 618 q 314 735 440 735 q 223 705 258 735 q 188 631 188 675 q 222 557 188 588 q 305 506 256 526 q 403 461 354 485 q 487 398 453 438 q 521 306 521 358 q 449 169 521 218 q 274 119 378 119 q 79 149 169 119 q 76 223 76 181 q 85 317 76 265 q 117 314 97 317 q 117 297 117 306 q 160 202 117 232 q 273 172 204 172 m 513 1001 l 364 832 l 281 832 l 129 1001 l 156 1028 l 321 901 l 489 1028 l 513 1001 z "},"Ÿ":{"ha":785,"x_min":-6,"x_max":789,"o":"m 550 1133 q 550 1120 550 1133 q 533 1090 550 1107 q 491 1072 515 1072 q 450 1090 467 1072 q 433 1133 433 1107 q 450 1176 433 1158 q 491 1193 467 1193 q 533 1176 515 1193 q 550 1133 550 1158 m 349 1090 q 341 1081 349 1090 q 307 1072 332 1072 q 265 1090 282 1072 q 249 1133 249 1107 q 265 1176 249 1158 q 307 1193 282 1193 q 349 1176 332 1193 q 367 1133 367 1158 q 349 1090 367 1107 m 789 985 q 785 944 789 967 q 726 925 746 939 q 683 875 707 911 l 440 486 l 440 196 q 538 176 486 178 q 533 136 538 156 l 243 136 q 246 176 242 157 q 315 197 296 183 q 335 243 335 210 l 335 472 l 72 929 q 0 944 32 943 q -6 985 -6 975 l 275 985 q 282 944 282 964 q 210 922 224 939 q 204 905 204 917 q 215 872 204 893 l 407 526 l 410 526 q 443 597 419 561 l 650 928 q 565 944 610 943 q 569 985 565 968 l 789 985 z "},"Ž":{"ha":747,"x_min":71,"x_max":668,"o":"m 463 1050 l 379 1050 l 228 1219 l 254 1246 l 419 1119 l 588 1246 l 611 1219 l 463 1050 m 508 192 q 601 219 574 192 q 639 318 628 246 q 667 313 657 318 q 654 136 667 213 l 82 136 q 71 185 71 156 l 553 932 l 256 932 q 164 903 192 932 q 125 803 136 875 q 96 810 113 803 q 110 985 96 903 l 661 985 q 668 938 668 969 l 189 192 l 508 192 z "},"ž":{"ha":625,"x_min":60,"x_max":564,"o":"m 369 832 l 286 832 l 135 1001 l 161 1028 l 326 901 l 494 1028 l 518 1001 l 369 832 m 393 188 q 491 217 461 188 q 533 322 521 246 q 563 317 550 322 q 563 269 563 310 q 549 136 563 229 l 63 136 q 60 160 60 147 q 65 192 60 174 l 446 718 l 250 718 q 152 688 182 718 q 110 581 122 657 q 81 589 94 581 q 94 768 81 681 l 560 768 q 564 737 564 751 q 558 710 564 722 l 186 188 l 393 188 z "},"ƒ":{"ha":558,"x_min":-106,"x_max":522,"o":"m 429 717 q 522 697 475 717 q 500 642 519 664 q 421 661 453 661 q 327 624 364 661 q 275 497 290 586 l 251 354 q 440 363 358 354 q 419 299 432 322 l 242 299 l 183 -44 q 110 -203 165 -147 q -15 -260 54 -260 q -106 -240 -60 -260 q -85 -186 -103 -210 q -8 -204 -40 -204 q 75 -100 57 -204 l 144 297 q 54 303 106 303 q 63 332 56 315 q 153 354 101 344 l 169 446 q 267 649 193 582 q 429 717 342 717 z "},"ˆ":{"ha":411,"x_min":14,"x_max":397,"o":"m 397 786 l 374 760 l 206 863 l 40 760 l 14 786 l 182 946 l 231 946 l 397 786 z "},"ˇ":{"ha":411,"x_min":14,"x_max":397,"o":"m 397 933 l 249 764 l 165 764 l 14 933 l 40 960 l 206 833 l 374 960 l 397 933 z "},"˘":{"ha":357,"x_min":14,"x_max":343,"o":"m 306 968 l 339 968 q 343 931 343 956 q 301 826 343 868 q 179 783 258 783 q 57 826 100 783 q 14 931 14 869 q 17 968 14 956 l 50 968 q 178 864 50 864 q 306 968 306 864 z "},"˙":{"ha":163,"x_min":14,"x_max":149,"o":"m 128 909 q 118 899 128 909 q 81 889 108 889 q 33 909 53 889 q 14 958 14 929 q 33 1006 14 986 q 81 1025 53 1025 q 128 1006 108 1025 q 149 958 149 986 q 128 909 149 929 z "},"˚":{"ha":249,"x_min":6,"x_max":242,"o":"m 208 923 q 225 910 208 923 q 242 854 242 897 q 208 784 242 811 q 124 757 174 757 q 40 784 75 757 q 6 853 6 811 q 40 922 6 896 q 124 949 75 949 q 208 923 174 949 m 124 914 q 113 914 124 914 q 86 899 101 914 q 71 853 71 883 q 86 808 71 824 q 124 792 101 792 q 163 807 147 792 q 178 853 178 822 q 163 899 178 883 q 124 914 147 914 z "},"˛":{"ha":275,"x_min":14,"x_max":261,"o":"m 107 -56 q 124 -106 107 -87 q 175 -125 142 -125 q 254 -106 208 -125 l 261 -122 q 136 -192 213 -192 q 50 -161 86 -192 q 14 -82 14 -131 q 178 104 14 43 l 207 83 q 107 -56 107 32 z "},"˜":{"ha":407,"x_min":28,"x_max":388,"o":"m 142 939 q 220 905 175 939 q 286 871 265 871 q 349 935 335 871 l 388 935 q 275 794 367 794 q 194 828 239 794 q 129 863 150 863 q 67 800 81 863 l 28 800 q 142 939 49 939 z "},"˝":{"ha":388,"x_min":14,"x_max":374,"o":"m 14 778 l 119 1001 q 200 972 169 994 l 200 958 l 49 764 l 14 778 m 168 779 l 294 996 q 374 964 339 990 l 374 950 l 200 764 l 168 779 z "},"ँ":{"ha":0,"x_min":-460,"x_max":58,"o":"m -282 1324 l -204 1401 l -125 1324 l -204 1246 l -282 1324 m -212 1121 q -10 1283 -97 1121 l 58 1229 q -180 1049 -39 1049 q -460 1244 -321 1049 l -415 1276 q -212 1121 -315 1121 z "},"ं":{"ha":0,"x_min":-257,"x_max":-100,"o":"m -257 1185 l -179 1263 l -100 1185 l -179 1107 l -257 1185 z "},"ः":{"ha":433,"x_min":183,"x_max":326,"o":"m 183 554 l 254 625 l 326 554 l 254 483 l 183 554 m 183 183 l 254 254 l 326 183 l 254 113 l 183 183 z "},"अ":{"ha":1075,"x_min":60,"x_max":1154,"o":"m 431 118 q 60 486 208 118 l 111 514 q 397 204 246 204 q 527 250 479 204 q 575 365 575 296 q 493 531 575 465 q 363 465 435 492 l 311 549 q 542 751 542 629 q 506 831 542 800 q 425 863 471 863 q 247 775 335 863 l 179 843 q 397 950 275 950 q 552 872 486 950 q 618 706 618 793 q 543 572 618 636 q 623 533 575 547 q 708 518 671 518 q 788 537 746 518 q 846 585 829 556 l 846 854 l 731 854 q 675 938 721 871 l 1099 938 l 1154 854 l 946 854 l 946 0 l 846 61 l 854 465 q 755 433 810 433 q 611 471 700 433 q 654 325 654 408 q 595 180 654 242 q 431 118 536 118 z "},"आ":{"ha":1382,"x_min":15,"x_max":1447,"o":"m 1239 854 l 1239 0 l 1140 71 l 1140 854 l 901 854 l 901 0 l 801 61 l 810 465 q 710 433 765 433 q 567 471 656 433 q 610 325 610 408 q 551 180 610 242 q 386 118 492 118 q 15 486 164 118 l 67 514 q 353 204 201 204 q 483 250 435 204 q 531 365 531 296 q 449 531 531 465 q 318 465 390 492 l 267 549 q 497 751 497 629 q 462 831 497 800 q 381 863 426 863 q 203 775 290 863 l 135 843 q 353 950 231 950 q 508 872 442 950 q 574 706 574 793 q 499 572 574 636 q 578 533 531 547 q 664 518 626 518 q 743 537 701 518 q 801 585 785 556 l 801 854 l 686 854 q 631 938 676 871 l 1397 938 l 1447 854 l 1239 854 z "},"इ":{"ha":756,"x_min":-64,"x_max":828,"o":"m 474 443 q 606 376 546 443 q 665 245 665 310 q 616 130 665 181 q 501 53 567 79 q 372 25 436 28 l 568 -178 l 503 -222 l 294 31 q 160 99 221 50 q 100 194 100 149 q 121 230 100 215 q 169 244 142 244 q 311 107 208 244 q 335 106 324 106 q 493 149 408 106 q 592 276 592 199 q 569 335 592 311 q 517 358 546 358 q 419 332 489 358 q 304 306 349 306 q 169 382 238 306 q 101 537 101 458 q 153 658 101 615 q 279 701 204 701 l 497 701 l 497 854 l -6 854 l -64 938 l 772 938 l 828 854 l 596 854 l 596 608 l 306 608 q 214 580 253 608 q 175 501 175 551 q 201 421 175 451 q 265 390 226 390 q 374 417 303 390 q 474 443 446 443 z "},"ई":{"ha":756,"x_min":-68,"x_max":822,"o":"m 639 1224 q 540 1189 579 1224 q 501 1076 501 1154 q 572 938 501 997 l 768 938 l 822 854 l 590 854 l 590 608 l 301 608 q 209 580 247 608 q 171 501 171 551 q 196 421 171 451 q 259 390 221 390 q 369 417 297 390 q 469 443 440 443 q 601 376 542 443 q 660 245 660 310 q 611 130 660 181 q 497 53 563 79 q 368 25 432 28 l 564 -178 l 499 -222 l 289 31 q 156 99 217 50 q 96 194 96 149 q 117 230 96 215 q 164 244 138 244 q 307 107 204 244 q 331 106 319 106 q 489 149 404 106 q 588 276 588 199 q 565 335 588 311 q 513 358 542 358 q 414 332 483 358 q 300 306 344 306 q 164 382 232 306 q 96 537 96 458 q 148 658 96 615 q 275 701 200 701 l 493 701 l 493 854 l -11 854 l -68 938 l 499 938 q 422 1124 422 1018 q 472 1249 422 1204 q 592 1294 521 1294 q 722 1261 663 1294 l 696 1215 q 639 1224 667 1224 z "},"उ":{"ha":749,"x_min":-94,"x_max":832,"o":"m 408 199 q 530 245 483 199 q 576 358 576 292 q 499 532 576 465 q 322 475 431 493 l 271 560 q 539 740 539 606 q 520 806 539 774 q 471 854 501 839 l -37 854 l -94 938 l 775 938 l 832 854 l 557 854 q 617 708 617 789 q 549 567 617 626 q 656 324 656 464 q 597 174 656 236 q 438 111 539 111 q 303 147 367 111 q 194 242 240 182 q 56 482 108 351 l 108 511 q 408 199 235 199 z "},"ऊ":{"ha":1013,"x_min":-69,"x_max":1093,"o":"m 976 367 q 782 149 976 228 l 725 224 q 901 407 901 281 q 865 503 901 461 q 779 546 829 546 q 611 450 689 546 q 642 315 642 393 q 582 174 642 236 q 418 111 522 111 q 308 138 361 111 q 215 204 254 165 q 142 297 176 243 q 44 483 88 379 l 94 511 q 383 199 219 199 q 513 244 464 199 q 563 358 563 289 q 488 531 563 464 q 331 476 424 494 l 279 561 q 526 740 526 603 q 507 806 526 774 q 457 854 488 839 l -12 854 l -69 938 l 1036 938 l 1093 854 l 544 854 q 604 706 604 789 q 538 565 604 624 q 561 540 538 564 q 746 631 660 631 q 904 544 832 631 q 976 367 976 458 z "},"ऋ":{"ha":1242,"x_min":-51,"x_max":1296,"o":"m 703 854 l 703 532 q 777 521 726 521 q 889 553 828 521 q 861 639 861 608 q 887 692 861 669 q 950 714 913 714 q 1023 671 988 714 q 1058 586 1058 628 q 994 506 1058 544 l 1083 364 l 935 235 q 893 164 893 197 q 922 106 893 131 q 989 82 950 82 q 1171 211 1090 82 l 1225 154 q 1157 58 1207 104 q 1037 11 1107 11 q 883 66 967 11 q 800 194 800 121 q 849 283 800 247 l 989 397 l 942 478 q 821 453 888 453 q 703 476 754 453 l 703 0 l 604 65 l 604 424 l 263 142 l 190 200 l 561 494 q 358 636 457 636 q 153 560 258 636 l 89 636 q 306 714 190 714 q 604 524 453 714 l 604 854 l 6 854 l -51 938 l 1240 938 l 1296 854 l 703 854 z "},"ऌ":{"ha":1069,"x_min":-82,"x_max":1154,"o":"m 744 569 q 630 518 665 569 q 594 397 594 467 q 613 250 594 328 l 526 276 q 499 412 499 343 q 518 525 499 481 q 398 572 468 572 q 282 524 328 572 q 236 387 236 475 q 300 212 236 299 q 468 36 364 125 l 417 0 q 146 435 146 232 q 210 594 146 531 q 369 658 275 658 q 468 635 421 658 q 546 578 515 611 q 700 656 600 656 q 839 614 776 656 l 839 854 l -26 854 l -82 938 l 1099 938 l 1154 854 l 939 854 l 939 111 q 788 51 854 89 q 721 -34 721 13 q 752 -101 721 -81 q 825 -121 783 -121 q 1015 -39 918 -121 l 1081 -97 q 981 -165 1046 -133 q 861 -197 917 -197 q 709 -138 778 -197 q 640 3 640 -79 q 668 69 640 38 q 726 120 696 101 q 795 158 757 139 q 839 181 833 176 l 839 554 q 744 569 793 569 z "},"ऍ":{"ha":793,"x_min":-81,"x_max":883,"o":"m 240 442 l 242 401 q 245 385 242 393 q 249 373 249 378 q 256 362 250 368 q 264 352 263 356 q 274 341 265 349 q 287 331 283 333 q 303 318 290 328 q 322 304 317 308 l 601 99 q 675 -28 675 46 q 626 -136 675 -85 l 546 -75 q 583 3 583 -35 q 468 126 583 40 q 174 346 250 288 q 146 381 151 363 q 140 438 140 400 l 140 854 l -26 854 l -81 938 l 831 938 l 883 854 l 672 854 l 672 567 q 644 437 672 488 q 554 344 617 386 l 483 417 q 551 483 531 449 q 572 576 572 518 l 572 854 l 240 854 l 240 442 m 168 1276 q 372 1121 257 1121 q 574 1283 486 1121 l 642 1229 q 406 1049 544 1049 q 124 1244 238 1049 l 168 1276 z "},"ऎ":{"ha":793,"x_min":-81,"x_max":883,"o":"m 240 442 l 242 401 q 245 385 242 393 q 249 373 249 378 q 256 362 250 368 q 264 352 263 356 q 274 341 265 349 q 287 331 283 333 q 303 318 290 328 q 322 304 317 308 l 601 99 q 675 -28 675 46 q 626 -136 675 -85 l 546 -75 q 583 3 583 -35 q 468 126 583 40 q 174 346 250 288 q 146 381 151 363 q 140 438 140 400 l 140 854 l -26 854 l -81 938 l 589 938 q 406 1061 533 1061 l 342 1061 q 139 1146 203 1061 q 86 1246 113 1182 l 131 1281 l 144 1254 q 184 1190 171 1200 q 212 1172 197 1181 q 243 1158 226 1163 q 335 1149 282 1149 l 393 1149 q 657 938 582 1149 l 831 938 l 883 854 l 672 854 l 672 567 q 644 437 672 488 q 554 344 617 386 l 483 417 q 551 483 531 449 q 572 576 572 518 l 572 854 l 240 854 l 240 442 z "},"ए":{"ha":790,"x_min":-83,"x_max":881,"o":"m 669 854 l 669 567 q 642 437 669 488 q 551 344 614 386 l 479 417 q 549 483 528 449 q 569 576 569 518 l 569 854 l 236 854 l 236 417 q 239 397 236 407 q 242 382 242 388 q 249 368 243 376 q 256 356 254 360 q 268 344 258 353 q 281 333 278 336 q 299 320 285 331 q 319 304 313 310 l 597 99 q 672 -28 672 46 q 624 -136 672 -85 l 543 -75 q 579 2 579 -36 q 465 126 579 40 q 169 346 239 293 q 143 381 149 363 q 138 438 138 400 l 138 854 l -29 854 l -83 938 l 826 938 l 881 854 l 669 854 z "},"ऐ":{"ha":793,"x_min":-81,"x_max":883,"o":"m 240 442 l 242 401 q 245 385 242 393 q 249 373 249 378 q 256 362 250 368 q 264 352 263 356 q 274 341 265 349 q 287 331 283 333 q 303 318 290 328 q 322 304 317 308 l 601 99 q 675 -28 675 46 q 626 -136 675 -85 l 546 -75 q 583 3 583 -35 q 468 126 583 40 q 174 346 250 288 q 146 381 151 363 q 140 438 140 400 l 140 854 l -26 854 l -81 938 l 592 938 q 347 1176 468 1176 q 272 1157 318 1176 l 219 1240 q 315 1268 264 1268 q 415 1244 367 1268 q 495 1191 463 1221 q 563 1108 528 1161 q 657 938 608 1040 l 831 938 l 883 854 l 672 854 l 672 567 q 644 437 672 488 q 554 344 617 386 l 483 417 q 551 483 531 449 q 572 576 572 518 l 572 854 l 240 854 l 240 442 z "},"ऑ":{"ha":1429,"x_min":96,"x_max":1522,"o":"m 1281 854 l 1281 0 l 1181 71 l 1181 854 l 981 854 l 981 0 l 882 61 l 889 465 q 790 433 844 433 q 647 471 736 433 q 689 324 689 407 q 631 180 689 242 q 467 118 572 118 q 333 156 396 118 q 224 256 269 193 q 96 486 142 367 l 146 514 q 432 204 281 204 q 563 250 515 204 q 610 365 610 296 q 529 531 610 464 q 397 465 468 492 l 346 549 q 578 751 578 631 q 542 831 578 800 q 461 863 506 863 q 282 775 369 863 l 215 843 q 433 950 308 950 q 587 872 521 950 q 653 706 653 793 q 579 572 653 638 q 658 533 611 547 q 743 518 706 518 q 823 537 781 518 q 882 585 865 556 l 882 854 l 767 854 q 710 938 760 865 l 1471 938 l 1522 854 l 1281 854 m 904 1276 q 1107 1121 993 1121 q 1308 1283 1221 1121 l 1378 1229 q 1140 1049 1281 1049 q 979 1105 1050 1049 q 860 1244 908 1161 l 904 1276 z "},"ऒ":{"ha":1429,"x_min":96,"x_max":1525,"o":"m 1283 854 l 1283 0 l 1183 71 l 1183 854 l 981 854 l 981 0 l 882 61 l 889 465 q 790 433 844 433 q 647 471 736 433 q 689 324 689 407 q 631 180 689 242 q 467 118 572 118 q 333 156 396 118 q 224 256 269 193 q 96 486 142 367 l 146 514 q 432 204 281 204 q 563 250 515 204 q 610 365 610 296 q 529 531 610 464 q 397 465 468 492 l 346 549 q 578 751 578 631 q 542 831 578 800 q 461 863 506 863 q 282 775 369 863 l 215 843 q 433 950 308 950 q 587 872 521 950 q 653 706 653 793 q 579 572 653 638 q 658 533 611 547 q 743 518 706 518 q 823 537 781 518 q 882 585 865 556 l 882 854 l 767 854 q 710 938 760 865 l 1199 938 q 1015 1061 1143 1061 l 951 1061 q 750 1146 813 1061 q 696 1246 722 1182 l 740 1281 l 753 1254 q 794 1190 781 1200 q 822 1172 807 1181 q 853 1158 836 1163 q 944 1149 892 1149 l 1003 1149 q 1267 938 1192 1149 l 1474 938 l 1525 854 l 1283 854 z "},"ओ":{"ha":1429,"x_min":96,"x_max":1525,"o":"m 832 1240 q 928 1268 876 1268 q 1027 1244 979 1268 q 1108 1191 1075 1221 q 1175 1108 1140 1161 q 1269 938 1221 1040 l 1474 938 l 1525 854 l 1283 854 l 1283 0 l 1183 71 l 1183 854 l 981 854 l 981 0 l 882 61 l 889 465 q 790 433 844 433 q 647 471 736 433 q 689 324 689 407 q 631 180 689 242 q 467 118 572 118 q 333 156 396 118 q 224 256 269 193 q 96 486 142 367 l 146 514 q 432 204 281 204 q 563 250 515 204 q 610 365 610 296 q 529 531 610 464 q 397 465 468 492 l 346 549 q 578 751 578 631 q 542 831 578 800 q 461 863 506 863 q 282 775 369 863 l 215 843 q 433 950 308 950 q 587 872 521 950 q 653 706 653 793 q 579 572 653 638 q 658 533 611 547 q 743 518 706 518 q 823 537 781 518 q 882 585 865 556 l 882 854 l 767 854 q 710 938 760 865 l 1204 938 q 960 1176 1081 1176 q 885 1157 931 1176 l 832 1240 z "},"औ":{"ha":1457,"x_min":96,"x_max":1553,"o":"m 906 1333 q 989 1350 940 1350 q 1085 1317 1038 1350 q 1165 1238 1133 1283 q 1228 1129 1197 1193 q 1301 938 1271 1040 l 1501 938 l 1553 854 l 1311 854 l 1311 0 l 1211 71 l 1211 854 l 981 854 l 981 0 l 882 61 l 889 465 q 790 433 844 433 q 647 471 736 433 q 689 324 689 407 q 631 180 689 242 q 467 118 572 118 q 333 156 396 118 q 224 256 269 193 q 96 486 142 367 l 146 514 q 432 204 281 204 q 563 250 515 204 q 610 365 610 296 q 529 531 610 464 q 397 465 468 492 l 346 549 q 578 751 578 631 q 542 831 578 800 q 461 863 506 863 q 282 775 369 863 l 215 843 q 433 950 308 950 q 587 872 521 950 q 653 706 653 793 q 579 572 653 638 q 658 533 611 547 q 743 518 706 518 q 823 537 781 518 q 882 585 865 556 l 882 854 l 767 854 q 710 938 760 865 l 1196 938 q 1090 1035 1151 997 q 977 1072 1028 1072 q 878 1051 926 1072 l 818 1126 q 940 1156 867 1156 q 1098 1100 1013 1156 q 1239 965 1183 1044 q 1217 1017 1235 975 q 1192 1077 1200 1060 q 1165 1131 1183 1094 q 1133 1184 1147 1167 q 1097 1222 1118 1201 q 1003 1263 1058 1263 q 944 1253 974 1263 l 906 1333 z "},"क":{"ha":1113,"x_min":-83,"x_max":1196,"o":"m 524 299 q 350 194 451 194 q 157 294 249 194 q 65 497 65 394 q 127 652 65 599 q 275 706 189 706 q 374 688 328 706 l 404 600 q 319 615 364 615 q 201 573 249 615 q 153 457 153 531 q 202 333 153 383 q 318 283 251 283 q 515 432 439 283 l 515 854 l -28 854 l -83 938 l 1140 938 l 1196 854 l 615 854 q 611 732 615 850 q 607 608 607 614 q 680 676 635 649 q 772 703 725 703 q 968 599 883 703 q 1053 382 1053 494 q 996 244 1053 296 q 850 193 939 193 q 753 208 803 193 l 724 297 q 833 282 778 282 q 931 316 889 282 q 972 422 972 350 q 929 553 972 494 q 808 611 886 611 q 615 460 692 611 l 615 0 l 515 67 l 524 299 z "},"ख":{"ha":1104,"x_min":-83,"x_max":1188,"o":"m 189 463 q 256 533 256 463 l 256 854 l -28 854 l -83 938 l 1132 938 l 1188 854 l 974 854 l 974 0 l 875 69 l 883 231 q 764 114 847 171 q 594 57 681 57 q 438 83 507 57 q 319 147 369 110 q 217 247 269 185 q 132 356 164 308 q 58 472 100 403 l 99 510 q 189 463 146 463 m 351 507 q 314 408 351 449 q 208 361 276 368 q 355 208 263 275 q 549 140 447 140 q 788 256 697 140 q 572 322 660 257 q 485 504 485 386 q 538 635 485 582 q 674 688 592 688 q 872 590 801 688 l 874 854 l 351 854 l 351 507 m 833 311 q 881 440 881 363 q 829 566 881 518 q 715 614 778 614 q 611 576 651 614 q 571 475 571 539 q 614 372 571 411 q 799 310 683 310 q 833 311 815 310 z "},"ग":{"ha":739,"x_min":-85,"x_max":824,"o":"m 608 854 l 608 0 l 510 72 l 510 854 l 267 854 l 267 408 q 259 351 267 369 q 229 333 251 333 q 132 394 188 333 q 76 500 76 456 q 168 539 76 539 l 168 854 l -28 854 l -85 938 l 767 938 l 824 854 l 608 854 z "},"घ":{"ha":858,"x_min":-83,"x_max":943,"o":"m 358 508 q 182 392 182 508 q 239 284 182 328 q 374 240 296 240 q 519 290 453 240 q 629 403 586 339 l 629 854 l 293 854 q 215 803 249 842 q 182 706 182 764 q 254 589 182 649 q 343 597 296 597 q 432 589 390 597 l 463 497 q 358 508 413 508 m 636 272 q 419 157 539 157 q 196 242 299 157 q 93 428 93 328 q 194 572 93 529 q 117 649 144 603 q 90 733 90 694 q 107 806 90 772 q 156 857 124 839 l 51 854 l -28 854 l -83 938 l 886 938 l 943 854 l 729 854 l 729 0 l 629 67 l 636 272 z "},"ङ":{"ha":832,"x_min":-85,"x_max":914,"o":"m 114 282 q 235 153 165 203 q 388 104 304 104 q 535 155 472 104 q 599 274 599 206 q 578 332 599 307 q 526 357 557 357 q 426 329 496 357 q 317 301 357 301 q 181 375 247 301 q 115 530 115 449 q 162 656 115 611 q 290 701 208 701 l 503 701 l 503 854 l -28 854 l -85 938 l 860 938 l 914 854 l 600 854 l 600 610 l 315 610 q 189 496 189 610 q 216 418 189 450 q 278 386 243 386 q 388 415 314 386 q 493 443 463 443 q 618 373 564 443 q 672 228 672 303 q 599 88 672 153 q 420 22 526 22 q 222 83 314 22 q 67 244 131 144 l 114 282 m 665 486 l 742 564 l 822 486 l 743 408 l 665 486 z "},"च":{"ha":946,"x_min":-82,"x_max":1026,"o":"m 483 171 q 288 257 383 171 q 192 446 192 343 q 218 526 192 486 q 282 582 244 565 l 63 578 l 6 664 l 549 664 l 606 578 l 468 578 q 335 520 388 565 q 282 409 282 475 q 330 300 282 343 q 442 257 378 257 q 717 444 603 257 l 717 854 l -28 854 l -82 938 l 974 938 l 1026 854 l 815 854 l 815 0 l 717 68 l 722 304 q 483 171 614 171 z "},"छ":{"ha":969,"x_min":-83,"x_max":1054,"o":"m 356 386 q 210 279 210 386 q 261 183 210 221 q 399 144 313 144 q 672 256 551 144 q 508 540 508 394 q 546 670 508 614 q 650 738 583 726 l 650 854 l -28 854 l -83 938 l 997 938 l 1054 854 l 749 854 l 749 726 q 846 632 811 701 q 881 488 881 563 q 789 242 881 356 q 963 126 838 206 l 914 69 q 746 193 839 121 q 447 65 614 65 q 216 142 314 65 q 118 332 118 219 q 183 440 118 403 q 78 603 78 522 q 138 724 78 685 q 293 763 199 763 q 400 751 344 763 l 432 663 q 328 671 378 671 q 172 568 172 671 q 243 464 172 519 q 335 475 292 475 q 417 468 378 475 l 451 376 q 356 386 403 386 m 592 496 q 713 299 592 397 q 806 536 806 401 q 785 629 806 592 q 713 667 764 667 q 626 615 661 667 q 592 496 592 564 z "},"ज":{"ha":999,"x_min":-83,"x_max":1082,"o":"m 768 538 l 471 538 q 578 317 578 442 q 532 196 578 244 q 417 147 486 147 q 297 177 349 147 q 210 247 246 207 q 142 353 175 288 q 47 578 96 442 l 103 611 q 200 367 157 438 q 306 250 258 275 q 384 233 338 233 q 464 266 431 233 q 497 345 497 299 q 484 425 497 392 q 439 497 471 458 q 331 613 399 544 l 339 626 l 768 626 l 768 854 l -28 854 l -83 938 l 1026 938 l 1082 854 l 868 854 l 868 0 l 768 68 l 768 538 z "},"झ":{"ha":1040,"x_min":-85,"x_max":1124,"o":"m 700 368 q 603 383 658 368 q 649 267 649 326 q 600 158 649 208 q 361 53 508 63 l 560 -153 l 494 -197 l 281 60 q 148 128 207 79 q 89 224 89 176 q 110 259 89 244 q 158 274 131 274 q 300 136 194 274 q 315 136 308 136 q 490 180 403 136 q 576 303 576 224 q 553 360 576 338 q 499 383 529 383 q 399 358 468 383 q 293 332 331 332 q 158 407 226 332 q 90 559 90 482 q 141 678 90 636 q 269 721 192 721 l 481 721 l 481 854 l -28 854 l -85 938 l 1068 938 l 1124 854 l 911 854 l 911 0 l 813 68 l 818 410 q 700 368 768 368 m 811 854 l 579 854 l 579 632 l 296 632 q 203 604 242 632 q 164 526 164 576 q 190 446 164 476 q 254 415 217 415 q 363 442 292 415 q 458 468 433 468 q 546 453 483 468 q 651 439 608 439 q 811 519 751 439 l 811 854 z "},"ञ":{"ha":1042,"x_min":-85,"x_max":1125,"o":"m 364 289 q 507 338 453 289 q 561 478 561 388 q 521 578 561 538 q 411 619 481 619 q 335 599 374 619 q 278 554 297 579 l 210 628 q 375 707 289 707 q 632 493 543 707 q 692 476 663 476 q 813 547 763 476 l 813 854 l -28 854 l -85 938 l 1069 938 l 1125 854 l 911 854 l 911 0 l 811 86 l 818 428 q 727 392 769 392 q 640 424 685 392 q 565 263 631 321 q 407 206 499 206 q 185 308 290 206 q 22 503 108 385 l 65 542 q 230 347 161 404 q 364 289 299 289 z "},"ट":{"ha":714,"x_min":-83,"x_max":797,"o":"m 583 854 l 583 589 l 379 589 q 233 540 297 589 q 168 391 168 490 q 238 231 168 292 q 404 171 308 171 q 614 261 528 171 l 675 182 q 578 110 638 139 q 447 81 518 81 q 196 189 313 81 q 79 432 79 297 q 146 608 79 538 q 336 678 213 678 l 483 678 l 483 854 l -28 854 l -83 938 l 742 938 l 797 854 l 583 854 z "},"ठ":{"ha":801,"x_min":-83,"x_max":885,"o":"m 579 854 l 579 613 q 733 350 733 514 q 657 158 733 233 q 446 82 581 82 q 196 189 311 82 q 81 443 81 296 q 146 612 81 546 q 332 678 211 678 l 479 678 l 479 854 l -28 854 l -83 938 l 829 938 l 885 854 l 579 854 m 649 381 q 610 502 649 447 q 513 589 571 557 l 392 589 q 168 386 168 589 q 240 228 168 293 q 415 163 313 163 q 583 222 517 163 q 649 381 649 282 z "},"ड":{"ha":729,"x_min":-83,"x_max":813,"o":"m 111 282 q 386 104 229 104 q 533 155 469 104 q 597 274 597 206 q 576 332 597 307 q 525 357 556 357 q 425 329 494 357 q 315 301 356 301 q 179 375 246 301 q 113 530 113 449 q 160 655 113 611 q 289 699 207 699 l 501 699 l 501 854 l -26 854 l -83 938 l 757 938 l 813 854 l 599 854 l 599 610 l 314 610 q 188 496 188 610 q 215 417 188 450 q 277 385 242 385 q 387 413 313 385 q 492 442 461 442 q 616 373 563 442 q 669 229 669 304 q 597 90 669 154 q 417 25 524 25 q 219 85 311 25 q 65 244 128 146 l 111 282 z "},"ढ":{"ha":732,"x_min":-75,"x_max":815,"o":"m 579 854 l 579 594 l 390 594 q 163 390 163 594 q 233 232 163 299 q 403 163 304 165 q 346 296 346 224 q 389 415 346 368 q 501 463 432 463 q 628 408 571 463 q 686 272 686 353 q 612 138 686 192 q 447 83 538 83 q 191 190 304 83 q 78 449 78 296 q 142 616 78 549 q 326 683 207 683 l 479 683 l 479 854 l -18 854 l -75 938 l 760 938 l 815 854 l 579 854 m 528 386 q 506 386 528 386 q 454 351 485 386 q 424 262 424 315 q 461 168 424 208 q 567 216 522 178 q 611 313 611 254 q 591 366 611 346 q 528 386 571 386 z "},"ण":{"ha":1008,"x_min":-83,"x_max":1093,"o":"m 878 854 l 878 0 l 779 68 l 779 854 l 554 854 l 554 476 q 505 340 554 393 q 372 288 456 288 q 193 369 289 288 q 97 578 97 451 l 97 854 l -28 854 l -83 938 l 1036 938 l 1093 854 l 878 854 m 335 367 q 457 519 457 367 l 457 854 l 193 854 l 193 547 q 230 415 193 464 q 335 367 267 367 z "},"त":{"ha":768,"x_min":-83,"x_max":853,"o":"m 639 854 l 639 0 l 540 67 l 540 529 l 336 529 q 212 486 256 529 q 168 367 168 443 q 317 35 168 232 l 268 0 q 82 421 82 240 q 141 567 82 514 q 310 619 200 619 l 540 619 l 540 854 l -28 854 l -83 938 l 796 938 l 853 854 l 639 854 z "},"थ":{"ha":897,"x_min":121,"x_max":981,"o":"m 453 621 q 422 595 453 621 q 336 538 390 569 q 276 503 282 507 q 261 493 269 499 q 244 482 253 488 q 221 438 221 464 q 274 347 221 385 q 395 310 328 310 q 544 368 463 310 q 668 488 626 426 l 668 854 l 563 854 l 507 938 l 925 938 l 981 854 l 767 854 l 767 0 l 668 68 l 674 356 q 554 260 621 294 q 432 226 488 226 q 221 315 321 226 q 121 493 121 403 q 151 539 121 519 q 225 579 164 546 q 325 636 286 613 q 401 699 364 660 q 438 776 438 739 q 408 844 438 814 q 331 875 378 875 q 251 846 285 875 q 218 772 218 817 q 264 689 218 728 l 222 657 q 139 810 139 732 q 185 907 139 865 q 296 949 231 949 q 449 878 382 949 q 517 740 517 808 q 453 621 517 672 z "},"द":{"ha":753,"x_min":-81,"x_max":833,"o":"m 581 592 l 392 592 q 167 399 167 592 q 231 251 167 314 q 375 188 296 188 q 441 197 411 188 q 483 217 471 207 l 494 226 q 454 322 454 286 q 484 383 454 358 q 552 408 514 408 q 625 363 590 408 q 660 272 660 317 q 599 176 660 228 l 743 6 l 682 -39 l 551 144 q 414 104 483 104 q 200 199 301 104 q 113 314 146 247 q 79 449 79 381 q 147 615 79 549 q 335 681 214 681 l 481 681 l 481 854 l -28 854 l -81 938 l 781 938 l 833 854 l 581 854 l 581 592 z "},"ध":{"ha":838,"x_min":-83,"x_max":921,"o":"m 708 854 l 708 0 l 608 67 l 613 275 q 511 202 568 231 q 404 174 454 174 q 195 257 290 174 q 100 442 100 340 q 201 583 100 544 q 94 740 94 654 q 114 810 94 779 q 157 856 133 840 l 11 854 l -28 854 l -83 938 l 336 938 l 392 854 l 303 854 q 220 803 253 842 q 188 711 188 765 q 265 600 189 657 q 322 604 286 604 q 417 594 358 604 l 449 500 q 332 513 381 513 q 237 486 283 513 q 190 398 190 460 q 237 297 190 336 q 360 258 283 258 q 608 407 501 258 l 608 854 l 538 854 l 482 938 l 865 938 l 921 854 l 708 854 z "},"न":{"ha":747,"x_min":-83,"x_max":832,"o":"m 519 476 l 254 476 l 254 349 q 222 313 254 313 q 122 385 179 313 q 65 513 65 457 q 140 568 65 568 l 519 568 l 519 854 l -28 854 l -83 938 l 775 938 l 832 854 l 617 854 l 617 0 l 519 67 l 519 476 z "},"ऩ":{"ha":763,"x_min":-19,"x_max":885,"o":"m 572 476 l 307 476 l 307 349 q 275 313 307 313 q 175 385 232 313 q 118 513 118 457 q 192 568 118 568 l 572 568 l 572 854 l 38 854 l -19 938 l 828 938 l 885 854 l 669 854 l 669 0 l 572 67 l 572 476 m 350 67 l 263 -21 l 174 67 l 260 154 l 350 67 z "},"प":{"ha":753,"x_min":-85,"x_max":836,"o":"m 622 854 l 622 0 l 524 67 l 533 376 q 376 307 457 307 q 203 397 296 307 q 111 590 111 488 l 111 854 l -28 854 l -85 938 l 781 938 l 836 854 l 622 854 m 210 542 q 249 434 210 475 q 342 393 288 393 q 448 426 397 393 q 524 504 499 460 l 524 854 l 210 854 l 210 542 z "},"फ":{"ha":1121,"x_min":-83,"x_max":1204,"o":"m 510 381 q 363 322 443 322 q 194 416 283 322 q 106 614 106 510 l 106 854 l -28 854 l -83 938 l 1149 938 l 1204 854 l 604 854 l 600 585 q 769 657 669 657 q 960 561 869 657 q 1051 364 1051 465 q 990 206 1051 263 q 831 150 928 150 q 758 158 808 150 l 726 249 q 806 239 763 239 q 924 278 879 239 q 969 390 969 317 q 924 516 969 463 q 808 569 878 569 q 604 442 671 569 l 604 0 l 503 68 l 510 381 m 329 411 q 506 511 431 411 l 506 854 l 204 854 l 204 560 q 239 453 204 496 q 329 411 274 411 z "},"ब":{"ha":800,"x_min":-85,"x_max":885,"o":"m 671 854 l 671 0 l 571 86 l 576 326 q 476 239 538 278 q 358 200 415 200 q 155 288 249 200 q 61 486 61 376 q 134 665 61 596 q 297 733 207 733 q 503 635 408 733 l 469 589 q 342 651 410 651 q 228 617 275 651 l 476 350 q 571 461 531 399 l 571 854 l -28 854 l -85 938 l 828 938 l 885 854 l 671 854 m 322 276 q 436 319 374 276 l 189 583 q 143 456 143 528 q 195 330 143 383 q 322 276 247 276 z "},"भ":{"ha":785,"x_min":-83,"x_max":869,"o":"m 656 854 l 656 0 l 556 71 l 556 406 l 267 406 l 267 307 q 235 271 267 271 q 132 333 192 271 q 72 446 72 396 q 92 485 72 474 q 169 497 113 497 l 169 743 q 143 823 169 792 q 71 854 117 854 l -28 854 l -83 938 l 25 938 q 157 889 101 938 l 203 849 q 267 701 267 786 l 267 497 l 556 497 l 556 854 l 382 854 l 325 938 l 813 938 l 869 854 l 656 854 z "},"म":{"ha":814,"x_min":-82,"x_max":897,"o":"m 146 496 l 169 496 l 169 854 l -28 854 l -82 938 l 842 938 l 897 854 l 683 854 l 683 0 l 585 71 l 585 404 l 268 404 l 268 306 q 236 271 268 271 q 132 333 192 271 q 72 445 72 394 q 146 496 72 496 m 268 854 l 268 496 l 585 496 l 585 854 l 268 854 z "},"य":{"ha":839,"x_min":-83,"x_max":922,"o":"m 708 854 l 708 0 l 608 71 l 611 343 q 405 231 515 231 q 188 331 294 231 q 81 522 81 432 q 107 558 81 546 q 269 656 226 618 q 311 726 311 694 q 284 794 311 757 q 213 854 257 831 l -28 854 l -83 938 l 867 938 l 922 854 l 708 854 m 185 456 q 244 360 185 403 q 375 318 303 318 q 510 367 447 318 q 610 485 572 415 l 610 854 l 303 854 q 378 773 353 821 q 403 699 403 725 q 399 660 403 674 q 384 632 394 646 q 365 608 374 618 q 338 585 357 599 q 307 565 318 572 q 271 542 296 558 q 240 522 246 526 q 222 510 233 518 q 206 499 210 503 q 197 489 203 496 q 185 456 185 474 z "},"र":{"ha":549,"x_min":-83,"x_max":632,"o":"m 372 854 l 372 499 q 340 414 372 450 q 238 369 307 378 q 514 43 313 257 l 442 -1 q 75 474 168 333 l 125 518 q 214 468 175 468 q 275 539 275 468 l 275 854 l -28 854 l -83 938 l 576 938 l 632 854 l 372 854 z "},"ऱ":{"ha":549,"x_min":-83,"x_max":632,"o":"m 372 854 l 372 499 q 340 414 372 450 q 238 369 307 378 q 514 43 313 257 l 442 -1 q 75 474 168 333 l 125 518 q 214 468 175 468 q 275 539 275 468 l 275 854 l -28 854 l -83 938 l 576 938 l 632 854 l 372 854 m 88 35 l 164 113 l 244 35 l 165 -43 l 88 35 z "},"ल":{"ha":1010,"x_min":-83,"x_max":1093,"o":"m 467 276 q 439 412 439 343 q 458 525 439 481 q 338 572 408 572 q 223 524 268 572 q 178 393 178 475 q 408 36 178 232 l 357 0 q 86 435 86 232 q 151 594 86 531 q 310 658 215 658 q 408 635 361 658 q 486 578 456 611 q 640 656 540 656 q 779 614 717 656 l 779 854 l -28 854 l -83 938 l 1038 938 l 1093 854 l 879 854 l 879 0 l 779 71 l 779 554 q 686 569 733 569 q 570 518 606 569 q 535 397 535 467 q 553 250 535 328 l 467 276 z "},"ळ":{"ha":1039,"x_min":-83,"x_max":1122,"o":"m 519 272 q 349 158 447 158 q 170 251 250 158 q 90 444 90 343 q 161 623 90 546 q 333 700 232 700 q 448 672 396 700 q 563 582 500 644 q 707 699 626 686 l 707 854 l -28 854 l -83 938 l 1067 938 l 1122 854 l 806 854 l 806 683 q 933 574 881 653 q 986 417 986 496 q 918 234 986 308 q 753 160 850 160 q 637 189 700 160 q 519 272 574 218 m 371 617 q 230 555 285 617 q 175 413 175 493 q 217 287 175 333 q 317 240 260 240 q 422 300 379 240 q 490 425 458 347 q 536 531 522 503 q 453 595 490 574 q 371 617 417 617 m 547 322 q 719 240 639 240 q 853 301 800 240 q 906 442 906 363 q 863 569 906 522 q 765 617 821 617 q 670 567 708 617 q 595 429 632 517 q 547 322 558 342 z "},"ऴ":{"ha":1039,"x_min":-83,"x_max":1122,"o":"m 519 272 q 349 158 447 158 q 170 251 250 158 q 90 444 90 343 q 161 623 90 546 q 333 700 232 700 q 448 672 396 700 q 563 582 500 644 q 707 699 626 686 l 707 854 l -28 854 l -83 938 l 1067 938 l 1122 854 l 806 854 l 806 683 q 933 574 881 653 q 986 417 986 496 q 918 234 986 308 q 753 160 850 160 q 637 189 700 160 q 519 272 574 218 m 371 617 q 230 555 285 617 q 175 413 175 493 q 217 287 175 333 q 317 240 260 240 q 422 300 379 240 q 490 425 458 347 q 536 531 522 503 q 453 595 490 574 q 371 617 417 617 m 547 322 q 719 240 639 240 q 853 301 800 240 q 906 442 906 363 q 863 569 906 522 q 765 617 821 617 q 670 567 708 617 q 595 429 632 517 q 547 322 558 342 m 671 -29 l 747 49 l 828 -29 l 749 -107 l 671 -29 z "},"व":{"ha":794,"x_min":-85,"x_max":879,"o":"m 665 854 l 665 0 l 565 85 l 571 317 q 472 238 531 271 q 360 204 413 204 q 160 291 251 204 q 68 490 68 378 q 138 669 68 601 q 308 736 207 736 q 507 633 408 736 l 476 586 q 338 649 419 649 q 205 589 257 649 q 153 458 153 529 q 198 336 153 386 q 321 286 243 286 q 438 331 372 286 q 565 457 504 375 l 565 854 l -28 854 l -85 938 l 822 938 l 879 854 l 665 854 z "},"श":{"ha":982,"x_min":94,"x_max":1064,"o":"m 286 442 q 451 506 388 442 q 514 679 514 569 q 477 810 514 757 q 384 863 440 863 q 292 827 328 863 q 257 741 257 792 q 288 656 257 690 q 369 606 318 622 l 340 558 q 221 642 274 585 q 168 770 168 699 q 217 894 168 842 q 340 946 267 946 q 520 849 446 946 q 594 644 594 753 q 510 429 594 507 q 313 351 426 351 q 278 353 296 351 q 554 46 339 268 l 486 0 q 94 474 207 321 l 136 510 q 286 442 207 442 m 853 854 l 853 0 l 753 68 l 753 854 l 646 854 l 594 938 l 1010 938 l 1064 854 l 853 854 z "},"ष":{"ha":764,"x_min":-82,"x_max":846,"o":"m 633 854 l 633 0 l 533 71 l 539 363 q 381 297 464 297 q 204 390 297 297 q 110 586 111 482 l 110 854 l -26 854 l -82 938 l 792 938 l 846 854 l 633 854 m 346 381 q 514 458 443 381 l 208 781 l 208 536 q 250 424 208 468 q 346 381 292 381 m 533 854 l 213 854 l 533 510 l 533 854 z "},"स":{"ha":906,"x_min":-81,"x_max":990,"o":"m 560 375 q 333 465 447 375 q 207 369 315 379 q 479 44 283 256 l 407 0 q 42 474 147 315 l 90 518 q 181 468 143 468 q 242 539 242 468 l 242 854 l -25 854 l -81 938 l 933 938 l 990 854 l 776 854 l 776 0 l 679 71 l 682 418 q 560 375 626 375 m 339 854 l 339 539 q 508 467 424 467 q 679 533 619 467 l 679 854 l 339 854 z "},"ह":{"ha":699,"x_min":-79,"x_max":782,"o":"m 431 125 q 514 192 483 149 q 544 274 544 235 q 513 341 544 314 q 422 368 481 368 q 269 313 335 368 q 203 178 203 258 q 258 50 203 113 q 461 -104 339 -39 q 528 -140 526 -139 l 472 -179 q 438 -159 468 -176 q 392 -131 408 -142 q 343 -98 376 -121 q 288 -57 310 -75 q 237 -13 267 -39 q 188 37 207 13 q 150 89 168 61 q 114 210 114 147 q 200 386 114 311 q 96 575 96 483 q 135 663 96 632 q 243 694 174 694 l 471 694 l 471 854 l -24 854 l -79 938 l 726 938 l 782 854 l 569 854 l 569 607 l 331 607 q 228 592 263 607 q 194 526 194 576 q 249 418 194 475 q 374 453 314 453 q 555 381 488 453 q 622 224 622 310 q 588 128 622 174 q 497 53 554 82 l 431 125 z "},"़":{"ha":0,"x_min":-649,"x_max":-492,"o":"m -649 -14 l -572 64 l -492 -14 l -571 -92 l -649 -14 z "},"ऽ":{"ha":844,"x_min":69,"x_max":707,"o":"m 675 240 q 613 88 675 153 q 437 22 551 22 q 222 97 322 22 q 69 251 122 172 l 117 294 q 240 168 160 229 q 410 107 319 107 q 542 149 500 107 q 583 256 583 192 q 486 433 583 340 l 278 635 q 176 826 176 732 q 214 906 176 875 q 325 936 251 936 l 635 936 l 707 854 l 367 854 q 307 834 329 854 q 285 779 285 814 q 376 638 285 721 l 531 496 q 635 367 596 436 q 675 240 675 297 z "},"ा":{"ha":360,"x_min":-79,"x_max":438,"o":"m 229 854 l 229 0 l 131 71 l 131 854 l -29 854 l -79 938 l 388 938 l 438 854 l 229 854 z "},"ि":{"ha":360,"x_min":-115,"x_max":975,"o":"m 131 854 l -61 854 l -115 938 l 138 938 q 76 1070 76 993 q 119 1192 76 1147 q 357 1267 196 1267 q 683 1198 518 1267 q 975 1019 847 1129 l 936 986 q 390 1182 664 1182 q 163 1039 163 1182 q 183 977 163 1010 q 224 938 204 944 l 421 938 l 475 854 l 229 854 l 229 0 l 131 68 l 131 854 z "},"ी":{"ha":360,"x_min":-318,"x_max":478,"o":"m 229 854 l 229 0 l 131 86 l 131 854 l -61 854 l -119 938 l 136 938 q -39 1178 43 1133 q -126 1200 -79 1200 q -203 1176 -172 1200 q -233 1102 -233 1153 q -185 1025 -233 1051 l -231 997 q -292 1053 -265 1015 q -318 1136 -318 1090 q -272 1242 -318 1204 q -160 1281 -226 1281 q -37 1251 -93 1281 q 64 1164 19 1221 q 200 938 140 1068 l 421 938 l 478 854 l 229 854 z "},"ु":{"ha":0,"x_min":-574,"x_max":-22,"o":"m -339 -62 q -301 37 -336 -1 q -203 75 -265 75 q -85 17 -140 75 q -22 -112 -22 -46 q -76 -230 -22 -179 q -222 -281 -129 -281 q -410 -222 -315 -281 q -574 -71 -504 -162 l -529 -36 q -251 -201 -390 -201 q -142 -165 -186 -201 q -99 -86 -99 -129 q -120 -22 -99 -43 q -177 -1 -142 -1 q -235 -32 -212 -1 q -262 -108 -258 -62 l -339 -62 z "},"ू":{"ha":0,"x_min":-415,"x_max":150,"o":"m -204 -10 q -290 -39 -250 -10 q -329 -115 -329 -68 q -251 -206 -329 -206 q -164 -108 -178 -206 l -85 -158 q -128 -249 -93 -212 q -215 -286 -162 -286 q -353 -221 -290 -286 q -415 -85 -415 -156 q -362 31 -415 -15 q -235 76 -310 76 q 150 -214 -40 76 l 107 -251 q -49 -74 32 -139 q -204 -10 -131 -10 z "},"ृ":{"ha":0,"x_min":-417,"x_max":18,"o":"m -336 -150 q -302 -215 -336 -189 q -224 -242 -268 -242 q -51 -158 -129 -242 l 18 -218 q -74 -287 -17 -256 q -190 -319 -131 -319 q -346 -256 -275 -319 q -417 -108 -417 -192 q -360 -8 -417 -51 q -273 49 -312 29 q -229 71 -233 68 l -131 4 l -131 0 q -274 -57 -212 -19 q -336 -150 -336 -94 z "},"ॅ":{"ha":0,"x_min":-467,"x_max":50,"o":"m -424 1276 q -218 1121 -331 1121 q -18 1283 -106 1121 l 50 1229 q -186 1049 -47 1049 q -467 1244 -353 1049 l -424 1276 z "},"ॆ":{"ha":0,"x_min":-724,"x_max":-151,"o":"m -400 1061 l -464 1061 q -646 1117 -590 1061 q -690 1174 -675 1147 q -724 1246 -706 1200 l -679 1281 q -600 1169 -636 1185 q -471 1149 -549 1149 l -412 1149 q -240 1089 -301 1149 q -169 978 -192 1043 q -151 921 -151 928 l -206 894 q -235 971 -215 935 q -268 1017 -256 1007 q -299 1039 -281 1026 q -400 1061 -331 1061 z "},"े":{"ha":0,"x_min":-599,"x_max":-143,"o":"m -599 1240 q -496 1268 -554 1268 q -382 1238 -437 1268 q -278 1140 -326 1208 q -212 1039 -231 1072 q -174 962 -194 1006 q -150 915 -153 918 q -143 899 -147 910 l -194 875 q -386 1150 -301 1094 q -464 1176 -426 1176 q -544 1157 -501 1176 l -599 1240 z "},"ै":{"ha":0,"x_min":-624,"x_max":-131,"o":"m -537 1333 q -457 1350 -500 1350 q -375 1329 -414 1350 q -308 1281 -336 1308 q -252 1206 -281 1254 q -208 1126 -224 1158 q -172 1038 -192 1093 q -131 904 -147 964 l -206 878 q -320 1013 -244 953 q -479 1072 -396 1072 q -564 1051 -515 1072 l -624 1126 q -514 1156 -575 1156 q -333 1092 -425 1156 q -189 938 -240 1028 q -439 1263 -310 1263 q -497 1253 -469 1263 l -537 1333 z "},"ॉ":{"ha":401,"x_min":-89,"x_max":497,"o":"m 256 854 l 256 0 l 156 71 l 156 854 l -37 854 l -87 938 l 446 938 l 497 854 l 256 854 m 158 1121 q 361 1283 274 1121 l 429 1229 q 191 1049 332 1049 q -89 1244 50 1049 l -44 1276 q 158 1121 56 1121 z "},"ॊ":{"ha":401,"x_min":-339,"x_max":497,"o":"m 256 854 l 256 0 l 156 71 l 156 854 l -37 854 l -87 938 l 165 938 q -19 1061 107 1061 l -83 1061 q -286 1146 -222 1061 q -339 1246 -312 1182 l -293 1281 q -281 1255 -290 1275 q -267 1228 -271 1235 q -253 1207 -264 1222 q -235 1187 -243 1192 q -212 1172 -228 1182 q -181 1158 -197 1161 q -90 1149 -125 1149 l -32 1149 q 232 938 160 1149 l 446 938 l 497 854 l 256 854 z "},"ो":{"ha":365,"x_min":-235,"x_max":475,"o":"m 233 854 l 233 0 l 135 71 l 135 854 l -58 854 l -110 938 l 138 938 q -107 1176 17 1176 q -181 1157 -137 1176 l -235 1240 q -139 1268 -190 1268 q -40 1245 -87 1268 q 42 1191 8 1222 q 108 1108 75 1160 q 203 938 157 1039 l 425 938 l 475 854 l 233 854 z "},"ौ":{"ha":365,"x_min":-262,"x_max":442,"o":"m 233 854 l 233 0 l 135 71 l 135 854 l -25 854 l -75 938 l 115 938 q 9 1035 71 997 q -103 1072 -53 1072 q -203 1051 -154 1072 l -262 1126 q -139 1156 -214 1156 q 29 1092 -64 1156 q 174 938 122 1028 q 92 1122 119 1081 q 38 1197 64 1164 q -78 1263 -14 1263 q -135 1253 -107 1263 l -175 1333 q -93 1350 -137 1350 q 221 938 101 1350 l 392 938 l 442 854 l 233 854 z "},"्":{"ha":0,"x_min":-343,"x_max":68,"o":"m -343 -99 q -261 -71 -297 -71 q -203 -76 -225 -71 q -160 -92 -182 -81 q -121 -114 -137 -104 q -83 -144 -104 -124 q -49 -177 -61 -165 q -16 -215 -37 -189 q 13 -252 6 -242 q 42 -291 21 -262 q 68 -326 64 -319 l 22 -358 q -26 -293 -3 -325 q -75 -235 -50 -261 q -119 -194 -100 -208 q -214 -158 -169 -158 q -289 -174 -258 -158 l -343 -99 z "},"ॐ":{"ha":1608,"x_min":0,"x_max":0,"o":""},"॑":{"ha":415,"x_min":167,"x_max":249,"o":"m 249 1018 l 167 1018 l 167 1328 l 249 1328 l 249 1018 z "},"॒":{"ha":0,"x_min":-687,"x_max":-128,"o":"m -128 -192 l -128 -272 l -687 -272 l -687 -192 l -128 -192 z "},"॓":{"ha":525,"x_min":126,"x_max":411,"o":"m 411 1083 l 347 1033 l 126 1306 l 192 1358 l 411 1083 z "},"॔":{"ha":606,"x_min":192,"x_max":429,"o":"m 210 1049 l 192 1064 l 410 1339 l 429 1321 l 210 1049 z "},"क़":{"ha":1114,"x_min":-81,"x_max":1199,"o":"m 526 299 q 353 194 454 194 q 160 294 251 194 q 68 497 68 394 q 130 652 68 599 q 278 706 192 706 q 376 688 331 706 l 407 600 q 322 615 367 615 q 203 573 251 615 q 156 457 156 531 q 205 333 156 383 q 321 283 254 283 q 518 432 442 283 l 518 854 l -25 854 l -81 938 l 1143 938 l 1199 854 l 618 854 q 614 732 618 850 q 610 608 610 614 q 683 676 638 649 q 775 703 728 703 q 971 599 886 703 q 1056 382 1056 494 q 999 244 1056 296 q 853 193 942 193 q 756 208 806 193 l 726 297 q 836 282 781 282 q 933 316 892 282 q 975 422 975 350 q 932 553 975 494 q 811 611 889 611 q 618 460 694 611 l 618 0 l 518 67 l 526 299 m 225 -14 l 301 64 l 382 -14 l 303 -92 l 225 -14 z "},"ख़":{"ha":1113,"x_min":-82,"x_max":1189,"o":"m 190 463 q 257 533 257 463 l 257 854 l -26 854 l -82 938 l 1133 938 l 1189 854 l 975 854 l 975 0 l 876 69 l 885 231 q 765 114 849 171 q 595 57 682 57 q 440 83 508 57 q 321 147 371 110 q 218 247 271 185 q 133 356 165 308 q 60 472 101 403 l 100 510 q 190 463 147 463 m 353 507 q 315 408 353 449 q 210 361 278 368 q 356 208 264 275 q 550 140 449 140 q 789 256 699 140 q 574 322 661 257 q 486 504 486 386 q 540 635 486 582 q 675 688 593 688 q 874 590 803 688 l 875 854 l 353 854 l 353 507 m 835 311 q 882 440 882 363 q 831 566 882 518 q 716 614 779 614 q 613 576 653 614 q 572 475 572 539 q 617 372 572 411 q 800 310 685 310 q 835 311 817 310 m 131 -14 l 207 64 l 288 -14 l 208 -92 l 131 -14 z "},"ग़":{"ha":747,"x_min":-81,"x_max":828,"o":"m 613 854 l 613 0 l 514 72 l 514 854 l 271 854 l 271 408 q 263 351 271 369 q 233 333 256 333 q 136 394 192 333 q 81 500 81 456 q 172 539 81 539 l 172 854 l -24 854 l -81 938 l 771 938 l 828 854 l 613 854 m 144 29 l 221 107 l 301 29 l 222 -49 l 144 29 z "},"ज़":{"ha":1003,"x_min":-83,"x_max":1082,"o":"m 768 538 l 471 538 q 578 317 578 442 q 532 196 578 244 q 417 147 486 147 q 297 177 349 147 q 210 247 246 207 q 142 353 175 288 q 47 578 96 442 l 103 611 q 200 367 157 438 q 306 250 258 275 q 384 233 338 233 q 464 266 431 233 q 497 345 497 299 q 484 425 497 392 q 439 497 471 458 q 331 613 399 544 l 339 626 l 768 626 l 768 854 l -28 854 l -83 938 l 1026 938 l 1082 854 l 868 854 l 868 0 l 768 68 l 768 538 m 108 -11 l 185 67 l 265 -11 l 186 -89 l 108 -11 z "},"ड़":{"ha":728,"x_min":-85,"x_max":811,"o":"m 110 282 q 383 104 228 104 q 532 155 468 104 q 596 274 596 206 q 575 332 596 307 q 524 357 554 357 q 424 329 493 357 q 314 301 354 301 q 178 375 244 301 q 111 530 111 449 q 158 655 111 611 q 288 699 206 699 l 500 699 l 500 854 l -28 854 l -85 938 l 756 938 l 811 854 l 597 854 l 597 610 l 313 610 q 186 496 186 610 q 213 417 186 450 q 276 385 240 385 q 385 413 311 385 q 490 442 460 442 q 615 373 561 442 q 668 229 668 304 q 595 90 668 154 q 416 25 522 25 q 218 85 310 25 q 64 244 126 146 l 110 282 m 346 -161 l 422 -83 l 503 -161 l 424 -239 l 346 -161 z "},"ढ़":{"ha":732,"x_min":-75,"x_max":815,"o":"m 579 854 l 579 594 l 390 594 q 163 390 163 594 q 233 232 163 299 q 403 163 304 165 q 346 296 346 224 q 389 415 346 368 q 501 463 432 463 q 628 408 571 463 q 686 272 686 353 q 612 138 686 192 q 447 83 538 83 q 191 190 304 83 q 78 449 78 296 q 142 616 78 549 q 326 683 207 683 l 479 683 l 479 854 l -18 854 l -75 938 l 760 938 l 815 854 l 579 854 m 528 386 q 506 386 528 386 q 454 351 485 386 q 424 262 424 315 q 461 168 424 208 q 567 216 522 178 q 611 313 611 254 q 591 366 611 346 q 528 386 571 386 m 375 -112 l 451 -35 l 532 -112 l 453 -190 l 375 -112 z "},"फ़":{"ha":1121,"x_min":-83,"x_max":1204,"o":"m 510 381 q 363 322 443 322 q 194 416 283 322 q 106 614 106 510 l 106 854 l -28 854 l -83 938 l 1149 938 l 1204 854 l 604 854 l 600 585 q 769 657 669 657 q 960 561 869 657 q 1051 364 1051 465 q 990 206 1051 263 q 831 150 928 150 q 758 158 808 150 l 726 249 q 806 239 763 239 q 924 278 879 239 q 969 390 969 317 q 924 516 969 463 q 808 569 878 569 q 604 442 671 569 l 604 0 l 503 68 l 510 381 m 329 411 q 506 511 431 411 l 506 854 l 204 854 l 204 560 q 239 453 204 496 q 329 411 274 411 m 179 57 l 256 135 l 336 57 l 257 -21 l 179 57 z "},"य़":{"ha":840,"x_min":-89,"x_max":917,"o":"m 703 854 l 703 0 l 603 71 l 606 343 q 399 231 510 231 q 182 331 289 231 q 75 522 75 432 q 101 558 75 546 q 263 656 221 618 q 306 726 306 694 q 278 794 306 757 q 207 854 251 831 l -33 854 l -89 938 l 861 938 l 917 854 l 703 854 m 179 456 q 238 360 179 403 q 369 318 297 318 q 504 367 442 318 q 604 485 567 415 l 604 854 l 297 854 q 372 773 347 821 q 397 699 397 725 q 393 660 397 674 q 378 632 389 646 q 360 608 368 618 q 332 585 351 599 q 301 565 313 572 q 265 542 290 558 q 234 522 240 526 q 216 510 228 518 q 201 499 204 503 q 192 489 197 496 q 179 456 179 474 m 119 38 l 196 115 l 276 38 l 197 -40 l 119 38 z "},"ॠ":{"ha":1171,"x_min":-85,"x_max":1251,"o":"m 906 479 q 780 451 853 451 q 650 475 707 451 l 650 0 l 551 68 l 551 418 l 228 150 l 154 207 l 526 494 q 317 635 417 635 q 117 557 217 635 l 56 633 q 274 714 156 714 q 551 542 413 714 l 551 854 l -28 854 l -85 938 l 1193 938 l 1251 854 l 650 854 l 650 531 q 717 519 676 519 q 851 550 799 519 q 819 632 819 596 q 845 690 819 668 q 908 713 871 713 q 983 671 946 713 q 1021 588 1021 629 q 957 507 1021 547 q 992 469 958 504 q 1049 403 1025 433 q 1095 323 1072 374 q 1118 217 1118 272 q 1065 115 1118 163 q 942 67 1011 67 q 733 157 825 67 l 772 197 q 894 146 826 146 q 996 175 961 146 q 1031 257 1031 204 q 1019 319 1031 296 l 1003 351 q 961 414 986 385 q 922 460 936 443 q 906 479 908 476 z "},"ॡ":{"ha":1011,"x_min":-83,"x_max":1110,"o":"m 804 -217 q 790 -225 804 -217 q 761 -254 776 -233 q 746 -307 746 -275 q 778 -360 746 -339 q 851 -381 810 -381 q 1040 -297 947 -381 l 1110 -357 q 1012 -425 1076 -392 q 890 -458 947 -458 q 736 -401 806 -458 q 667 -261 667 -343 q 717 -171 667 -211 q 620 -101 657 -147 q 583 -6 583 -54 q 611 75 583 42 q 667 126 639 108 q 738 165 696 144 q 782 188 781 186 l 782 554 q 688 569 736 569 q 572 519 607 569 q 538 398 538 468 q 556 250 538 328 l 468 276 q 442 413 442 344 q 460 525 442 481 q 340 572 410 572 q 225 524 271 572 q 179 387 179 475 q 243 212 179 299 q 411 36 307 125 l 360 0 q 89 435 89 232 q 153 594 89 531 q 311 658 217 658 q 411 635 363 658 q 489 578 460 611 q 642 656 543 656 q 782 614 717 656 l 782 854 l -28 854 l -83 938 l 1042 938 l 1097 854 l 881 854 l 881 117 q 701 38 763 88 q 663 -33 663 6 q 694 -93 663 -72 q 770 -114 726 -114 q 860 -86 814 -114 l 925 -94 q 933 -107 924 -96 q 960 -142 964 -139 l 954 -149 q 913 -165 946 -153 q 856 -189 879 -178 q 804 -217 832 -200 z "},"।":{"ha":436,"x_min":168,"x_max":267,"o":"m 267 838 l 267 8 l 168 79 l 168 910 l 267 838 z "},"॥":{"ha":753,"x_min":168,"x_max":594,"o":"m 267 836 l 267 8 l 168 78 l 168 910 l 267 836 m 594 836 l 594 8 l 494 78 l 494 910 l 594 836 z "},"०":{"ha":914,"x_min":160,"x_max":742,"o":"m 457 843 q 242 431 242 843 q 299 178 242 290 q 447 65 357 65 q 600 176 538 65 q 663 469 663 286 q 608 747 663 651 q 457 843 553 843 m 742 443 q 658 115 742 232 q 467 -3 574 -3 q 274 92 368 -3 q 192 246 224 143 q 160 469 160 349 q 178 669 160 590 q 226 795 197 749 q 294 872 256 842 q 426 925 360 925 q 545 900 493 925 q 643 822 597 875 q 715 671 689 768 q 742 443 742 574 z "},"१":{"ha":649,"x_min":108,"x_max":581,"o":"m 485 -10 q 536 -109 536 -56 q 479 -217 536 -162 l 401 -156 q 442 -82 442 -119 q 379 15 442 -44 l 165 222 q 135 282 135 253 q 186 347 135 311 q 242 385 192 351 q 314 435 293 419 q 378 487 335 451 q 442 547 422 522 q 499 681 499 619 q 458 792 499 743 q 349 840 417 840 q 240 802 281 840 q 200 707 200 764 q 301 551 200 621 l 263 513 q 158 606 208 543 q 108 744 108 668 q 172 874 108 821 q 307 926 235 926 q 499 832 417 926 q 581 628 581 738 q 503 479 581 556 q 276 293 426 403 q 247 247 247 271 q 276 194 247 222 l 485 -10 z "},"२":{"ha":729,"x_min":64,"x_max":651,"o":"m 354 933 q 561 823 471 933 q 651 581 651 713 q 557 404 651 488 q 361 290 463 321 l 611 -108 l 544 -151 l 299 275 q 246 268 257 268 q 160 311 200 268 q 119 408 119 354 q 150 463 119 442 q 206 485 181 485 q 251 467 232 485 q 281 431 269 449 q 314 375 292 413 q 499 474 425 404 q 574 632 574 544 q 511 779 574 719 q 356 839 449 839 q 114 761 235 839 l 64 844 q 206 910 139 888 q 354 933 272 933 z "},"३":{"ha":744,"x_min":78,"x_max":649,"o":"m 288 -10 q 150 58 206 14 q 94 142 94 101 q 119 211 94 182 q 175 240 143 240 q 306 97 221 240 q 311 90 308 94 q 317 81 314 85 q 489 151 413 92 q 565 301 565 210 q 531 403 565 350 q 474 465 496 456 q 294 383 424 429 l 247 461 l 249 467 q 456 567 386 507 q 526 692 526 626 q 482 801 526 758 q 365 844 438 844 q 143 739 238 844 l 78 806 q 336 924 189 924 q 523 838 446 924 q 600 658 600 753 q 587 600 600 631 q 560 552 574 569 q 524 506 547 535 q 610 399 571 464 q 649 261 649 333 q 564 92 649 167 q 358 -4 479 17 l 507 -218 l 440 -262 l 288 -10 z "},"४":{"ha":863,"x_min":38,"x_max":765,"o":"m 650 183 q 599 59 650 114 q 451 4 547 4 q 270 88 356 4 q 185 260 185 171 q 200 328 185 299 q 253 399 215 357 l 360 522 l 38 899 l 86 936 l 400 568 l 696 933 l 765 878 l 469 504 l 547 411 q 650 183 650 288 m 303 299 q 272 222 272 258 q 286 154 272 185 q 414 79 324 79 q 522 117 481 79 q 563 221 563 154 q 436 451 563 322 l 413 438 q 394 415 411 436 q 356 369 376 393 q 303 299 303 304 z "},"५":{"ha":861,"x_min":146,"x_max":703,"o":"m 435 7 q 381 15 414 7 l 533 -208 l 476 -249 l 313 31 q 198 99 250 58 q 146 189 146 140 q 167 245 146 221 q 211 269 189 269 q 248 260 233 269 q 278 228 263 250 q 303 192 293 207 q 329 147 313 178 q 350 110 346 117 q 430 89 379 89 q 524 119 481 89 q 618 444 618 186 q 618 472 618 458 q 460 403 539 403 q 262 495 357 403 q 167 713 167 588 q 226 933 167 808 l 310 882 q 247 689 247 775 q 294 542 247 603 q 419 481 342 481 q 524 509 474 481 q 606 581 574 538 q 560 922 586 788 l 658 876 q 699 551 694 619 q 703 433 703 483 q 435 7 703 7 z "},"६":{"ha":831,"x_min":126,"x_max":804,"o":"m 596 465 q 454 478 525 478 q 329 450 383 478 q 239 289 239 401 q 301 152 239 215 q 440 89 363 89 q 556 124 518 89 q 524 219 524 182 q 547 280 524 257 q 608 303 569 303 q 683 256 647 303 q 719 169 719 210 q 663 75 719 129 l 804 -142 l 736 -186 l 608 42 q 496 13 558 13 q 257 117 364 13 q 150 332 150 221 q 244 513 150 443 q 126 736 126 608 q 186 869 126 817 q 378 935 257 935 q 560 901 461 935 l 585 817 l 581 813 q 413 849 476 849 q 313 835 350 849 q 214 702 214 799 q 297 540 214 606 q 433 563 365 563 q 565 549 501 563 l 600 471 l 596 465 z "},"७":{"ha":1111,"x_min":76,"x_max":1019,"o":"m 475 601 q 540 752 475 692 q 685 813 606 813 q 919 690 818 813 q 1019 419 1019 568 q 928 167 1019 289 q 817 72 885 108 q 660 35 750 35 q 486 74 571 35 q 340 181 401 113 q 231 335 279 250 q 153 521 183 419 q 76 906 93 721 l 138 935 q 278 383 163 619 q 424 194 335 264 q 625 124 514 124 q 768 156 706 124 q 867 239 831 188 q 936 457 936 340 q 879 649 936 574 q 724 725 822 725 q 608 679 654 725 q 563 550 563 633 q 640 422 563 467 q 792 376 717 376 q 810 376 801 376 l 811 375 l 776 322 q 563 403 651 328 q 475 601 475 479 z "},"८":{"ha":763,"x_min":85,"x_max":693,"o":"m 408 -3 q 188 97 292 -3 q 85 283 85 196 q 146 453 85 369 l 504 935 l 583 881 l 229 385 q 183 257 183 322 q 240 137 183 192 q 381 82 297 82 q 525 147 465 82 q 614 313 585 211 l 619 314 l 693 260 q 521 22 624 72 q 408 -3 471 -3 z "},"९":{"ha":671,"x_min":63,"x_max":608,"o":"m 133 472 q 63 676 63 571 q 138 853 63 781 q 322 925 214 925 q 519 836 429 925 q 608 656 608 747 q 517 467 608 543 q 294 361 425 390 l 557 -18 q 588 -106 588 -61 q 494 -221 588 -175 l 422 -165 q 503 -72 503 -121 q 461 14 503 -42 q 444 40 447 35 l 133 472 m 526 694 q 480 796 526 754 q 351 838 433 838 q 210 780 269 838 q 150 628 150 722 q 243 439 150 535 q 431 517 347 461 q 526 694 526 581 z "},"॰":{"ha":707,"x_min":154,"x_max":554,"o":"m 360 594 q 406 594 360 594 q 503 544 451 594 q 554 413 554 493 q 498 273 554 333 q 349 208 442 213 q 209 259 264 208 q 154 392 154 310 q 212 534 154 475 q 360 594 269 593 m 313 263 q 442 319 392 263 q 493 446 493 375 q 467 514 493 488 q 387 540 442 540 q 274 494 332 540 q 217 367 217 447 q 242 292 217 322 q 313 263 268 263 z "},"ॽ":{"ha":853,"x_min":225,"x_max":725,"o":"m 488 -17 l 482 -17 l 400 46 l 400 371 q 438 490 400 428 q 519 599 475 553 q 601 699 564 644 q 639 799 639 754 q 600 875 639 843 q 492 907 561 907 q 300 792 374 907 l 225 864 q 320 953 261 917 q 450 990 379 990 q 640 915 554 990 q 725 753 725 840 q 642 594 725 686 q 571 513 606 556 q 512 413 536 471 q 488 292 488 354 l 488 -17 z "},"​":{"ha":0,"x_min":0,"x_max":0,"o":""},"‌":{"ha":0,"x_min":-32,"x_max":33,"o":"m 33 -319 l -32 -319 l -32 1126 l 33 1126 l 33 -319 z "},"‍":{"ha":0,"x_min":-176,"x_max":179,"o":"m 33 -319 l -32 -319 l -32 882 l -128 781 l -174 826 l -44 956 l -176 1088 l -131 1133 l 1 1001 l 135 1133 l 179 1089 l 46 956 l 179 824 l 133 778 l 33 882 l 33 -319 z "},"–":{"ha":803,"x_min":83,"x_max":781,"o":"m 781 479 l 122 479 l 83 560 l 83 565 l 740 565 l 781 486 l 781 479 z "},"—":{"ha":957,"x_min":83,"x_max":842,"o":"m 842 479 l 122 479 l 83 560 l 83 565 l 801 565 l 842 486 l 842 479 z "},"‘":{"ha":311,"x_min":90,"x_max":249,"o":"m 90 1022 q 183 1251 90 1119 l 238 1226 q 228 1212 236 1224 q 219 1196 221 1200 q 210 1181 217 1192 q 200 1165 203 1171 q 192 1149 197 1160 q 183 1132 186 1139 q 177 1115 181 1125 q 172 1096 174 1104 q 165 1058 165 1071 q 249 931 165 974 l 249 925 l 208 854 q 118 925 146 879 q 90 1022 90 971 z "},"’":{"ha":310,"x_min":61,"x_max":221,"o":"m 221 1086 q 128 854 221 986 l 74 879 q 146 1047 142 985 q 61 1174 146 1129 l 61 1181 l 103 1251 q 221 1086 221 1203 z "},"‚":{"ha":310,"x_min":61,"x_max":219,"o":"m 219 104 q 126 -126 219 -1 l 74 -101 q 83 -85 74 -100 q 94 -68 93 -71 q 104 -51 96 -65 q 115 -33 113 -37 q 123 -15 117 -28 q 132 6 129 -3 q 144 72 144 39 q 61 193 144 151 l 61 199 l 103 269 q 192 199 165 244 q 219 104 219 154 z "},"“":{"ha":506,"x_min":89,"x_max":444,"o":"m 89 1015 q 183 1246 89 1113 l 238 1221 q 165 1053 169 1117 q 249 925 163 971 l 249 919 l 208 849 q 89 1015 89 899 m 285 1015 q 379 1246 285 1117 l 432 1221 q 422 1205 432 1219 q 411 1188 413 1190 q 401 1171 410 1185 q 391 1152 393 1157 q 383 1135 389 1147 q 374 1114 376 1122 q 361 1047 361 1081 q 444 925 361 969 l 444 919 l 403 849 q 313 920 340 875 q 285 1015 285 965 z "},"”":{"ha":506,"x_min":61,"x_max":417,"o":"m 417 1078 q 322 849 417 978 l 268 874 q 340 1048 336 972 q 257 1168 343 1124 l 257 1175 l 297 1246 q 388 1174 360 1221 q 417 1078 417 1128 m 221 1078 q 128 849 221 978 l 74 874 q 83 888 75 876 q 92 904 90 900 q 101 919 94 908 q 111 935 108 929 q 119 951 114 940 q 128 968 125 961 q 134 985 131 975 q 139 1004 138 996 q 146 1042 146 1029 q 61 1168 146 1124 l 61 1175 l 103 1246 q 193 1175 165 1221 q 221 1078 221 1129 z "},"„":{"ha":506,"x_min":61,"x_max":417,"o":"m 417 103 q 322 -126 417 3 l 268 -101 q 340 73 336 -3 q 257 193 343 149 l 257 200 l 297 271 q 388 199 360 246 q 417 103 417 153 m 221 103 q 128 -126 221 3 l 74 -101 q 83 -87 75 -99 q 92 -71 90 -75 q 101 -56 94 -67 q 111 -40 108 -46 q 119 -24 114 -35 q 128 -7 125 -14 q 134 10 131 0 q 139 29 138 21 q 146 67 146 54 q 61 193 146 149 l 61 200 l 103 271 q 193 200 165 246 q 221 103 221 154 z "},"†":{"ha":835,"x_min":83,"x_max":753,"o":"m 753 763 l 461 763 l 461 -11 l 456 -11 l 374 54 l 374 763 l 122 763 l 83 842 l 83 849 l 374 849 l 374 1164 l 379 1164 l 461 1097 l 461 849 l 713 849 l 753 768 l 753 763 z "},"‡":{"ha":835,"x_min":83,"x_max":753,"o":"m 753 831 l 461 831 l 461 388 l 713 388 l 753 308 l 753 301 l 461 301 l 461 57 l 456 57 l 374 122 l 374 301 l 122 301 l 83 382 l 83 388 l 374 388 l 374 831 l 122 831 l 83 910 l 83 917 l 374 917 l 374 1232 l 379 1232 l 461 1165 l 461 917 l 713 917 l 753 836 l 753 831 z "},"•":{"ha":431,"x_min":129,"x_max":303,"o":"m 303 520 q 303 502 303 520 q 277 459 303 483 q 215 435 251 435 q 153 459 178 435 q 129 520 129 483 q 153 583 129 557 q 215 608 178 608 q 277 583 251 608 q 303 520 303 557 z "},"…":{"ha":871,"x_min":132,"x_max":733,"o":"m 268 131 q 268 117 268 131 q 248 83 268 103 q 199 63 228 63 q 151 83 171 63 q 132 131 132 103 q 151 179 132 160 q 199 199 171 199 q 248 179 228 199 q 268 131 268 160 m 504 131 q 504 117 504 131 q 484 83 504 103 q 435 63 464 63 q 388 83 407 63 q 368 131 368 103 q 388 179 368 160 q 436 199 407 199 q 485 179 465 199 q 504 131 504 160 m 713 83 q 703 73 713 83 q 665 63 693 63 q 618 83 638 63 q 599 131 599 103 q 618 179 599 160 q 665 199 638 199 q 713 179 693 199 q 733 131 733 160 q 713 83 733 103 z "},"‰":{"ha":1581,"x_min":126,"x_max":1463,"o":"m 365 68 l 267 68 l 797 969 l 893 969 l 365 68 m 203 744 q 229 617 203 665 q 301 569 256 569 q 373 615 346 569 q 400 744 400 661 q 300 914 400 914 q 203 744 203 914 m 170 913 q 192 946 170 913 q 301 979 214 979 q 433 912 389 979 q 478 744 478 844 q 434 575 478 643 q 304 507 390 507 q 172 578 218 507 q 126 748 126 650 q 170 913 126 846 m 769 293 q 796 167 769 214 q 867 119 822 119 q 938 165 911 119 q 965 293 965 211 q 865 463 965 463 q 769 293 769 463 m 735 461 q 757 494 735 461 q 867 528 779 528 q 999 460 954 528 q 1043 293 1043 393 q 999 125 1043 193 q 869 57 956 57 q 738 128 783 57 q 692 297 692 199 q 735 461 692 394 m 1189 293 q 1216 167 1189 214 q 1288 119 1243 119 q 1359 165 1333 119 q 1385 293 1385 211 q 1287 463 1385 463 q 1189 293 1189 463 m 1156 461 q 1179 494 1156 461 q 1288 528 1201 528 q 1418 460 1374 528 q 1463 293 1463 393 q 1419 125 1463 193 q 1290 57 1375 57 q 1158 128 1204 57 q 1111 297 1111 199 q 1156 461 1111 394 z "},"‹":{"ha":529,"x_min":119,"x_max":390,"o":"m 119 521 l 344 774 l 390 750 l 217 521 l 390 292 l 344 267 l 119 521 z "},"›":{"ha":529,"x_min":136,"x_max":407,"o":"m 182 842 l 407 589 l 182 335 l 136 360 l 310 589 l 136 818 l 182 842 z "},"⁄":{"ha":676,"x_min":14,"x_max":657,"o":"m 599 974 l 657 974 l 71 15 l 14 15 l 599 974 z "},"€":{"ha":751,"x_min":38,"x_max":707,"o":"m 707 168 q 479 51 608 51 q 263 139 350 51 q 150 378 175 226 l 39 378 q 50 431 39 401 l 143 431 q 140 499 140 469 q 142 546 140 528 l 38 546 q 49 599 38 572 l 149 599 q 260 844 172 754 q 476 933 349 933 q 706 828 604 933 l 688 799 q 497 860 594 860 q 338 791 400 860 q 256 599 275 722 l 556 599 q 544 546 556 569 l 250 546 q 247 490 247 510 q 250 431 247 469 l 554 431 q 543 378 554 400 l 257 378 q 340 191 278 257 q 497 125 401 125 q 688 193 593 125 l 707 168 z "},"₹":{"ha":726,"x_min":93,"x_max":717,"o":"m 504 854 l 504 683 l 671 683 l 717 594 l 504 594 l 504 515 q 442 381 504 432 q 293 322 379 329 q 263 319 278 319 q 233 321 247 319 q 357 165 263 278 q 538 -43 451 51 l 467 -83 q 322 92 363 43 q 93 397 181 263 l 151 451 q 258 406 194 406 q 363 441 322 406 q 404 538 404 476 l 404 594 l 97 594 l 97 683 l 404 683 l 404 854 l 96 854 l 96 938 l 669 938 l 717 854 l 504 854 z "},"™":{"ha":1088,"x_min":39,"x_max":1032,"o":"m 411 917 q 414 863 414 889 q 411 811 414 836 q 385 808 394 808 q 368 867 382 851 q 318 883 354 883 l 257 883 l 257 482 q 329 468 288 471 q 326 439 329 447 l 122 439 q 125 468 122 460 q 182 478 168 471 q 196 503 196 485 l 196 883 l 133 883 q 85 868 99 883 q 67 811 71 853 q 40 811 54 808 q 39 863 39 836 q 40 917 39 889 l 411 917 m 1031 468 q 1032 453 1032 461 q 1031 439 1032 446 l 865 439 q 865 468 861 456 q 903 478 893 471 q 914 503 914 485 l 892 842 l 732 439 l 710 439 l 578 799 l 560 851 l 529 479 q 589 468 553 471 q 583 439 589 458 l 431 439 q 435 468 431 460 q 492 506 490 475 l 519 881 q 469 889 497 886 q 471 917 467 908 l 594 917 l 729 544 l 876 917 l 990 917 q 999 889 999 900 q 957 880 968 888 q 947 853 946 872 l 976 479 q 1031 468 1001 469 z "},"−":{"ha":828,"x_min":83,"x_max":753,"o":"m 753 479 l 122 479 l 83 560 l 83 565 l 713 565 l 753 486 l 753 479 z "},"◌":{"ha":917,"x_min":61,"x_max":856,"o":"m 254 656 q 241 656 254 656 q 210 673 228 656 q 193 717 193 690 q 210 762 193 744 q 254 779 228 779 q 298 762 281 779 q 315 717 315 744 q 298 673 315 690 q 254 656 281 656 m 97 522 q 88 530 97 522 q 79 565 79 539 q 97 609 79 592 q 142 626 115 626 q 186 609 168 626 q 204 565 204 592 q 186 522 204 539 q 142 504 168 504 q 97 522 115 504 m 78 347 q 70 356 78 347 q 61 390 61 364 q 78 435 61 417 q 122 453 96 453 q 166 435 149 453 q 183 391 183 418 q 166 347 183 364 q 122 331 149 331 q 78 347 96 331 m 150 185 q 142 194 150 185 q 133 229 133 203 q 151 273 133 256 q 194 290 168 290 q 238 273 221 290 q 256 229 256 256 q 238 185 256 203 q 194 168 221 168 q 150 185 167 168 m 336 61 q 323 61 336 61 q 292 79 310 61 q 274 124 274 97 q 292 168 274 150 q 336 186 310 186 q 380 168 363 186 q 397 124 397 150 q 380 79 397 97 q 336 61 363 61 m 467 58 q 458 67 467 58 q 450 103 450 75 q 467 147 450 131 q 511 164 483 164 q 556 147 539 164 q 574 103 574 129 q 556 59 574 76 q 511 42 539 42 q 467 58 483 42 m 635 133 q 627 141 635 133 q 618 176 618 150 q 635 220 618 203 q 679 238 653 238 q 724 220 706 238 q 742 176 742 203 q 724 133 742 150 q 679 115 706 115 q 635 133 653 115 m 738 269 q 728 277 738 269 q 719 313 719 286 q 738 357 719 339 q 781 375 756 375 q 824 357 807 375 q 842 313 842 339 q 824 269 842 286 q 781 251 807 251 q 738 269 756 251 m 750 455 q 742 464 750 455 q 733 499 733 472 q 750 542 733 525 q 794 560 767 560 q 838 542 821 560 q 856 499 856 525 q 838 455 856 472 q 794 438 821 438 q 750 455 767 438 m 681 619 q 673 627 681 619 q 664 663 664 636 q 681 707 664 689 q 725 725 699 725 q 769 708 751 725 q 786 663 786 690 q 769 619 786 636 q 725 601 751 601 q 681 619 699 601 m 594 696 q 581 696 594 696 q 550 714 568 696 q 532 758 532 732 q 549 801 532 783 q 594 819 567 819 q 638 802 621 819 q 654 758 654 785 q 637 714 654 732 q 594 696 619 696 m 374 733 q 366 742 374 733 q 357 778 357 750 q 374 822 357 806 q 418 839 392 839 q 462 822 444 839 q 479 778 479 806 q 462 733 479 750 q 418 717 444 717 q 374 733 392 717 z "},"ﬁ":{"ha":789,"x_min":36,"x_max":738,"o":"m 542 178 l 542 636 l 233 636 l 233 133 q 331 110 278 113 q 326 68 331 85 l 38 68 q 36 86 36 75 q 42 110 36 97 q 113 131 93 117 q 133 179 133 144 l 133 635 q 43 640 94 640 q 46 669 43 656 q 133 692 94 686 l 133 785 q 203 988 133 922 q 377 1054 274 1054 q 569 1001 481 1054 q 657 890 657 947 q 640 849 657 865 q 599 833 624 833 q 548 859 574 833 q 502 916 522 885 q 445 973 482 947 q 352 998 408 999 q 265 961 296 997 q 233 839 233 925 l 233 692 q 643 708 532 692 l 643 131 q 738 110 686 111 q 732 68 738 83 l 447 68 q 451 110 444 92 q 522 129 501 115 q 542 178 542 143 z "},"ﬂ":{"ha":760,"x_min":36,"x_max":708,"o":"m 514 178 l 514 971 q 376 996 454 996 q 265 959 299 996 q 232 836 232 922 l 232 692 q 429 701 315 692 q 417 636 429 667 l 232 636 l 232 131 q 326 110 275 113 q 322 68 328 92 l 38 68 q 36 85 36 75 q 40 110 36 96 q 112 129 92 115 q 132 178 132 143 l 132 635 q 43 640 93 640 q 44 669 42 654 q 132 692 93 686 l 132 782 q 213 992 132 926 q 407 1057 293 1057 q 614 1031 521 1057 l 614 131 q 708 110 657 113 q 704 68 708 85 l 419 68 q 422 110 417 89 q 494 129 474 115 q 514 178 514 143 z "}," ":{"ha":347,"x_min":0,"x_max":0,"o":""}}}
